<svg width="345" height="384" viewBox="0 0 345 384" fill="none" xmlns="http://www.w3.org/2000/svg">
<path d="M41.6994 72.1308C44.1265 45.3061 116.821 -4.2495 182.998 0.291886C198.86 1.38041 212.864 8.59858 225.487 19.2831C255.404 26.3155 288.489 41.6207 311.216 65.7304C331.876 87.6483 332.711 121.189 328.369 155.265C348.058 189.05 348.73 237.995 333.196 276.891C323.256 301.781 303.452 326.806 270.027 346.418C259.021 356.254 246.645 364.598 233.671 370.776C192.735 390.27 130.818 390.888 52.7961 340.536C-10.9789 299.378 -5.81651 217.33 10.923 179.198C8.05131 168.967 7.07419 160.063 9.99138 153.767C10.0698 129.552 16.1463 88.0743 41.6994 72.1308Z" fill="#ECE8FF"/>
</svg>
