<svg width="122" height="134" viewBox="0 0 122 134" fill="none" xmlns="http://www.w3.org/2000/svg">
<ellipse cx="60.5161" cy="117.25" rx="60.5161" ry="16.75" fill="#F8DAA7"/>
<path d="M13.0788 107.645L18.371 104.822L75.6451 113.468L103.742 99.9596L105.363 101.581C108.064 105.363 107.632 107.848 105.903 111.306L74.0241 128.056L12.4273 120.492C11.8871 120.492 10.8064 117.682 12.9677 117.25C15.129 116.818 53.672 121.753 72.4032 124.274C74.0242 123.734 74.5645 119.411 73.2057 116.607L13.4316 109.52C12.4593 109.405 12.2148 108.106 13.0788 107.645Z" fill="#EE9A20"/>
<path d="M14.7799 109.463L72.8005 116.499C73.8971 116.632 74.6782 117.629 74.5452 118.726L74.0341 122.94C73.9011 124.036 72.9044 124.817 71.8079 124.684L13.7872 117.647L14.7799 109.463Z" fill="white"/>
<path d="M19.4517 112.927L58.8952 117.79" stroke="#EA9A25" stroke-width="0.3" stroke-linecap="round" stroke-linejoin="round"/>
<path d="M19.4517 116.169L58.8952 121.032" stroke="#EA9A25" stroke-width="0.3" stroke-linecap="round" stroke-linejoin="round"/>
<path d="M48.0888 79.9675L18.9114 92.9353C13.0759 95.5288 15.0391 101.941 16.7501 104.822L75.6453 113.468C85.5512 108.965 105.579 99.7433 106.444 98.8788C107.308 98.0143 105.903 96.7175 104.823 97.2579L77.0654 110.108C76.4027 110.415 75.6453 109.931 75.6453 109.201V100.5L105.917 88.9676C106.892 88.5962 106.718 87.1677 105.683 87.0405L48.0888 79.9675Z" fill="#F5B945"/>
<path d="M75.6452 109.203V101.187C75.6452 100.773 75.9 100.402 76.2862 100.253L103.742 89.6934V97.7982L77.0643 110.111C76.4016 110.417 75.6452 109.933 75.6452 109.203Z" fill="white"/>
<path d="M75.6452 100.5L18.9113 92.9354L47.5484 79.9677L105.188 87.0462C106.221 87.173 106.397 88.5958 105.427 88.9713L75.6452 100.5Z" fill="#EA9A25" fill-opacity="0.58" stroke="#FEB301" stroke-width="0.3" stroke-linecap="round" stroke-linejoin="round"/>
<path d="M101.581 92.9354L78.8871 102.121" stroke="#EA9A25" stroke-width="0.3" stroke-linecap="round" stroke-linejoin="round"/>
<path d="M101.581 96.1772L78.8871 105.363" stroke="#EA9A25" stroke-width="0.3" stroke-linecap="round" stroke-linejoin="round"/>
<path d="M28.3553 17.3854H89.6729V90.9843H28.3553V17.3854Z" fill="#FDCF7A"/>
<path d="M60.6638 50.8545C57.9457 50.8545 54.6527 50.8545 52.2593 52.8731" stroke="black" stroke-width="1.5" stroke-linecap="round" stroke-linejoin="round"/>
<path d="M28.3516 16.7353C28.3516 15.895 29.0327 15.2139 29.873 15.2139H90.9529V18.2566H29.873C29.0327 18.2566 28.3516 17.5755 28.3516 16.7353V16.7353Z" fill="#EA9A25"/>
<path d="M28.3516 7.60684C28.3516 6.7666 29.0327 6.08545 29.873 6.08545H84.9908V9.12823H29.8729C29.0327 9.12823 28.3516 8.44708 28.3516 7.60684V7.60684Z" fill="#EA9A25"/>
<path d="M84.991 6.08545V6.08545C88.2837 6.08545 90.953 8.75474 90.953 12.0475V91.2833H84.991V6.08545Z" fill="#EE9A20"/>
<path d="M28.9228 8.11328H82.5399C84.7414 8.11328 86.5261 9.89797 86.5261 12.0995V12.0995C86.5261 14.301 84.7414 16.0857 82.5399 16.0857H28.9228V8.11328Z" fill="#F8F8F8"/>
<ellipse cx="66.6657" cy="41.1769" rx="4.73142" ry="4.73142" transform="scale(0.996892 1.00312) rotate(-90 66.6657 41.1769)" fill="black"/>
<path d="M61.8845 41.4374C61.8845 38.6557 64.0223 36.3954 66.6655 36.3953C66.6863 36.3953 66.7074 36.396 66.7281 36.3962C68.2059 36.4105 69.2532 36.9322 69.9787 37.6646C70.7131 38.406 71.1156 39.3606 71.3058 40.2139C71.3095 40.2307 71.311 40.2479 71.3146 40.2646C71.3997 40.6411 71.4476 41.0335 71.4476 41.4374L71.4476 41.4705L71.4163 41.4832C70.3522 41.9239 68.5452 42.0803 66.7262 42.0496C64.9054 42.0189 63.0617 41.8004 61.9206 41.4851L61.8845 41.4754L61.8845 41.4374Z" fill="#EBA62D" stroke="#EBA62D" stroke-width="0.1"/>
<ellipse cx="0.736961" cy="1.09458" rx="0.736961" ry="1.09458" transform="matrix(-0.233047 -0.971155 0.976988 -0.218941 66.9984 44.9192)" fill="white"/>
<ellipse cx="45.5591" cy="41.1767" rx="4.73142" ry="4.73142" transform="scale(0.996892 1.00312) rotate(-90 45.5591 41.1767)" fill="black"/>
<ellipse cx="0.722659" cy="1.09458" rx="0.722659" ry="1.09458" transform="matrix(-0.21788 -0.97467 0.980283 -0.203685 45.8597 44.863)" fill="white"/>
<path d="M40.7779 41.4373C40.778 38.6556 42.9158 36.3954 45.559 36.3952C48.2024 36.3952 50.341 38.6555 50.3411 41.4373L50.3411 41.4773L50.302 41.4861C46.5969 42.3612 42.8064 41.8196 40.82 41.4871L40.7779 41.4793L40.7779 41.4373Z" fill="#EBA62D" stroke="#EBA62D" stroke-width="0.1"/>
<ellipse cx="68.1715" cy="49.2082" rx="3.41714" ry="1.49483" fill="#EBA62D"/>
<ellipse cx="44.0698" cy="49.2082" rx="3.41714" ry="1.49483" fill="#EBA62D"/>
<path d="M46.0374 32.9571C46.0716 32.626 46.1059 32.2948 46.1402 31.9637C45.9198 31.9509 45.7926 31.9757 45.6474 31.9947C43.2564 32.47 41.001 33.4408 39.3395 35.1905C39.2508 35.2888 39.1643 35.3908 39.0822 35.4947C39.1774 35.5762 39.2726 35.6576 39.3678 35.7391C39.4524 35.6484 39.5409 35.5598 39.6313 35.4748C41.2936 33.9686 43.601 33.2028 45.7601 32.9567C45.868 32.9489 46.0089 32.9475 46.0374 32.9571Z" fill="black"/>
<path d="M66.9881 33.3124C66.9515 32.9818 66.9148 32.6511 66.8781 32.3205C67.111 32.3053 67.2351 32.3382 67.3753 32.3629C69.6338 32.9658 71.5859 34.1001 73.1164 35.7398C73.1987 35.832 73.2794 35.9268 73.357 36.0229C73.2626 36.1057 73.1683 36.1885 73.0739 36.2713C72.9927 36.1868 72.9087 36.1039 72.8232 36.0235C71.2706 34.6037 69.1939 33.663 67.2125 33.3181C67.1175 33.3063 66.9904 33.3042 66.9881 33.3124Z" fill="black"/>
<path d="M72.0723 0V13.9085H81.1563V0L77.0272 3.02358L72.0723 0Z" fill="#FEB301"/>
<rect x="40.7612" y="65.8585" width="33.5879" height="12.5131" fill="#F3AA31"/>
<path d="M69.0807 88.9091L80.9353 91.9639C82.6915 92.3713 85.6771 94.6523 83.5697 96.8518C81.4622 99.0513 59.8605 103.98 49.3232 106.627C48.6646 106.729 47.7426 107.666 49.3232 110.599" stroke="black" stroke-width="2" stroke-linecap="round" stroke-linejoin="round"/>
<path d="M52.0324 104.93C52.2789 104.881 52.4728 104.858 52.618 104.861C52.6907 104.862 52.7584 104.87 52.816 104.887C52.8727 104.904 52.9309 104.935 52.9739 104.987C53.0716 105.108 53.0228 105.249 52.9748 105.333C52.9219 105.425 52.8331 105.521 52.73 105.616C52.3325 105.981 51.5734 106.438 50.9816 106.69C50.905 107.019 50.8422 107.726 51.1172 108.354C51.138 108.402 51.1608 108.463 51.1566 108.524C51.1543 108.556 51.1418 108.599 51.1084 108.636C51.1872 108.849 51.2603 109.068 51.3198 109.295C51.8942 111.486 51.3268 113.548 50.047 114.266C49.7253 114.447 49.3235 114.308 49.109 113.997C47.634 111.858 46.6384 107.532 46.985 105.871C47.0292 105.659 47.1853 105.503 47.3862 105.444C47.4099 105.424 47.4399 105.411 47.4725 105.409C48.2439 105.363 50.2423 105.288 52.0324 104.93Z" fill="black"/>
<path d="M47.4133 88.9091L35.5587 91.9639C33.8025 92.3713 30.8169 94.6523 32.9244 96.8518C35.0318 99.0513 56.6335 103.98 67.1708 106.627C67.8294 106.729 68.7515 107.666 67.1708 110.599" stroke="black" stroke-width="2" stroke-linecap="round" stroke-linejoin="round"/>
<path d="M64.4469 104.934C64.2001 104.886 64.0062 104.863 63.861 104.866C63.7885 104.868 63.7216 104.876 63.6641 104.893C63.6071 104.91 63.5475 104.94 63.5046 104.993C63.4075 105.114 63.4586 105.255 63.5068 105.338C63.5599 105.43 63.6488 105.527 63.7523 105.622C64.1508 105.985 64.9104 106.441 65.5029 106.692C65.5804 107.02 65.6452 107.725 65.3725 108.354C65.3518 108.401 65.3302 108.464 65.3344 108.524C65.3368 108.557 65.3493 108.599 65.3822 108.635C65.3038 108.849 65.2314 109.069 65.1725 109.297C64.6047 111.489 65.1784 113.549 66.4602 114.264C66.7824 114.444 67.1836 114.305 67.3972 113.993C68.8661 111.851 69.8497 107.521 69.4979 105.861C69.4531 105.65 69.296 105.494 69.0953 105.436C69.0715 105.416 69.0415 105.403 69.0089 105.401C68.2374 105.357 66.2381 105.287 64.4469 104.934Z" fill="black"/>
<path d="M27.6249 55.9797C22.905 61.3582 24.2919 74.2828 31.2119 76.7252C36.8098 78.7009 49.3229 75.6275 50.3108 74.0908" stroke="black" stroke-width="2" stroke-linecap="round"/>
<path d="M51.4423 67.461C50.3198 67.0868 48.2192 73.4273 48.7468 74.064C49.4414 75.4211 53.4566 74.8685 54.5371 74.6176C55.6176 74.3668 57.005 73.6651 57.6418 73.1376C58.1511 72.7157 57.6589 72.1214 57.3909 72.0571C56.7349 71.9564 55.0121 73.0167 54.1492 72.8097C53.345 72.6168 54.0654 72.4496 54.4257 72.3659C55.2383 72.0508 57.0553 71.2832 57.5001 70.893C58.0885 70.3768 58.2106 69.2097 57.1173 69.4635C56.0189 69.7185 53.9888 70.948 53.7006 71.0149C53.4125 71.0818 53.5554 70.7966 53.6476 70.6487C54.4044 70.0934 55.9918 69.1934 56.1461 68.5502C56.3391 67.7463 55.3816 67.5281 54.5866 68.1531C53.5032 69.0049 51.631 70.3577 51.1873 70.0811C50.7435 69.8046 52.5514 67.8308 51.4423 67.461Z" fill="black"/>
<path d="M48.7468 74.064L48.8803 73.9956L48.8728 73.981L48.8623 73.9683L48.7468 74.064ZM51.4423 67.461L51.3948 67.6033V67.6033L51.4423 67.461ZM51.1873 70.0811L51.2666 69.9538V69.9538L51.1873 70.0811ZM54.5866 68.1531L54.6793 68.2711V68.2711L54.5866 68.1531ZM56.1461 68.5502L56.0003 68.5152V68.5152L56.1461 68.5502ZM53.6476 70.6487L53.5589 70.5277L53.5356 70.5448L53.5203 70.5693L53.6476 70.6487ZM57.5001 70.893L57.599 71.0058V71.0058L57.5001 70.893ZM54.4257 72.3659L54.4596 72.5121L54.47 72.5096L54.48 72.5058L54.4257 72.3659ZM54.1492 72.8097L54.1842 72.6639V72.6639L54.1492 72.8097ZM57.3909 72.0571L57.426 71.9108L57.4137 71.9089L57.3909 72.0571ZM48.7468 74.064L48.8623 73.9683C48.8543 73.9586 48.8374 73.9276 48.8258 73.8566C48.8147 73.7888 48.8106 73.6991 48.815 73.588C48.8236 73.366 48.8651 73.0766 48.9344 72.7414C49.0729 72.0722 49.3187 71.239 49.6164 70.4355C49.9145 69.6311 50.2616 68.8645 50.6004 68.3251C50.7704 68.0544 50.9329 67.8499 51.0795 67.7256C51.2299 67.5982 51.3301 67.5818 51.3948 67.6033L51.4423 67.461L51.4897 67.3187C51.2738 67.2467 51.0628 67.3466 50.8856 67.4968C50.7045 67.6501 50.5228 67.8846 50.3463 68.1656C49.992 68.7297 49.6365 69.5178 49.3351 70.3313C49.0333 71.1458 48.7827 71.9937 48.6406 72.6807C48.5697 73.0236 48.5248 73.331 48.5152 73.5763C48.5104 73.6987 48.5142 73.8102 48.5297 73.905C48.5447 73.9967 48.5733 74.0898 48.6312 74.1597L48.7468 74.064ZM51.4423 67.461L51.3948 67.6033C51.5076 67.6409 51.5696 67.6937 51.6052 67.7493C51.6419 67.8066 51.6607 67.8828 51.658 67.9834C51.6523 68.1916 51.5566 68.457 51.4274 68.7446C51.3053 69.0166 51.1469 69.3202 51.0561 69.5525C51.01 69.6705 50.9728 69.7898 50.9666 69.8954C50.9602 70.0033 50.986 70.1324 51.1079 70.2084L51.1873 70.0811L51.2666 69.9538C51.2663 69.9537 51.2673 69.9543 51.2685 69.9558C51.2697 69.9572 51.2697 69.9578 51.2692 69.9565C51.2679 69.9529 51.2644 69.9403 51.266 69.9131C51.2694 69.8565 51.2919 69.7734 51.3356 69.6616C51.4243 69.4345 51.5654 69.1696 51.7011 68.8675C51.8298 68.5808 51.9504 68.2661 51.9579 67.9916C51.9617 67.8509 51.9364 67.7101 51.8579 67.5875C51.7783 67.4634 51.6542 67.3736 51.4897 67.3187L51.4423 67.461ZM51.1873 70.0811L51.1079 70.2084C51.206 70.2695 51.3249 70.2754 51.4352 70.2614C51.5485 70.247 51.6753 70.2087 51.8087 70.1557C52.0758 70.0496 52.3942 69.8743 52.7263 69.6676C53.3921 69.2532 54.136 68.6982 54.6793 68.2711L54.5866 68.1531L54.4939 68.0352C53.9538 68.4598 53.2199 69.0071 52.5678 69.4129C52.241 69.6163 51.9404 69.7806 51.6979 69.8769C51.5764 69.9252 51.4757 69.9538 51.3974 69.9638C51.3161 69.9741 51.2795 69.9618 51.2666 69.9538L51.1873 70.0811ZM54.5866 68.1531L54.6793 68.2711C55.051 67.9788 55.4428 67.8984 55.7012 67.9615C55.8281 67.9926 55.917 68.0559 55.9674 68.1389C56.0175 68.2215 56.0415 68.3435 56.0003 68.5152L56.1461 68.5502L56.292 68.5852C56.3472 68.3551 56.3239 68.1482 56.2239 67.9833C56.1242 67.8189 55.9601 67.716 55.7724 67.6701C55.4016 67.5795 54.9172 67.7024 54.4939 68.0352L54.5866 68.1531ZM56.1461 68.5502L56.0003 68.5152C55.9718 68.6339 55.869 68.7861 55.6906 68.9656C55.5164 69.141 55.287 69.3258 55.034 69.5115C54.7816 69.6967 54.5099 69.8797 54.2521 70.0523C53.9958 70.2239 53.7513 70.3865 53.5589 70.5277L53.6476 70.6487L53.7364 70.7696C53.9223 70.6332 54.1601 70.475 54.419 70.3016C54.6765 70.1292 54.9532 69.9429 55.2115 69.7533C55.4693 69.5642 55.713 69.3687 55.9034 69.1771C56.0897 68.9896 56.2433 68.7881 56.292 68.5852L56.1461 68.5502ZM53.6476 70.6487L53.5203 70.5693C53.4953 70.6094 53.4659 70.6604 53.4408 70.7139C53.4166 70.7653 53.3916 70.8288 53.3829 70.8918C53.3749 70.9497 53.3753 71.0559 53.4667 71.1258C53.5489 71.1887 53.6537 71.1798 53.7346 71.161L53.7006 71.0149L53.6667 70.8688C53.6397 70.8751 53.6262 70.8751 53.6226 70.8748C53.6195 70.8746 53.6324 70.8749 53.649 70.8876C53.689 70.9182 53.6769 70.9564 53.6801 70.9328C53.6826 70.9144 53.6927 70.8831 53.7122 70.8415C53.7308 70.802 53.7538 70.7619 53.7749 70.728L53.6476 70.6487ZM53.7006 71.0149L53.7346 71.161C53.7891 71.1484 53.8669 71.1142 53.9495 71.075C54.0373 71.0333 54.1464 70.9777 54.2707 70.9133C54.5211 70.7834 54.8331 70.6171 55.1733 70.4434C55.8569 70.0944 56.6229 69.7323 57.1513 69.6096L57.1173 69.4635L57.0834 69.3174C56.5134 69.4498 55.7151 69.8299 55.0369 70.1762C54.6964 70.35 54.3781 70.5196 54.1325 70.647C54.0087 70.7112 53.9035 70.7647 53.8207 70.804C53.7329 70.8458 53.6842 70.8647 53.6667 70.8688L53.7006 71.0149ZM57.1173 69.4635L57.1513 69.6096C57.4035 69.5511 57.5557 69.5816 57.6426 69.635C57.7257 69.6861 57.7771 69.7757 57.7901 69.9045C57.8171 70.1736 57.6647 70.549 57.4011 70.7803L57.5001 70.893L57.599 71.0058C57.9238 70.7208 58.1267 70.2546 58.0886 69.8745C58.0689 69.6788 57.9826 69.4919 57.7996 69.3794C57.6203 69.2692 57.3778 69.2491 57.0834 69.3174L57.1173 69.4635ZM57.5001 70.893L57.4011 70.7803C57.304 70.8654 57.1206 70.9797 56.8754 71.1113C56.6337 71.241 56.3426 71.3819 56.0383 71.5212C55.43 71.7999 54.7754 72.0694 54.3715 72.2261L54.4257 72.3659L54.48 72.5058C54.8885 72.3473 55.5487 72.0755 56.1633 71.794C56.4705 71.6532 56.7678 71.5094 57.0172 71.3756C57.2632 71.2436 57.4737 71.1157 57.599 71.0058L57.5001 70.893ZM54.4257 72.3659L54.3918 72.2198C54.3023 72.2406 54.1859 72.2676 54.0759 72.2993C53.9697 72.3299 53.8536 72.3692 53.7724 72.419C53.7347 72.4421 53.6798 72.4818 53.6514 72.5452C53.6353 72.5811 53.6282 72.6236 53.6375 72.6685C53.6464 72.7118 53.6682 72.746 53.6912 72.7714C53.7341 72.8188 53.7957 72.8518 53.8585 72.8775C53.9248 72.9047 54.0097 72.9305 54.1142 72.9556L54.1492 72.8097L54.1842 72.6639C54.0876 72.6407 54.0191 72.6191 53.9723 72.5999C53.9219 72.5793 53.9108 72.5669 53.9137 72.5701C53.9167 72.5735 53.9268 72.586 53.9313 72.6078C53.9362 72.6314 53.9319 72.6529 53.9251 72.668C53.9153 72.69 53.9045 72.6899 53.9291 72.6748C53.9726 72.6482 54.0538 72.6179 54.159 72.5876C54.2602 72.5584 54.369 72.5331 54.4596 72.5121L54.4257 72.3659ZM54.1492 72.8097L54.1142 72.9556C54.3647 73.0157 54.6622 72.9816 54.9617 72.9113C55.2644 72.8404 55.5886 72.7276 55.8991 72.6142C56.2131 72.4995 56.5107 72.3852 56.773 72.3047C57.0412 72.2224 57.2418 72.186 57.3681 72.2054L57.3909 72.0571L57.4137 71.9089C57.212 71.8779 56.9512 71.9362 56.685 72.0179C56.4127 72.1015 56.1027 72.2204 55.7962 72.3324C55.4861 72.4456 55.1768 72.5528 54.8932 72.6193C54.6066 72.6865 54.3651 72.7073 54.1842 72.6639L54.1492 72.8097ZM57.3909 72.0571L57.3559 72.203C57.388 72.2107 57.4465 72.2414 57.512 72.303C57.5751 72.3623 57.6333 72.4398 57.6707 72.5241C57.708 72.6081 57.7222 72.6931 57.7076 72.7728C57.6934 72.8502 57.6495 72.9364 57.5461 73.0221L57.6418 73.1376L57.7374 73.2532C57.8887 73.1279 57.9743 72.9816 58.0027 72.8269C58.0306 72.6745 58.0006 72.5278 57.945 72.4024C57.8895 72.2774 57.8062 72.1679 57.7175 72.0845C57.6313 72.0034 57.5278 71.9357 57.4259 71.9113L57.3909 72.0571ZM57.6418 73.1376L57.5461 73.0221C56.9285 73.5337 55.5626 74.2255 54.5031 74.4715L54.5371 74.6176L54.571 74.7637C55.6726 74.508 57.0816 73.7964 57.7374 73.2532L57.6418 73.1376ZM54.5371 74.6176L54.5031 74.4715C53.9725 74.5947 52.71 74.7939 51.4972 74.7938C50.8905 74.7937 50.3049 74.7437 49.8324 74.6137C49.3551 74.4823 49.025 74.2783 48.8803 73.9956L48.7468 74.064L48.6132 74.1323C48.8159 74.5282 49.2482 74.764 49.7528 74.9029C50.2623 75.0431 50.8782 75.0937 51.4972 75.0938C52.7358 75.0939 54.0211 74.8914 54.571 74.7637L54.5371 74.6176Z" fill="black"/>
<path d="M63.0894 67.461C64.2119 67.0868 66.3125 73.4273 65.7849 74.064C65.0903 75.4211 61.0751 74.8685 59.9946 74.6176C58.9141 74.3668 57.5266 73.6651 56.8899 73.1376C56.3805 72.7157 56.8728 72.1214 57.1408 72.0571C57.7968 71.9564 59.5196 73.0167 60.3825 72.8097C61.1866 72.6168 60.4663 72.4496 60.106 72.3659C59.2934 72.0508 57.4763 71.2832 57.0316 70.893C56.4432 70.3768 56.3211 69.2097 57.4143 69.4635C58.5127 69.7185 60.5429 70.948 60.831 71.0149C61.1192 71.0818 60.9762 70.7966 60.8841 70.6487C60.1273 70.0934 58.5399 69.1934 58.3856 68.5502C58.1926 67.7463 59.1501 67.5281 59.9451 68.1531C61.0285 69.0049 62.9006 70.3577 63.3444 70.0811C63.7882 69.8046 61.9803 67.8308 63.0894 67.461Z" fill="black"/>
<path d="M65.7849 74.064L65.6514 73.9956L65.6589 73.981L65.6694 73.9683L65.7849 74.064ZM63.0894 67.461L63.1369 67.6033V67.6033L63.0894 67.461ZM63.3444 70.0811L63.2651 69.9538V69.9538L63.3444 70.0811ZM59.9451 68.1531L59.8524 68.2711V68.2711L59.9451 68.1531ZM58.3856 68.5502L58.5314 68.5152V68.5152L58.3856 68.5502ZM60.8841 70.6487L60.9728 70.5277L60.9961 70.5448L61.0114 70.5693L60.8841 70.6487ZM57.0316 70.893L56.9327 71.0058V71.0058L57.0316 70.893ZM60.106 72.3659L60.072 72.5121L60.0616 72.5096L60.0517 72.5058L60.106 72.3659ZM60.3825 72.8097L60.3475 72.6639V72.6639L60.3825 72.8097ZM57.1408 72.0571L57.1057 71.9108L57.118 71.9089L57.1408 72.0571ZM65.7849 74.064L65.6694 73.9683C65.6774 73.9586 65.6943 73.9276 65.7059 73.8566C65.717 73.7888 65.7211 73.6991 65.7167 73.588C65.708 73.366 65.6666 73.0766 65.5973 72.7414C65.4588 72.0722 65.213 71.239 64.9153 70.4355C64.6172 69.6311 64.27 68.8645 63.9313 68.3251C63.7612 68.0544 63.5988 67.8499 63.4522 67.7256C63.3017 67.5982 63.2016 67.5818 63.1369 67.6033L63.0894 67.461L63.042 67.3187C63.2579 67.2467 63.4689 67.3466 63.6461 67.4968C63.8272 67.6501 64.0089 67.8846 64.1853 68.1656C64.5397 68.7297 64.8952 69.5178 65.1966 70.3313C65.4984 71.1458 65.7489 71.9937 65.891 72.6807C65.962 73.0236 66.0069 73.331 66.0165 73.5763C66.0213 73.6987 66.0175 73.8102 66.002 73.905C65.9869 73.9967 65.9584 74.0898 65.9004 74.1597L65.7849 74.064ZM63.0894 67.461L63.1369 67.6033C63.0241 67.6409 62.9621 67.6937 62.9264 67.7493C62.8898 67.8066 62.8709 67.8828 62.8737 67.9834C62.8794 68.1916 62.9751 68.457 63.1042 68.7446C63.2264 69.0166 63.3848 69.3202 63.4755 69.5525C63.5216 69.6705 63.5589 69.7898 63.5651 69.8954C63.5715 70.0033 63.5457 70.1324 63.4238 70.2084L63.3444 70.0811L63.2651 69.9538C63.2653 69.9537 63.2643 69.9543 63.2631 69.9558C63.262 69.9572 63.2619 69.9578 63.2625 69.9565C63.2638 69.9529 63.2673 69.9403 63.2656 69.9131C63.2623 69.8565 63.2398 69.7734 63.1961 69.6616C63.1074 69.4345 62.9663 69.1696 62.8306 68.8675C62.7018 68.5808 62.5813 68.2661 62.5738 67.9916C62.57 67.8509 62.5953 67.7101 62.6738 67.5875C62.7533 67.4634 62.8774 67.3736 63.042 67.3187L63.0894 67.461ZM63.3444 70.0811L63.4238 70.2084C63.3257 70.2695 63.2068 70.2754 63.0964 70.2614C62.9832 70.247 62.8563 70.2087 62.723 70.1557C62.4558 70.0496 62.1375 69.8743 61.8053 69.6676C61.1396 69.2532 60.3957 68.6982 59.8524 68.2711L59.9451 68.1531L60.0378 68.0352C60.5778 68.4598 61.3118 69.0071 61.9639 69.4129C62.2906 69.6163 62.5913 69.7806 62.8338 69.8769C62.9553 69.9252 63.056 69.9538 63.1343 69.9638C63.2155 69.9741 63.2522 69.9618 63.2651 69.9538L63.3444 70.0811ZM59.9451 68.1531L59.8524 68.2711C59.4807 67.9788 59.0888 67.8984 58.8305 67.9615C58.7035 67.9926 58.6147 68.0559 58.5643 68.1389C58.5142 68.2215 58.4902 68.3435 58.5314 68.5152L58.3856 68.5502L58.2397 68.5852C58.1845 68.3551 58.2078 68.1482 58.3078 67.9833C58.4075 67.8189 58.5715 67.716 58.7592 67.6701C59.1301 67.5795 59.6145 67.7024 60.0378 68.0352L59.9451 68.1531ZM58.3856 68.5502L58.5314 68.5152C58.5599 68.6339 58.6626 68.7861 58.841 68.9656C59.0153 69.141 59.2447 69.3258 59.4976 69.5115C59.7501 69.6967 60.0217 69.8797 60.2796 70.0523C60.5359 70.2239 60.7803 70.3865 60.9728 70.5277L60.8841 70.6487L60.7953 70.7696C60.6094 70.6332 60.3716 70.475 60.1126 70.3016C59.8551 70.1292 59.5784 69.9429 59.3201 69.7533C59.0624 69.5642 58.8187 69.3687 58.6282 69.1771C58.4419 68.9896 58.2884 68.7881 58.2397 68.5852L58.3856 68.5502ZM60.8841 70.6487L61.0114 70.5693C61.0363 70.6094 61.0658 70.6604 61.0909 70.7139C61.1151 70.7653 61.1401 70.8288 61.1488 70.8918C61.1567 70.9497 61.1563 71.0559 61.065 71.1258C60.9828 71.1887 60.878 71.1798 60.7971 71.161L60.831 71.0149L60.865 70.8688C60.892 70.8751 60.9054 70.8751 60.9091 70.8748C60.9122 70.8746 60.8993 70.8749 60.8827 70.8876C60.8427 70.9182 60.8548 70.9564 60.8516 70.9328C60.849 70.9144 60.839 70.8831 60.8194 70.8415C60.8009 70.802 60.7779 70.7619 60.7567 70.728L60.8841 70.6487ZM60.831 71.0149L60.7971 71.161C60.7426 71.1484 60.6648 71.1142 60.5821 71.075C60.4944 71.0333 60.3852 70.9777 60.261 70.9133C60.0106 70.7834 59.6986 70.6171 59.3583 70.4434C58.6747 70.0944 57.9088 69.7323 57.3804 69.6096L57.4143 69.4635L57.4483 69.3174C58.0183 69.4498 58.8166 69.8299 59.4947 70.1762C59.8353 70.35 60.1536 70.5196 60.3991 70.647C60.5229 70.7112 60.6282 70.7647 60.7109 70.804C60.7988 70.8458 60.8474 70.8647 60.865 70.8688L60.831 71.0149ZM57.4143 69.4635L57.3804 69.6096C57.1282 69.5511 56.976 69.5816 56.8891 69.635C56.8059 69.6861 56.7545 69.7757 56.7416 69.9045C56.7146 70.1736 56.8669 70.549 57.1305 70.7803L57.0316 70.893L56.9327 71.0058C56.6079 70.7208 56.405 70.2546 56.4431 69.8745C56.4628 69.6788 56.549 69.4919 56.7321 69.3794C56.9114 69.2692 57.1539 69.2491 57.4483 69.3174L57.4143 69.4635ZM57.0316 70.893L57.1305 70.7803C57.2277 70.8654 57.4111 70.9797 57.6563 71.1113C57.898 71.241 58.1891 71.3819 58.4933 71.5212C59.1016 71.7999 59.7562 72.0694 60.1602 72.2261L60.106 72.3659L60.0517 72.5058C59.6431 72.3473 58.9829 72.0755 58.3684 71.794C58.0612 71.6532 57.7638 71.5094 57.5144 71.3756C57.2684 71.2436 57.058 71.1157 56.9327 71.0058L57.0316 70.893ZM60.106 72.3659L60.1399 72.2198C60.2294 72.2406 60.3458 72.2676 60.4558 72.2993C60.562 72.3299 60.6781 72.3692 60.7593 72.419C60.797 72.4421 60.8518 72.4818 60.8803 72.5452C60.8963 72.5811 60.9035 72.6236 60.8942 72.6685C60.8852 72.7118 60.8634 72.746 60.8404 72.7714C60.7976 72.8188 60.7359 72.8518 60.6732 72.8775C60.6068 72.9047 60.522 72.9305 60.4175 72.9556L60.3825 72.8097L60.3475 72.6639C60.444 72.6407 60.5126 72.6191 60.5594 72.5999C60.6098 72.5793 60.6209 72.5669 60.618 72.5701C60.615 72.5735 60.6049 72.586 60.6004 72.6078C60.5955 72.6314 60.5997 72.6529 60.6065 72.668C60.6164 72.69 60.6272 72.6899 60.6025 72.6748C60.5591 72.6482 60.4779 72.6179 60.3727 72.5876C60.2715 72.5584 60.1627 72.5331 60.072 72.5121L60.106 72.3659ZM60.3825 72.8097L60.4175 72.9556C60.167 73.0157 59.8695 72.9816 59.57 72.9113C59.2673 72.8404 58.9431 72.7276 58.6326 72.6142C58.3185 72.4995 58.021 72.3852 57.7587 72.3047C57.4904 72.2224 57.2899 72.186 57.1635 72.2054L57.1408 72.0571L57.118 71.9089C57.3197 71.8779 57.5805 71.9362 57.8467 72.0179C58.1189 72.1015 58.429 72.2204 58.7355 72.3324C59.0456 72.4456 59.3549 72.5528 59.6384 72.6193C59.9251 72.6865 60.1666 72.7073 60.3475 72.6639L60.3825 72.8097ZM57.1408 72.0571L57.1758 72.203C57.1436 72.2107 57.0852 72.2414 57.0196 72.303C56.9566 72.3623 56.8984 72.4398 56.8609 72.5241C56.8237 72.6081 56.8094 72.6931 56.8241 72.7728C56.8383 72.8502 56.8821 72.9364 56.9856 73.0221L56.8899 73.1376L56.7942 73.2532C56.643 73.1279 56.5574 72.9816 56.529 72.8269C56.501 72.6745 56.5311 72.5278 56.5867 72.4024C56.6422 72.2774 56.7255 72.1679 56.8141 72.0845C56.9004 72.0034 57.0039 71.9357 57.1058 71.9113L57.1408 72.0571ZM56.8899 73.1376L56.9856 73.0221C57.6032 73.5337 58.9691 74.2255 60.0285 74.4715L59.9946 74.6176L59.9607 74.7637C58.8591 74.508 57.4501 73.7964 56.7942 73.2532L56.8899 73.1376ZM59.9946 74.6176L60.0285 74.4715C60.5592 74.5947 61.8217 74.7939 63.0345 74.7938C63.6412 74.7937 64.2268 74.7437 64.6993 74.6137C65.1766 74.4823 65.5067 74.2783 65.6514 73.9956L65.7849 74.064L65.9185 74.1323C65.7158 74.5282 65.2835 74.764 64.7789 74.9029C64.2694 75.0431 63.6534 75.0937 63.0345 75.0938C61.7959 75.0939 60.5105 74.8914 59.9607 74.7637L59.9946 74.6176Z" fill="black"/>
<path d="M88.1799 56.6382C90.8141 62.5655 88.1798 73.4321 81.2646 76.3958C75.8082 78.7342 66.1172 75.2981 65.1293 73.7614" stroke="black" stroke-width="2" stroke-linecap="round"/>
</svg>
