<svg width="170" height="188" viewBox="0 0 170 188" fill="none" xmlns="http://www.w3.org/2000/svg">
<ellipse cx="84.9032" cy="164.5" rx="84.9032" ry="23.5" fill="#F8DAA7"/>
<path d="M17.216 151.629L25.7743 147.065L106.129 159.194L145.548 140.242L147.823 142.516C151.613 147.823 151.007 151.31 148.581 156.161L103.855 179.661L17.4355 169.048C16.6775 169.048 15.1614 165.106 18.1936 164.5C21.2259 163.894 75.3011 170.817 101.581 174.355C103.855 173.597 104.613 167.532 102.707 163.598L17.5688 153.504C16.5965 153.389 16.3521 152.09 17.216 151.629Z" fill="#EE9A20"/>
<path d="M20.7363 153.575L102.938 163.544C104.035 163.677 104.816 164.674 104.683 165.77L103.772 173.283C103.639 174.379 102.642 175.16 101.546 175.027L19.3436 165.058L20.7363 153.575Z" fill="white"/>
<path d="M27.2905 158.435L82.6292 165.258" stroke="#EA9A25" stroke-width="0.3" stroke-linecap="round" stroke-linejoin="round"/>
<path d="M27.2905 162.984L82.6292 169.806" stroke="#EA9A25" stroke-width="0.3" stroke-linecap="round" stroke-linejoin="round"/>
<path d="M67.4681 112.194L26.5326 130.387C18.3455 134.026 21.0998 143.021 23.5003 147.065L106.129 159.194C120.027 152.876 148.126 139.939 149.339 138.726C150.552 137.513 148.581 135.694 147.065 136.452L107.549 154.746C106.887 155.053 106.129 154.569 106.129 153.838V141L150.119 124.242C151.094 123.871 150.92 122.442 149.885 122.315L67.4681 112.194Z" fill="#F5B945"/>
<path d="M106.129 153.84V141.687C106.129 141.273 106.384 140.902 106.77 140.753L145.549 125.839V137.21L107.548 154.748C106.886 155.054 106.129 154.57 106.129 153.84Z" fill="white"/>
<path d="M106.129 141L26.5327 130.387L66.7101 112.194L149.173 122.321C150.205 122.447 150.382 123.87 149.412 124.246L106.129 141Z" fill="#EA9A25" fill-opacity="0.58" stroke="#FEB301" stroke-width="0.3" stroke-linecap="round" stroke-linejoin="round"/>
<path d="M142.516 130.387L110.678 143.274" stroke="#EA9A25" stroke-width="0.3" stroke-linecap="round" stroke-linejoin="round"/>
<path d="M142.516 134.935L110.678 147.823" stroke="#EA9A25" stroke-width="0.3" stroke-linecap="round" stroke-linejoin="round"/>
<path d="M39.7822 24.3916H125.81V127.65H39.7822V24.3916Z" fill="#FDCF7A"/>
<path d="M85.1105 71.3482C81.2971 71.3482 76.677 71.3482 73.3191 74.1803" stroke="black" stroke-width="1.5" stroke-linecap="round" stroke-linejoin="round"/>
<path d="M39.7769 23.3448C39.7769 22.2402 40.6723 21.3448 41.7769 21.3448H127.606V25.6138H41.7769C40.6723 25.6138 39.7769 24.7184 39.7769 23.6138V23.3448Z" fill="#EA9A25"/>
<path d="M39.7769 10.5379C39.7769 9.43336 40.6723 8.53793 41.7769 8.53793H119.241V12.8069H41.7769C40.6723 12.8069 39.7769 11.9115 39.7769 10.8069V10.5379Z" fill="#EA9A25"/>
<path d="M119.241 8.53793H120.606C124.472 8.53793 127.606 11.6719 127.606 15.5379V128.069H119.241V8.53793Z" fill="#EE9A20"/>
<path d="M40.5781 11.3827H117.395C119.604 11.3827 121.395 13.1736 121.395 15.3827V18.568C121.395 20.7771 119.604 22.568 117.395 22.568H40.5781V11.3827Z" fill="#F8F8F8"/>
<circle cx="93.5312" cy="57.7706" r="6.63812" transform="scale(0.996892 1.00312) rotate(-90 93.5312 57.7706)" fill="black"/>
<path d="M86.8432 58.136C86.8432 54.2432 89.8348 51.0827 93.5312 51.0827C95.6455 51.0827 97.1363 51.819 98.1646 52.857C99.1915 53.8937 99.7535 55.2285 100.02 56.4231C100.15 56.9716 100.219 57.5452 100.219 58.136L100.219 58.1691L100.189 58.1818C98.7002 58.7983 96.1681 59.0184 93.6163 58.9754C91.0628 58.9323 88.4779 58.6254 86.8794 58.1837L86.8432 58.174L86.8432 58.136Z" fill="#EBA62D" stroke="#EBA62D" stroke-width="0.1"/>
<ellipse cx="1.03395" cy="1.53567" rx="1.03395" ry="1.53567" transform="matrix(-0.233047 -0.971155 0.976988 -0.218941 93.9976 63.0211)" fill="white"/>
<circle cx="63.9199" cy="57.7706" r="6.63812" transform="scale(0.996892 1.00312) rotate(-90 63.9199 57.7706)" fill="black"/>
<ellipse cx="1.01388" cy="1.53567" rx="1.01388" ry="1.53567" transform="matrix(-0.21788 -0.97467 0.980283 -0.203685 64.3413 62.9424)" fill="white"/>
<path d="M57.2319 58.1365C57.2319 54.2437 60.2235 51.0822 63.9199 51.0822C67.6163 51.0823 70.6079 54.2437 70.6079 58.1365L70.6079 58.1755L70.5698 58.1843C65.3755 59.4112 60.0605 58.6518 57.2739 58.1852L57.2319 58.1784L57.2319 58.1365Z" fill="#EBA62D" stroke="#EBA62D" stroke-width="0.1"/>
<ellipse cx="95.6433" cy="69.0384" rx="4.7942" ry="2.09723" fill="#EBA62D"/>
<ellipse cx="61.8294" cy="69.0384" rx="4.7942" ry="2.09723" fill="#EBA62D"/>
<path d="M64.6104 46.0381C64.6447 45.707 64.6789 45.3758 64.7132 45.0447C64.4428 45.0274 64.2615 45.0574 64.0653 45.0819C60.7575 45.7025 57.5827 47.0232 55.2515 49.429C55.1267 49.5642 55.0049 49.7046 54.8892 49.8477C54.9844 49.9292 55.0797 50.0107 55.1749 50.0921C55.2931 49.9623 55.4168 49.8352 55.5433 49.7133C57.8753 47.5511 61.1021 46.4353 64.178 46.0439C64.3369 46.0307 64.5319 46.024 64.6104 46.0381Z" fill="black"/>
<path d="M93.9612 46.5369C93.9245 46.2063 93.8878 45.8757 93.8512 45.545C94.1314 45.5251 94.3062 45.5651 94.4938 45.5971C97.6066 46.391 100.37 47.9434 102.522 50.1995C102.638 50.3265 102.752 50.4571 102.862 50.5896C102.767 50.6724 102.673 50.7552 102.579 50.838C102.465 50.7172 102.348 50.5984 102.229 50.4832C100.055 48.4469 97.1666 47.0882 94.331 46.5523C94.1886 46.5332 94.0108 46.524 93.9612 46.5369Z" fill="black"/>
<path d="M101.117 0V19.5134H113.862V0L108.068 4.24203L101.117 0Z" fill="#FEB301"/>
<rect x="57.187" y="92.3986" width="47.1233" height="17.5557" fill="#F3AA31"/>
<path d="M96.9191 124.738L113.551 129.024C116.015 129.595 120.204 132.796 117.247 135.882C114.29 138.967 83.9833 145.882 69.1995 149.597C68.2755 149.74 66.982 151.054 69.1995 155.168" stroke="black" stroke-width="2" stroke-linecap="round" stroke-linejoin="round"/>
<path fill-rule="evenodd" clip-rule="evenodd" d="M66.5433 147.908C66.7342 147.893 66.9261 147.898 67.1182 147.92C68.4208 147.849 70.8266 147.711 73.0124 147.275C73.3571 147.206 73.6245 147.175 73.822 147.179C73.9207 147.181 74.0084 147.192 74.0821 147.214C74.155 147.236 74.2249 147.273 74.2749 147.334C74.3866 147.472 74.3333 147.636 74.2686 147.749C74.1989 147.871 74.0811 148.002 73.9378 148.134C73.3799 148.646 72.3035 149.293 71.4742 149.642C71.3616 150.098 71.2608 151.126 71.6614 152.041C71.6902 152.107 71.7157 152.183 71.7109 152.253C71.7089 152.281 71.7005 152.313 71.6817 152.344C71.803 152.665 71.9113 152.997 72.0012 153.34C72.8386 156.534 71.9457 159.533 69.9991 160.424C69.663 160.578 69.2675 160.443 69.0435 160.139C66.8432 157.148 65.3504 150.613 65.9584 148.37C66.03 148.106 66.2659 147.928 66.5433 147.908Z" fill="black"/>
<path d="M66.5203 124.738L49.8886 129.024C47.4246 129.595 43.2359 132.796 46.1926 135.882C49.1494 138.967 79.4561 145.882 94.2399 149.597C95.1639 149.74 96.4575 151.054 94.2399 155.168" stroke="black" stroke-width="2" stroke-linecap="round" stroke-linejoin="round"/>
<path fill-rule="evenodd" clip-rule="evenodd" d="M96.8783 147.896C96.6897 147.883 96.5 147.889 96.3103 147.91C95.0091 147.843 92.5984 147.712 90.4076 147.28C90.0628 147.212 89.7952 147.182 89.5977 147.186C89.499 147.189 89.4113 147.2 89.3377 147.223C89.2646 147.245 89.1933 147.281 89.1434 147.343C89.0323 147.481 89.0869 147.645 89.1519 147.758C89.2219 147.879 89.3411 148.011 89.4847 148.142C90.0441 148.652 91.1216 149.297 91.9518 149.643C92.0658 150.099 92.1698 151.127 91.7718 152.044C91.7433 152.109 91.7191 152.185 91.724 152.255C91.726 152.282 91.7347 152.315 91.7534 152.346C91.633 152.667 91.5259 153 91.4369 153.343C90.6091 156.539 91.5102 159.535 93.4592 160.422C93.7958 160.575 94.1917 160.44 94.4148 160.135C96.6061 157.138 98.0792 150.599 97.4645 148.357C97.3921 148.093 97.1557 147.916 96.8783 147.896Z" fill="black"/>
<path d="M38.7574 78.5388C32.1355 86.0847 34.0812 104.218 43.7899 107.644C51.6437 110.416 69.1993 106.104 70.5854 103.948" stroke="black" stroke-width="2" stroke-linecap="round"/>
<path d="M72.1731 94.6471C70.5983 94.1221 67.6512 103.018 68.3913 103.911C69.3659 105.815 74.9991 105.04 76.5151 104.688C78.031 104.336 79.9776 103.351 80.8709 102.611C81.5855 102.019 80.8949 101.186 80.5189 101.095C79.5985 100.954 77.1815 102.442 75.9708 102.151C74.8426 101.881 75.8533 101.646 76.3588 101.529C77.4988 101.086 80.0481 100.01 80.6721 99.4622C81.4976 98.738 81.6689 97.1005 80.1351 97.4566C78.5941 97.8144 75.7458 99.5393 75.3416 99.6332C74.9373 99.727 75.1378 99.3269 75.2672 99.1193C76.3289 98.3403 78.556 97.0777 78.7725 96.1753C79.0432 95.0473 77.6999 94.7413 76.5845 95.6182C75.0646 96.8132 72.438 98.7111 71.8153 98.3231C71.1927 97.9351 73.7292 95.1659 72.1731 94.6471Z" fill="black"/>
<path d="M68.3913 103.911L68.5248 103.843L68.5173 103.828L68.5068 103.815L68.3913 103.911ZM72.1731 94.6471L72.2205 94.5048L72.2205 94.5048L72.1731 94.6471ZM71.8153 98.3231L71.736 98.4504L71.736 98.4504L71.8153 98.3231ZM76.5845 95.6182L76.4918 95.5002V95.5002L76.5845 95.6182ZM78.7725 96.1753L78.9184 96.2103V96.2103L78.7725 96.1753ZM75.2672 99.1193L75.1784 98.9984L75.1552 99.0155L75.1399 99.04L75.2672 99.1193ZM80.6721 99.4622L80.5732 99.3494V99.3494L80.6721 99.4622ZM76.3588 101.529L76.3928 101.675L76.4031 101.672L76.4131 101.669L76.3588 101.529ZM75.9708 102.151L76.0058 102.005V102.005L75.9708 102.151ZM80.5189 101.095L80.5541 100.949L80.5417 100.947L80.5189 101.095ZM68.3913 103.911L68.5068 103.815C68.4856 103.79 68.4596 103.734 68.4426 103.63C68.4261 103.529 68.4204 103.399 68.4266 103.241C68.439 102.925 68.4978 102.515 68.5954 102.043C68.7904 101.101 69.1362 99.9288 69.5548 98.7993C69.9736 97.6689 70.4624 96.589 70.9408 95.8273C71.1806 95.4454 71.4124 95.1524 71.625 94.9723C71.8415 94.7889 72.0044 94.749 72.1256 94.7894L72.1731 94.6471L72.2205 94.5048C71.9481 94.414 71.6744 94.5373 71.4311 94.7434C71.1841 94.9527 70.933 95.2756 70.6867 95.6677C70.1927 96.4542 69.6957 97.5556 69.2734 98.6951C68.8509 99.8356 68.5003 101.022 68.3016 101.982C68.2024 102.462 68.1401 102.89 68.1268 103.229C68.1202 103.399 68.1256 103.551 68.1465 103.678C68.1669 103.803 68.2046 103.921 68.2758 104.007L68.3913 103.911ZM72.1731 94.6471L72.1256 94.7894C72.2943 94.8457 72.3938 94.9272 72.4526 95.019C72.5125 95.1125 72.5403 95.2324 72.5362 95.3817C72.5278 95.6872 72.3885 96.0694 72.2074 96.4727C72.0333 96.8605 71.8146 97.2785 71.6877 97.6034C71.6235 97.7677 71.5742 97.9278 71.566 98.0662C71.5577 98.2068 71.5917 98.3605 71.736 98.4504L71.8153 98.3231L71.8946 98.1958C71.8833 98.1887 71.8603 98.171 71.8655 98.0839C71.8708 97.9945 71.9054 97.8706 71.9671 97.7126C72.092 97.3929 72.2934 97.0135 72.4811 96.5956C72.6618 96.1932 72.8259 95.7617 72.8361 95.3899C72.8412 95.2006 72.807 95.016 72.7053 94.8572C72.6025 94.6968 72.4409 94.5783 72.2205 94.5048L72.1731 94.6471ZM71.8153 98.3231L71.736 98.4504C71.8564 98.5254 72.0067 98.535 72.1556 98.5161C72.3074 98.4967 72.4802 98.4449 72.6648 98.3716C73.0347 98.2246 73.4778 97.9809 73.9427 97.6916C74.874 97.112 75.9156 96.3349 76.6773 95.7361L76.5845 95.6182L76.4918 95.5002C75.7335 96.0965 74.7018 96.8658 73.7842 97.4369C73.3246 97.7229 72.8993 97.9556 72.5541 98.0928C72.3812 98.1614 72.2346 98.2036 72.1177 98.2185C71.9979 98.2337 71.9299 98.2177 71.8946 98.1958L71.8153 98.3231ZM76.5845 95.6182L76.6773 95.7361C77.2091 95.3179 77.7775 95.1965 78.1627 95.2906C78.353 95.3372 78.4928 95.434 78.5734 95.5669C78.6538 95.6993 78.6873 95.8875 78.6267 96.1403L78.7725 96.1753L78.9184 96.2103C78.9931 95.8991 78.9602 95.6261 78.83 95.4113C78.7 95.197 78.485 95.0606 78.2339 94.9992C77.7362 94.8776 77.0753 95.0415 76.4918 95.5002L76.5845 95.6182ZM78.7725 96.1753L78.6267 96.1403C78.5826 96.3238 78.4283 96.5472 78.1764 96.8007C77.9286 97.05 77.604 97.3115 77.2481 97.5726C76.8927 97.8334 76.5105 98.0908 76.1489 98.3329C75.7888 98.5741 75.4471 98.8012 75.1784 98.9984L75.2672 99.1193L75.3559 99.2403C75.6181 99.0479 75.953 98.8251 76.3158 98.5822C76.6771 98.3403 77.0643 98.0796 77.4256 97.8145C77.7862 97.5498 78.1253 97.2777 78.3892 97.0122C78.649 96.7507 78.8542 96.478 78.9184 96.2103L78.7725 96.1753ZM75.2672 99.1193L75.1399 99.04C75.1056 99.095 75.0656 99.1643 75.0316 99.2366C74.9987 99.3067 74.9666 99.3893 74.9557 99.4688C74.9454 99.5431 74.9484 99.663 75.0501 99.7408C75.1426 99.8116 75.2655 99.8048 75.3755 99.7793L75.3416 99.6332L75.3076 99.4871C75.2155 99.5085 75.2118 99.4868 75.2323 99.5025C75.262 99.5252 75.2474 99.5497 75.2529 99.5098C75.2577 99.475 75.2748 99.4245 75.3031 99.3642C75.3305 99.306 75.3641 99.2474 75.3945 99.1987L75.2672 99.1193ZM75.3416 99.6332L75.3755 99.7793C75.4445 99.7633 75.5478 99.7184 75.6648 99.6628C75.7869 99.6048 75.9393 99.5273 76.1135 99.4369C76.4638 99.2552 76.9028 99.0212 77.3803 98.7775C78.3382 98.2884 79.4194 97.7768 80.169 97.6027L80.1351 97.4566L80.1012 97.3105C79.3098 97.4942 78.1963 98.024 77.2438 98.5103C76.7661 98.7542 76.3209 98.9914 75.9753 99.1706C75.8016 99.2608 75.6531 99.3362 75.536 99.3919C75.4138 99.45 75.3397 99.4796 75.3076 99.4871L75.3416 99.6332ZM80.1351 97.4566L80.169 97.6027C80.5314 97.5186 80.7631 97.5594 80.9037 97.6457C81.0405 97.7298 81.1196 97.875 81.1391 98.0693C81.1792 98.4692 80.9553 99.0141 80.5732 99.3494L80.6721 99.4622L80.771 99.5749C81.2144 99.186 81.4889 98.5501 81.4376 98.0393C81.4114 97.7781 81.2974 97.5355 81.0607 97.3901C80.8278 97.247 80.5057 97.2166 80.1012 97.3105L80.1351 97.4566ZM80.6721 99.4622L80.5732 99.3494C80.4312 99.4739 80.1685 99.637 79.8243 99.8216C79.4836 100.004 79.0739 100.203 78.6465 100.398C77.7918 100.79 76.8723 101.169 76.3046 101.389L76.3588 101.529L76.4131 101.669C76.9854 101.447 77.9105 101.066 78.7714 100.671C79.2018 100.474 79.6177 100.273 79.9661 100.086C80.3111 99.9009 80.6009 99.7241 80.771 99.5749L80.6721 99.4622ZM76.3588 101.529L76.3249 101.383C76.1991 101.412 76.0373 101.449 75.8847 101.493C75.736 101.536 75.5801 101.589 75.4738 101.655C75.4236 101.685 75.3598 101.733 75.3276 101.805C75.3097 101.845 75.302 101.892 75.3122 101.941C75.322 101.989 75.3462 102.027 75.3732 102.057C75.4241 102.113 75.5004 102.155 75.5859 102.19C75.6751 102.227 75.7908 102.262 75.9358 102.297L75.9708 102.151L76.0058 102.005C75.8688 101.973 75.7693 101.941 75.6998 101.913C75.6266 101.883 75.6008 101.861 75.5956 101.856C75.5946 101.855 75.6023 101.863 75.606 101.88C75.6099 101.899 75.6063 101.917 75.6014 101.928C75.5952 101.941 75.5934 101.933 75.6306 101.91C75.6991 101.868 75.8201 101.824 75.9678 101.782C76.1116 101.74 76.2658 101.704 76.3928 101.675L76.3588 101.529ZM75.9708 102.151L75.9358 102.297C76.2733 102.378 76.6794 102.333 77.097 102.235C77.5179 102.136 77.9697 101.979 78.4052 101.82C78.8443 101.66 79.2643 101.499 79.6343 101.385C80.0102 101.27 80.3037 101.214 80.4962 101.244L80.5189 101.095L80.5417 100.947C80.274 100.906 79.9202 100.983 79.5462 101.098C79.1663 101.215 78.7338 101.381 78.3023 101.538C77.8672 101.697 77.4302 101.849 77.0286 101.943C76.6238 102.038 76.2737 102.07 76.0058 102.005L75.9708 102.151ZM80.5189 101.095L80.4839 101.241C80.5431 101.255 80.6342 101.306 80.7303 101.396C80.8239 101.484 80.9107 101.6 80.9668 101.726C81.0228 101.852 81.0459 101.984 81.0227 102.11C80.9999 102.235 80.93 102.368 80.7752 102.496L80.8709 102.611L80.9666 102.727C81.1691 102.559 81.2808 102.366 81.3178 102.164C81.3544 101.965 81.3153 101.772 81.241 101.604C81.1668 101.437 81.0551 101.29 80.9358 101.178C80.819 101.068 80.6828 100.98 80.5539 100.95L80.5189 101.095ZM80.8709 102.611L80.7752 102.496C79.901 103.22 77.976 104.195 76.4811 104.542L76.5151 104.688L76.549 104.834C78.086 104.477 80.0541 103.483 80.9666 102.727L80.8709 102.611ZM76.5151 104.688L76.4811 104.542C75.7328 104.715 73.9569 104.996 72.2502 104.995C71.3965 104.995 70.5688 104.925 69.8984 104.74C69.2232 104.555 68.7395 104.262 68.5248 103.843L68.3913 103.911L68.2578 103.979C68.5304 104.512 69.1163 104.836 69.8188 105.03C70.5262 105.224 71.3842 105.295 72.2502 105.295C73.9827 105.296 75.7814 105.012 76.549 104.834L76.5151 104.688Z" fill="black"/>
<path d="M123.715 79.4628C127.41 87.7787 123.715 103.024 114.013 107.182C106.357 110.463 92.761 105.642 91.375 103.486" stroke="black" stroke-width="2" stroke-linecap="round"/>
<path d="M89.8602 95.1497C91.4701 95.1497 94.2013 103.369 93.5039 104.252C92.602 106.12 87.1232 105.495 85.6456 105.188C84.1679 104.881 82.2585 103.971 81.3758 103.273C80.6696 102.716 81.3203 101.892 81.6828 101.796C82.5719 101.638 84.9487 103.026 86.1159 102.717C87.2036 102.429 86.2185 102.224 85.7257 102.122C84.6105 101.719 82.1147 100.732 81.4974 100.216C80.6807 99.5324 80.4777 97.9488 81.9727 98.2594C83.4748 98.5714 86.2751 100.179 86.6692 100.261C87.0632 100.343 86.8598 99.9598 86.7297 99.7615C85.6827 99.0302 83.4951 97.8563 83.2648 96.9864C82.977 95.899 84.2724 95.5719 85.3735 96.3969C86.8741 97.5211 89.4634 99.3018 90.0582 98.9116C90.6531 98.5214 87.848 95.1497 89.8602 95.1497Z" fill="black"/>
<path d="M93.5039 104.252L93.3688 104.187L93.376 104.172L93.3862 104.159L93.5039 104.252ZM89.8602 95.1497L89.8602 94.9997V94.9997L89.8602 95.1497ZM90.0582 98.9116L89.976 98.7862V98.7862L90.0582 98.9116ZM85.3735 96.3969L85.2836 96.5169V96.5169L85.3735 96.3969ZM83.2648 96.9864L83.4098 96.948L83.4098 96.948L83.2648 96.9864ZM86.7297 99.7615L86.8156 99.6385L86.8393 99.6551L86.8551 99.6792L86.7297 99.7615ZM81.4974 100.216L81.5937 100.101V100.101L81.4974 100.216ZM85.7257 102.122L85.6952 102.269L85.6848 102.267L85.6747 102.263L85.7257 102.122ZM86.1159 102.717L86.0776 102.572V102.572L86.1159 102.717ZM81.6828 101.796L81.6442 101.65L81.6566 101.648L81.6828 101.796ZM81.3758 103.273L81.4687 103.156V103.156L81.3758 103.273ZM93.5039 104.252L93.3862 104.159C93.4069 104.133 93.4314 104.078 93.4476 103.98C93.4633 103.884 93.469 103.761 93.4637 103.613C93.453 103.315 93.399 102.931 93.3082 102.487C93.1269 101.602 92.803 100.499 92.4065 99.4215C92.0098 98.3437 91.5431 97.2983 91.0782 96.525C90.8455 96.1379 90.6168 95.825 90.4018 95.6108C90.182 95.392 90.0001 95.2997 89.8602 95.2997L89.8602 95.1497L89.8602 94.9997C90.1229 94.9997 90.3785 95.1642 90.6135 95.3983C90.8532 95.6371 91.0965 95.9733 91.3353 96.3705C91.8135 97.1659 92.2878 98.2305 92.688 99.3179C93.0884 100.406 93.4171 101.523 93.6021 102.427C93.6945 102.878 93.752 103.281 93.7635 103.602C93.7692 103.762 93.7637 103.906 93.7436 104.028C93.7239 104.148 93.6881 104.261 93.6216 104.345L93.5039 104.252ZM89.8602 95.1497L89.8602 95.2997C89.627 95.2997 89.4892 95.3489 89.4087 95.4128C89.332 95.4737 89.2873 95.5641 89.2753 95.6962C89.263 95.8317 89.2866 96.0009 89.3402 96.1977C89.3934 96.3929 89.4733 96.6059 89.566 96.8261C89.6586 97.0462 89.7624 97.2696 89.8627 97.487C89.9623 97.703 90.059 97.9139 90.1346 98.1037C90.2094 98.2912 90.2686 98.4699 90.2869 98.6197C90.3043 98.7618 90.2909 98.9384 90.1405 99.037L90.0582 98.9116L89.976 98.7862C89.9777 98.7851 89.9826 98.7824 89.9873 98.7655C89.9928 98.7452 89.9957 98.7104 89.9891 98.6561C89.9757 98.5469 89.9291 98.3981 89.856 98.2147C89.7837 98.0336 89.6905 97.8299 89.5902 97.6127C89.4907 97.3968 89.3845 97.1683 89.2895 96.9425C89.1945 96.7169 89.1089 96.4901 89.0507 96.2765C88.993 96.0644 88.9596 95.8557 88.9765 95.669C88.9938 95.4789 89.0647 95.3029 89.2221 95.1779C89.3758 95.0558 89.5904 94.9997 89.8602 94.9997L89.8602 95.1497ZM90.0582 98.9116L90.1405 99.037C90.0242 99.1134 89.8775 99.126 89.7322 99.1109C89.5841 99.0956 89.415 99.0491 89.2342 98.9821C88.8719 98.8478 88.4366 98.6214 87.9792 98.3513C87.063 97.8103 86.0355 97.0803 85.2836 96.5169L85.3735 96.3969L85.4634 96.2768C86.2121 96.8377 87.2295 97.5602 88.1318 98.093C88.5837 98.3599 89.001 98.5757 89.3384 98.7008C89.5074 98.7634 89.65 98.8008 89.7632 98.8125C89.8792 98.8245 89.9436 98.8074 89.976 98.7862L90.0582 98.9116ZM85.3735 96.3969L85.2836 96.5169C84.7593 96.1241 84.2069 96.0198 83.8373 96.1193C83.6547 96.1685 83.5225 96.2649 83.4481 96.3943C83.3739 96.5233 83.3456 96.7052 83.4098 96.948L83.2648 96.9864L83.1198 97.0248C83.0402 96.7239 83.0658 96.4571 83.188 96.2447C83.3099 96.0328 83.5163 95.8951 83.7593 95.8297C84.2407 95.7 84.8866 95.8447 85.4634 96.2768L85.3735 96.3969ZM83.2648 96.9864L83.4098 96.948C83.4563 97.1236 83.6103 97.3361 83.8601 97.576C84.1056 97.8119 84.4261 98.0578 84.7769 98.303C85.1272 98.5477 85.5035 98.7886 85.8595 99.0151C86.2141 99.2408 86.5505 99.4534 86.8156 99.6385L86.7297 99.7615L86.6438 99.8845C86.3854 99.704 86.0557 99.4956 85.6985 99.2682C85.3427 99.0419 84.9614 98.7978 84.6051 98.5489C84.2494 98.3004 83.9143 98.0441 83.6522 97.7924C83.3944 97.5447 83.1885 97.2841 83.1198 97.0248L83.2648 96.9864ZM86.7297 99.7615L86.8551 99.6792C86.8896 99.7319 86.9301 99.7983 86.9647 99.8678C86.9984 99.9352 87.0315 100.015 87.044 100.093C87.0557 100.165 87.0558 100.283 86.957 100.363C86.8672 100.435 86.7461 100.431 86.6387 100.408L86.6692 100.261L86.6997 100.114C86.7893 100.133 86.7905 100.112 86.7693 100.129C86.7391 100.153 86.7541 100.179 86.7479 100.14C86.7426 100.107 86.7251 100.059 86.6963 100.002C86.6685 99.9461 86.6348 99.8903 86.6043 99.8438L86.7297 99.7615ZM86.6692 100.261L86.6387 100.408C86.5708 100.394 86.4692 100.353 86.3546 100.302C86.2349 100.248 86.0853 100.176 85.9144 100.093C85.5705 99.9243 85.1398 99.7074 84.6714 99.4818C83.7315 99.0293 82.6723 98.5579 81.9422 98.4062L81.9727 98.2594L82.0033 98.1125C82.7753 98.2729 83.8672 98.7616 84.8016 99.2115C85.2702 99.4372 85.7073 99.6572 86.0463 99.8231C86.2168 99.9066 86.3624 99.9764 86.4771 100.028C86.5969 100.081 86.669 100.108 86.6997 100.114L86.6692 100.261ZM81.9727 98.2594L81.9422 98.4062C81.5897 98.333 81.3673 98.3779 81.2344 98.4639C81.1051 98.5475 81.0322 98.6886 81.0178 98.8763C80.988 99.2633 81.2166 99.7852 81.5937 100.101L81.4974 100.216L81.4012 100.331C80.9616 99.963 80.6803 99.3514 80.7186 98.8533C80.7382 98.5985 80.8438 98.3593 81.0714 98.212C81.2954 98.067 81.6083 98.0304 82.0033 98.1125L81.9727 98.2594ZM81.4974 100.216L81.5937 100.101C81.7337 100.218 81.9917 100.37 82.3295 100.541C82.6638 100.711 83.0654 100.894 83.4841 101.074C84.3215 101.434 85.2214 101.78 85.7767 101.981L85.7257 102.122L85.6747 102.263C85.1148 102.061 84.2093 101.712 83.3656 101.349C82.9438 101.168 82.536 100.982 82.1939 100.809C81.8553 100.637 81.5698 100.472 81.4012 100.331L81.4974 100.216ZM85.7257 102.122L85.7562 101.975C85.8788 102.001 86.0366 102.033 86.1857 102.073C86.3309 102.111 86.4838 102.159 86.5889 102.22C86.6384 102.249 86.7024 102.294 86.7358 102.365C86.7544 102.404 86.7631 102.45 86.7542 102.499C86.7456 102.546 86.7225 102.585 86.6966 102.615C86.6479 102.671 86.5741 102.714 86.4918 102.75C86.4059 102.788 86.2942 102.825 86.1543 102.862L86.1159 102.717L86.0776 102.572C86.2095 102.537 86.305 102.504 86.3715 102.475C86.4416 102.445 86.4654 102.424 86.4696 102.419C86.4701 102.418 86.4624 102.427 86.4591 102.445C86.4555 102.465 86.4596 102.482 86.465 102.494C86.4718 102.508 86.4745 102.501 86.4381 102.48C86.3713 102.441 86.2535 102.401 86.1093 102.363C85.9691 102.326 85.819 102.295 85.6952 102.269L85.7257 102.122ZM86.1159 102.717L86.1543 102.862C85.8279 102.948 85.4324 102.913 85.025 102.828C84.6146 102.742 84.1727 102.599 83.7469 102.455C83.3175 102.309 82.9069 102.163 82.5458 102.061C82.1786 101.958 81.8938 101.911 81.709 101.943L81.6828 101.796L81.6566 101.648C81.9163 101.602 82.262 101.669 82.6271 101.772C82.9982 101.877 83.4214 102.028 83.8432 102.171C84.2687 102.315 84.6955 102.452 85.0867 102.534C85.4811 102.617 85.8204 102.64 86.0776 102.572L86.1159 102.717ZM81.6828 101.796L81.7212 101.941C81.6652 101.956 81.5787 102.006 81.4878 102.096C81.3994 102.183 81.3183 102.296 81.267 102.419C81.2158 102.542 81.1966 102.669 81.2217 102.79C81.2464 102.909 81.3165 103.035 81.4687 103.156L81.3758 103.273L81.2828 103.391C81.0819 103.232 80.9686 103.047 80.928 102.851C80.8878 102.658 80.9215 102.469 80.99 102.304C81.0584 102.139 81.1638 101.994 81.2773 101.882C81.3884 101.772 81.5191 101.684 81.6444 101.651L81.6828 101.796ZM81.3758 103.273L81.4687 103.156C82.332 103.837 84.2196 104.739 85.6761 105.041L85.6456 105.188L85.615 105.335C84.1162 105.024 82.1851 104.104 81.2828 103.391L81.3758 103.273ZM85.6456 105.188L85.6761 105.041C86.4052 105.193 88.1329 105.424 89.7871 105.386C90.6146 105.366 91.415 105.279 92.0602 105.086C92.7102 104.89 93.171 104.596 93.3688 104.187L93.5039 104.252L93.639 104.317C93.3858 104.841 92.8236 105.17 92.1465 105.373C91.4645 105.578 90.6338 105.666 89.7941 105.685C88.1141 105.725 86.3635 105.49 85.615 105.335L85.6456 105.188Z" fill="black"/>
</svg>
