<svg width="16" height="17" viewBox="0 0 16 17" fill="none" xmlns="http://www.w3.org/2000/svg">
<path d="M4.47379 3.46154C4.15479 3.46154 3.89026 3.2 3.89026 2.88462V0.576923C3.89026 0.261538 4.15479 0 4.47379 0C4.79279 0 5.05733 0.261538 5.05733 0.576923V2.88462C5.05733 3.2 4.79279 3.46154 4.47379 3.46154Z" fill="#7A5EF4"/>
<path d="M10.6982 3.46154C10.3792 3.46154 10.1146 3.2 10.1146 2.88462V0.576923C10.1146 0.261538 10.3792 0 10.6982 0C11.0172 0 11.2817 0.261538 11.2817 0.576923V2.88462C11.2817 3.2 11.0172 3.46154 10.6982 3.46154Z" fill="#7A5EF4"/>
<path d="M14.1994 6.6077H0.972573C0.653574 6.6077 0.389038 6.34617 0.389038 6.03078C0.389038 5.7154 0.653574 5.45386 0.972573 5.45386H14.1994C14.5184 5.45386 14.7829 5.7154 14.7829 6.03078C14.7829 6.34617 14.5184 6.6077 14.1994 6.6077Z" fill="#7A5EF4"/>
<path d="M10.6981 16.5387H4.47377C1.6339 16.5387 0 14.9233 0 12.1156V5.57713C0 2.76944 1.6339 1.15405 4.47377 1.15405H10.6981C13.538 1.15405 15.1719 2.76944 15.1719 5.57713V12.1156C15.1719 14.9233 13.538 16.5387 10.6981 16.5387ZM4.47377 2.3079C2.24856 2.3079 1.16707 3.37713 1.16707 5.57713V12.1156C1.16707 14.3156 2.24856 15.3848 4.47377 15.3848H10.6981C12.9234 15.3848 14.0048 14.3156 14.0048 12.1156V5.57713C14.0048 3.37713 12.9234 2.3079 10.6981 2.3079H4.47377Z" fill="#7A5EF4"/>
</svg>
