<svg width="78" height="101" viewBox="0 0 78 101" fill="none" xmlns="http://www.w3.org/2000/svg">
<ellipse cx="50.5001" cy="95.4708" rx="26.9088" ry="5.5292" fill="#7A5EF4" fill-opacity="0.32"/>
<path d="M44.6944 76.0444C44.7503 75.5157 44.5903 75.0007 44.2289 74.6119C43.8686 74.2231 43.3365 73.9925 42.7703 73.9714C42.2041 73.9503 41.6563 74.1407 41.2681 74.5016C40.8787 74.8624 40.6808 75.3641 40.6972 75.8955C40.6972 75.8955 40.6972 75.8955 40.6972 75.8955C40.7064 76.207 40.7162 76.5307 40.7289 76.849C40.8798 82.7609 42.681 88.3775 44.894 93.5411C45.016 93.8247 45.1413 94.1122 45.2699 94.4038C45.3455 94.5742 45.4914 94.7109 45.6684 94.7863C45.8458 94.8615 46.0399 94.8693 46.2149 94.8055C46.3898 94.7416 46.5332 94.6106 46.6205 94.4388C46.7073 94.2671 46.7308 94.0686 46.6789 93.8895C46.6789 93.8895 46.6789 93.8895 46.6789 93.8895C46.5914 93.5888 46.5073 93.2927 46.4266 93.001C44.9444 87.664 44.0163 82.2299 44.6027 76.9481C44.631 76.6522 44.6623 76.3469 44.6944 76.0444Z" fill="black"/>
<path d="M43.0888 92.5576C41.0597 92.5576 39.3731 93.4677 39.0306 94.6661C38.951 94.9445 39.0939 95.2299 39.3605 95.3428C40.8637 95.9791 45.1254 96.2347 46.8316 95.3649C47.0896 95.2334 47.2266 94.9445 47.147 94.6661C46.8045 93.4677 45.1179 92.5576 43.0888 92.5576Z" fill="black"/>
<path d="M60.3757 75.8057C60.4302 75.2769 60.2691 74.7618 59.9077 74.373C59.5474 73.9843 59.0164 73.7536 58.4516 73.7326C57.8867 73.7115 57.34 73.902 56.9518 74.2629C56.5624 74.6237 56.3634 75.1254 56.3785 75.6567C56.3785 75.6567 56.3785 75.6567 56.3785 75.6567C56.3877 75.9685 56.3948 76.2966 56.4033 76.6201C56.4257 82.6336 57.9138 88.6397 60.2121 94.0187C60.3378 94.3165 60.4663 94.615 60.5992 94.9185C60.6746 95.0894 60.8202 95.2266 60.9974 95.3023C61.1749 95.3779 61.3694 95.3857 61.5448 95.3217C61.7201 95.2577 61.8638 95.1264 61.951 94.9543C62.0377 94.7823 62.0607 94.5835 62.0083 94.4042C62.0083 94.4042 62.0083 94.4042 62.0083 94.4042C61.9171 94.0936 61.8305 93.7885 61.747 93.4849C60.2007 87.9503 59.5762 82.3377 60.2754 76.7685C60.3083 76.4548 60.3427 76.1295 60.3757 75.8057Z" fill="black"/>
<path d="M58.0063 92.5576C55.9772 92.5576 54.2906 93.4677 53.9481 94.6661C53.8685 94.9445 54.0114 95.2299 54.278 95.3428C55.7812 95.9791 60.0429 96.2347 61.7491 95.3649C62.007 95.2334 62.1441 94.9445 62.0645 94.6661C61.722 93.4677 60.0354 92.5576 58.0063 92.5576Z" fill="black"/>
<path d="M25.0659 14.0073H75.1973V75.1971H25.0659V14.0073Z" fill="#AB95F0"/>
<rect x="31.9958" y="59.145" width="33.0321" height="10.0834" fill="#7A5EF4"/>
<path d="M50.2901 63.5033C51.1009 64.2625 51.9285 64.9577 51.9409 65.3915C51.9493 65.6854 51.9493 65.6854 51.4675 66.7793C50.6092 68.7277 46.0765 67.4562 45.8385 67.3472C45.3739 67.1345 43.0178 67.4705 42.6465 67.3924C42.0154 67.2595 41.8612 66.7149 42.0218 66.3503C42.1824 65.9857 44.0891 65.9961 44.8272 65.8859C45.4177 65.7977 45.2752 65.5995 44.9878 65.5213L44.9732 65.5193C44.4823 65.4524 43.0799 65.2613 42.3481 64.939C41.424 64.5319 41.5846 64.1673 41.6917 63.9242C41.9124 63.4231 44.0836 63.8169 44.9457 64.0515C45.6353 64.2392 45.5711 63.9884 45.4528 63.8396C45.0086 63.5955 44.0155 63.0323 43.5963 62.7315C43.0723 62.3556 42.7173 61.909 42.9315 61.4228C43.1456 60.9367 44.1852 61.3946 44.8247 61.8214C45.7839 62.4616 46.8138 62.6642 47.9433 63.1952C47.7865 63.0294 47.437 62.4833 47.1824 61.5584C46.9278 60.6336 47.551 60.4526 48.2224 60.9962C49.0254 61.5584 49.3941 62.6643 50.2901 63.5033Z" fill="black" stroke="black" stroke-width="0.2"/>
<path d="M5.03717 83.0193C5.13743 84.5846 6.42651 85.8084 7.99488 85.8273L47.4764 86.3032C49.2941 86.3251 50.7134 84.7383 50.4897 82.9343L46.7624 52.8717C46.5755 51.3642 45.2913 50.2343 43.7723 50.2408L6.13336 50.4021C4.40616 50.4095 3.04195 51.8702 3.15236 53.5939L5.03717 83.0193Z" fill="#7A5EF4"/>
<path d="M2.08897 52.9551C2.18846 51.3694 3.50695 50.1363 5.09572 50.143L43.2433 50.3038C44.9932 50.3111 46.3654 51.8085 46.2204 53.5524L43.7159 83.6694C43.5861 85.2295 42.2787 86.4275 40.7133 86.4208L3.18048 86.2599C1.45483 86.2525 0.091164 84.7944 0.199231 83.0721L2.08897 52.9551Z" fill="#B3A1FF"/>
<path d="M3.374 54.4703C3.47381 52.8798 4.7998 51.6448 6.39341 51.6583L40.6538 51.9472C42.3908 51.9618 43.7524 53.4441 43.6198 55.1761L41.5561 82.1333C41.4361 83.7017 40.125 84.9111 38.552 84.9043L4.65477 84.759C2.92912 84.7517 1.56545 83.2935 1.67352 81.5712L3.374 54.4703Z" fill="#F0ECFF"/>
<path d="M3.44873 53.0661C3.50623 51.4468 4.83917 50.1658 6.45949 50.1726L40.8528 50.3175C42.6018 50.3249 43.9737 51.8209 43.83 53.5641L43.5547 56.9018L3.31736 56.7664L3.44873 53.0661Z" fill="#7A5EF4"/>
<circle cx="8.29385" cy="51.7899" r="0.921533" fill="#ECE8FF"/>
<circle cx="14.1916" cy="51.7899" r="0.921533" fill="#ECE8FF"/>
<circle cx="20.8266" cy="51.7899" r="0.921533" fill="#ECE8FF"/>
<circle cx="27.4616" cy="51.7899" r="0.921533" fill="#ECE8FF"/>
<circle cx="33.3595" cy="51.7899" r="0.921533" fill="#ECE8FF"/>
<circle cx="39.9945" cy="51.7899" r="0.921533" fill="#ECE8FF"/>
<path d="M8.07837 47.0876C8.47687 46.9767 8.88924 47.0343 9.25903 47.2488C9.62685 47.4621 9.933 47.8187 10.1458 48.2644C10.3251 48.6401 10.4335 49.069 10.4631 49.5115C10.4783 49.7375 10.2933 49.9126 10.0803 49.9128C9.86115 49.9128 9.69631 49.7362 9.67798 49.5349C9.65289 49.26 9.5829 48.9978 9.47388 48.7693C9.33464 48.4776 9.14055 48.2587 8.9231 48.1326C8.70769 48.0078 8.47592 47.9769 8.25317 48.0388C8.02841 48.1014 7.81232 48.2586 7.63794 48.5027C7.46354 48.7468 7.34185 49.0629 7.29224 49.4119C7.24269 49.7606 7.26785 50.1222 7.3645 50.449C7.46131 50.7762 7.62357 51.0491 7.82446 51.2371C7.94122 51.3463 8.06756 51.4232 8.19653 51.4685C8.40383 51.5413 8.62817 51.7295 8.62817 52.0056C8.62796 52.261 8.40836 52.5229 8.10669 52.4451C7.8342 52.3747 7.57745 52.2284 7.35181 52.0173C7.02591 51.7124 6.77676 51.285 6.6311 50.7927C6.48533 50.3 6.44768 49.7592 6.52173 49.238C6.59575 48.7172 6.77946 48.2343 7.05298 47.8513C7.32662 47.4682 7.68171 47.1981 8.07837 47.0876Z" fill="black" stroke="black" stroke-width="0.3" stroke-linejoin="round"/>
<path d="M13.9761 47.0876C14.3746 46.9767 14.7869 47.0343 15.1567 47.2488C15.5246 47.4621 15.8307 47.8187 16.0435 48.2644C16.2228 48.6401 16.3312 49.069 16.3608 49.5115C16.376 49.7375 16.191 49.9126 15.978 49.9128C15.7589 49.9128 15.594 49.7362 15.5757 49.5349C15.5506 49.26 15.4806 48.9978 15.3716 48.7693C15.2323 48.4776 15.0383 48.2587 14.8208 48.1326C14.6054 48.0078 14.3736 47.9769 14.1509 48.0388C13.9261 48.1014 13.71 48.2586 13.5356 48.5027C13.3612 48.7468 13.2396 49.0629 13.1899 49.4119C13.1404 49.7606 13.1656 50.1222 13.2622 50.449C13.359 50.7762 13.5213 51.0491 13.7222 51.2371C13.8389 51.3463 13.9653 51.4232 14.0942 51.4685C14.3015 51.5413 14.5259 51.7295 14.5259 52.0056C14.5257 52.261 14.3061 52.5229 14.0044 52.4451C13.7319 52.3747 13.4752 52.2284 13.2495 52.0173C12.9236 51.7124 12.6745 51.285 12.5288 50.7927C12.383 50.3 12.3454 49.7592 12.4194 49.238C12.4935 48.7172 12.6772 48.2343 12.9507 47.8513C13.2243 47.4682 13.5794 47.1981 13.9761 47.0876Z" fill="black" stroke="black" stroke-width="0.3" stroke-linejoin="round"/>
<path d="M20.6113 47.0876C21.0098 46.9767 21.4222 47.0343 21.792 47.2488C22.1598 47.4621 22.466 47.8187 22.6787 48.2644C22.858 48.6401 22.9664 49.069 22.9961 49.5115C23.0112 49.7375 22.8263 49.9126 22.6133 49.9128C22.3941 49.9128 22.2293 49.7362 22.2109 49.5349C22.1858 49.26 22.1159 48.9978 22.0068 48.7693C21.8676 48.4776 21.6735 48.2587 21.4561 48.1326C21.2406 48.0078 21.0089 47.9769 20.7861 48.0388C20.5614 48.1014 20.3453 48.2586 20.1709 48.5027C19.9965 48.7468 19.8748 49.0629 19.8252 49.4119C19.7756 49.7606 19.8008 50.1222 19.8975 50.449C19.9943 50.7762 20.1565 51.0491 20.3574 51.2371C20.4742 51.3463 20.6005 51.4232 20.7295 51.4685C20.9368 51.5413 21.1611 51.7295 21.1611 52.0056C21.1609 52.261 20.9413 52.5229 20.6396 52.4451C20.3672 52.3747 20.1104 52.2284 19.8848 52.0173C19.5589 51.7124 19.3097 51.285 19.1641 50.7927C19.0183 50.3 18.9806 49.7592 19.0547 49.238C19.1287 48.7172 19.3124 48.2343 19.5859 47.8513C19.8596 47.4682 20.2147 47.1981 20.6113 47.0876Z" fill="black" stroke="black" stroke-width="0.3" stroke-linejoin="round"/>
<path d="M27.2463 47.0876C27.6448 46.9767 28.0572 47.0343 28.427 47.2488C28.7948 47.4621 29.101 47.8187 29.3137 48.2644C29.493 48.6401 29.6014 49.069 29.6311 49.5115C29.6463 49.7375 29.4613 49.9126 29.2483 49.9128C29.0291 49.9128 28.8643 49.7362 28.8459 49.5349C28.8209 49.26 28.7509 48.9978 28.6418 48.7693C28.5026 48.4776 28.3085 48.2587 28.0911 48.1326C27.8757 48.0078 27.6439 47.9769 27.4211 48.0388C27.1964 48.1014 26.9803 48.2586 26.8059 48.5027C26.6315 48.7468 26.5098 49.0629 26.4602 49.4119C26.4107 49.7606 26.4358 50.1222 26.5325 50.449C26.6293 50.7762 26.7915 51.0491 26.9924 51.2371C27.1092 51.3463 27.2355 51.4232 27.3645 51.4685C27.5718 51.5413 27.7961 51.7295 27.7961 52.0056C27.7959 52.261 27.5763 52.5229 27.2747 52.4451C27.0022 52.3747 26.7454 52.2284 26.5198 52.0173C26.1939 51.7124 25.9447 51.285 25.7991 50.7927C25.6533 50.3 25.6156 49.7592 25.6897 49.238C25.7637 48.7172 25.9474 48.2343 26.2209 47.8513C26.4946 47.4682 26.8497 47.1981 27.2463 47.0876Z" fill="black" stroke="black" stroke-width="0.3" stroke-linejoin="round"/>
<path d="M33.144 47.0876C33.5425 46.9767 33.9549 47.0343 34.3247 47.2488C34.6925 47.4621 34.9987 47.8187 35.2114 48.2644C35.3908 48.6401 35.4991 49.069 35.5288 49.5115C35.544 49.7375 35.359 49.9126 35.146 49.9128C34.9268 49.9128 34.762 49.7362 34.7437 49.5349C34.7186 49.26 34.6486 48.9978 34.5396 48.7693C34.4003 48.4776 34.2062 48.2587 33.9888 48.1326C33.7734 48.0078 33.5416 47.9769 33.3188 48.0388C33.0941 48.1014 32.878 48.2586 32.7036 48.5027C32.5292 48.7468 32.4075 49.0629 32.3579 49.4119C32.3084 49.7606 32.3335 50.1222 32.4302 50.449C32.527 50.7762 32.6892 51.0491 32.8901 51.2371C33.0069 51.3463 33.1332 51.4232 33.2622 51.4685C33.4695 51.5413 33.6938 51.7295 33.6938 52.0056C33.6936 52.261 33.474 52.5229 33.1724 52.4451C32.8999 52.3747 32.6431 52.2284 32.4175 52.0173C32.0916 51.7124 31.8424 51.285 31.6968 50.7927C31.551 50.3 31.5133 49.7592 31.5874 49.238C31.6614 48.7172 31.8451 48.2343 32.1187 47.8513C32.3923 47.4682 32.7474 47.1981 33.144 47.0876Z" fill="black" stroke="black" stroke-width="0.3" stroke-linejoin="round"/>
<path d="M39.7791 47.0876C40.1776 46.9767 40.5899 47.0343 40.9597 47.2488C41.3275 47.4621 41.6337 47.8187 41.8464 48.2644C42.0258 48.6401 42.1342 49.069 42.1638 49.5115C42.179 49.7375 41.994 49.9126 41.781 49.9128C41.5618 49.9128 41.397 49.7362 41.3787 49.5349C41.3536 49.26 41.2836 48.9978 41.1746 48.7693C41.0353 48.4776 40.8412 48.2587 40.6238 48.1326C40.4084 48.0078 40.1766 47.9769 39.9539 48.0388C39.7291 48.1014 39.513 48.2586 39.3386 48.5027C39.1642 48.7468 39.0425 49.0629 38.9929 49.4119C38.9434 49.7606 38.9685 50.1222 39.0652 50.449C39.162 50.7762 39.3243 51.0491 39.5251 51.2371C39.6419 51.3463 39.7682 51.4232 39.8972 51.4685C40.1045 51.5413 40.3289 51.7295 40.3289 52.0056C40.3286 52.261 40.109 52.5229 39.8074 52.4451C39.5349 52.3747 39.2781 52.2284 39.0525 52.0173C38.7266 51.7124 38.4774 51.285 38.3318 50.7927C38.186 50.3 38.1484 49.7592 38.2224 49.238C38.2964 48.7172 38.4801 48.2343 38.7537 47.8513C39.0273 47.4682 39.3824 47.1981 39.7791 47.0876Z" fill="black" stroke="black" stroke-width="0.3" stroke-linejoin="round"/>
<circle cx="10.0823" cy="62.011" r="1.47445" transform="rotate(3.36998 10.0823 62.011)" fill="#7A5EF4"/>
<circle cx="9.77903" cy="67.1626" r="1.47445" transform="rotate(3.36998 9.77903 67.1626)" fill="#7A5EF4"/>
<circle cx="9.43235" cy="73.0503" r="1.47445" transform="rotate(3.36998 9.43235 73.0503)" fill="#7A5EF4"/>
<circle cx="9.08567" cy="78.938" r="1.47445" transform="rotate(3.36998 9.08567 78.938)" fill="#7A5EF4"/>
<circle cx="16.4079" cy="62.011" r="1.47445" transform="rotate(3.36998 16.4079 62.011)" fill="#7A5EF4"/>
<circle cx="16.1047" cy="67.1626" r="1.47445" transform="rotate(3.36998 16.1047 67.1626)" fill="#7A5EF4"/>
<circle cx="15.7578" cy="73.0503" r="1.47445" transform="rotate(3.36998 15.7578 73.0503)" fill="#7A5EF4"/>
<circle cx="15.4111" cy="78.938" r="1.47445" transform="rotate(3.36998 15.4111 78.938)" fill="#7A5EF4"/>
<circle cx="22.7339" cy="62.011" r="1.47445" transform="rotate(3.36998 22.7339 62.011)" fill="#7A5EF4"/>
<circle cx="22.4304" cy="67.1626" r="1.47445" transform="rotate(3.36998 22.4304 67.1626)" fill="#FEB301"/>
<circle cx="22.0835" cy="73.0503" r="1.47445" transform="rotate(3.36998 22.0835 73.0503)" fill="#7A5EF4"/>
<circle cx="21.7368" cy="78.938" r="1.47445" transform="rotate(3.36998 21.7368 78.938)" fill="#7A5EF4"/>
<circle cx="28.7124" cy="62.011" r="1.47445" transform="rotate(3.36998 28.7124 62.011)" fill="#7A5EF4"/>
<circle cx="28.4092" cy="67.1626" r="1.47445" transform="rotate(3.36998 28.4092 67.1626)" fill="#7A5EF4"/>
<circle cx="28.0622" cy="73.0503" r="1.47445" transform="rotate(3.36998 28.0622 73.0503)" fill="#7A5EF4"/>
<circle cx="34.3445" cy="62.011" r="1.47445" transform="rotate(3.36998 34.3445 62.011)" fill="#7A5EF4"/>
<circle cx="34.0412" cy="67.1626" r="1.47445" transform="rotate(3.36998 34.0412 67.1626)" fill="#7A5EF4"/>
<path d="M0.737186 63.0328V65.2444C0.737186 65.6131 0.442262 66.7926 2.21161 67.0875C4.42328 67.4561 4.05467 66.7189 4.05467 66.3503C4.05467 66.0554 3.19462 65.7359 2.94888 65.6131C2.58026 65.2444 2.94888 65.2444 4.42328 65.2444C5.89774 65.2444 5.16054 63.77 4.42328 63.77C4.42328 63.77 3.61234 63.6963 3.31744 63.4014C2.94883 63.0328 3.68606 62.6641 4.42328 62.6641C5.01307 62.6641 4.91477 62.1727 4.7919 61.9269C4.7919 61.6812 4.05472 61.1897 2.58026 61.1897C1.10581 61.1897 0.737186 61.9269 0.737186 63.0328Z" fill="black" stroke="black" stroke-width="0.5" stroke-linecap="round"/>
<path d="M54.4418 40.6478C53.3293 46.6008 44.3708 46.5273 43.2441 40.6985C43.1218 40.0659 43.7293 39.582 44.3586 39.7197C47.8043 40.4734 49.011 40.4544 53.3622 39.6625C53.98 39.55 54.5572 40.0304 54.4418 40.6478Z" fill="black"/>
<path d="M45.7081 44.6024C47.7981 45.9957 50.1314 45.3395 51.6058 44.6023C52.3609 44.2247 52.7117 43.8651 53.0803 43.4965C50.6144 42.5426 46.4392 42.9628 44.6022 43.4965C44.6022 43.4965 44.6022 43.8651 45.7081 44.6024Z" fill="#FE9CEE"/>
<path d="M24.9048 13.7978C24.9048 13.105 25.4664 12.5435 26.1591 12.5435H76.518V15.0522H26.1591C25.4664 15.0522 24.9048 14.4906 24.9048 13.7978Z" fill="#7A5EF4"/>
<path d="M24.9048 6.27168C24.9048 5.57892 25.4664 5.01733 26.1591 5.01733H71.6024V7.52603H26.1591C25.4664 7.52603 24.9048 6.96444 24.9048 6.27168Z" fill="#7A5EF4"/>
<path d="M71.6025 5.01733C74.3173 5.01733 76.5181 7.2181 76.5181 9.93288V75.2608H71.6025V5.01733Z" fill="#7A5EF4"/>
<path d="M25.3762 6.68921H69.5822C71.3973 6.68921 72.8687 8.16064 72.8687 9.97575C72.8687 11.7909 71.3973 13.2623 69.5822 13.2623H25.3762V6.68921Z" fill="#F8F8F8"/>
<ellipse cx="57.0564" cy="32.0971" rx="4.06161" ry="3.178" transform="scale(1.0006 0.999405) rotate(-90 57.0564 32.0971)" fill="black"/>
<ellipse cx="0.553807" cy="0.467956" rx="0.553807" ry="0.467956" transform="matrix(-0.0154629 -1.00012 0.999629 -0.0155287 54.7842 34.0562)" fill="white"/>
<ellipse cx="1.00163" cy="0.817766" rx="1.00163" ry="0.817766" transform="matrix(-0.015185 -1.00012 0.999626 -0.0158129 57.2029 31.4165)" fill="white"/>
<ellipse cx="39.8374" cy="32.0973" rx="4.06161" ry="3.178" transform="scale(1.0006 0.999405) rotate(-90 39.8374 32.0973)" fill="black"/>
<ellipse cx="0.553807" cy="0.467956" rx="0.553807" ry="0.467956" transform="matrix(-0.0154629 -1.00012 0.999629 -0.0155287 37.5652 34.0562)" fill="white"/>
<ellipse cx="1.00163" cy="0.817766" rx="1.00163" ry="0.817766" transform="matrix(-0.015185 -1.00012 0.999626 -0.0158129 39.9841 31.4167)" fill="white"/>
<ellipse cx="58.6421" cy="38.8079" rx="2.81735" ry="1.23245" fill="#7A5EF4"/>
<ellipse cx="38.1484" cy="38.8372" rx="2.81735" ry="1.23245" fill="#7A5EF4"/>
<path d="M41.4646 25.2998C41.5454 24.9769 41.6262 24.6539 41.707 24.331C41.5299 24.2953 41.4206 24.2949 41.3022 24.2886C39.2845 24.3134 37.0452 24.5182 35.6389 26.1953C35.5702 26.2909 35.5082 26.3908 35.4533 26.4952C35.5613 26.5587 35.6694 26.6221 35.7774 26.6856C35.8324 26.6018 35.8928 26.5228 35.9586 26.4478C37.25 25.1387 39.4278 25.09 41.2264 25.254C41.3142 25.2659 41.4397 25.2874 41.4646 25.2998Z" fill="black"/>
<path d="M56.153 25.1521C56.0666 24.8308 55.9803 24.5096 55.8939 24.1883C56.078 24.1477 56.1823 24.1508 56.2986 24.1463C58.2353 24.2103 60.2964 24.6212 61.5465 26.2217C61.6096 26.3115 61.6672 26.4041 61.7199 26.5005C61.613 26.5662 61.5061 26.632 61.3992 26.6977C61.3452 26.6189 61.2872 26.5444 61.2248 26.4726C60.0405 25.2052 58.0285 24.989 56.3542 25.1131C56.2743 25.1226 56.1602 25.1432 56.153 25.1521Z" fill="black"/>
<path d="M60.9517 0V11.4672H68.4413V0L65.0369 2.49287L60.9517 0Z" fill="#FEB301"/>
<path d="M74.0062 51.5305C74.3826 54.5318 72.7631 60.4912 65.1175 64.0483C55.8327 68.3681 50.4425 65.7034 50 66" stroke="black" stroke-width="2.5" stroke-linecap="round"/>
</svg>
