<svg width="143" height="165" viewBox="0 0 143 165" fill="none" xmlns="http://www.w3.org/2000/svg">
<ellipse cx="71.2414" cy="154.837" rx="37.663" ry="10.163" fill="#DAD8F0"/>
<path d="M61.7786 123.285C61.8206 122.755 61.6485 122.24 61.2873 121.851C60.9268 121.462 60.4068 121.232 59.8545 121.211C59.3021 121.191 58.7664 121.382 58.378 121.743C57.9889 122.103 57.7788 122.605 57.7814 123.136C57.7814 123.136 57.7814 123.136 57.7814 123.136C57.7835 123.638 57.7866 124.157 57.7944 124.667C57.8099 134.059 60.4597 143.111 63.8215 151.539C64.0066 152.002 64.1969 152.471 64.3927 152.947C64.4657 153.123 64.6093 153.266 64.7875 153.344C64.9661 153.423 65.1647 153.431 65.344 153.365C65.5233 153.3 65.6699 153.166 65.7559 152.991C65.8416 152.816 65.8597 152.614 65.8018 152.432C65.8018 152.432 65.8018 152.432 65.8018 152.432C65.647 151.947 65.4978 151.47 65.3541 150.999C62.7231 142.398 60.9464 133.528 61.6682 124.766C61.7014 124.279 61.7393 123.778 61.7786 123.285Z" fill="black"/>
<path d="M60.4172 150.112C56.9723 150.112 54.136 151.73 53.7719 153.808C53.722 154.093 53.8562 154.377 54.1135 154.51C56.3449 155.661 64.0638 156.159 66.7353 154.527C66.9824 154.376 67.1125 154.093 67.0625 153.808C66.6984 151.73 63.8621 150.112 60.4172 150.112Z" fill="black"/>
<path d="M82.0113 122.897C81.9701 122.368 82.1429 121.852 82.5041 121.464C82.8646 121.075 83.3839 120.845 83.9354 120.824C84.4869 120.804 85.0219 120.995 85.4103 121.355C85.7995 121.716 86.0102 122.217 86.0085 122.748C86.0085 122.748 86.0085 122.748 86.0085 122.748C86.0067 123.258 86.0081 123.789 86.0072 124.311C86.1951 133.925 84.0503 143.544 80.5566 152.316C80.3659 152.801 80.1705 153.287 79.9679 153.781C79.8951 153.958 79.7517 154.101 79.5733 154.18C79.3947 154.258 79.1959 154.267 79.0163 154.201C78.8367 154.136 78.6899 154.001 78.604 153.826C78.5183 153.651 78.5006 153.449 78.5588 153.267C78.5588 153.267 78.5588 153.267 78.5588 153.267C78.7197 152.765 78.8731 152.273 79.0217 151.782C81.7634 142.854 83.0446 133.629 82.135 124.459C82.0946 123.947 82.0516 123.419 82.0113 122.897Z" fill="black"/>
<path d="M84.6111 150.112C88.056 150.112 90.8923 151.73 91.2564 153.808C91.3064 154.093 91.1722 154.377 90.9148 154.51C88.6834 155.661 80.9645 156.159 78.293 154.527C78.0459 154.376 77.9159 154.093 77.9658 153.808C78.3299 151.73 81.1662 150.112 84.6111 150.112Z" fill="black"/>
<path d="M30.9312 23.2472H112.922V121.66H30.9312V23.2472Z" fill="#AB95F0"/>
<path d="M75.4264 70.8424C75.4264 73.6598 73.9058 75.3261 71.0436 75.3261C68.8503 74.7283 66.459 73.9587 66.459 71.1413C66.459 68.3239 68.3794 65.7609 71.2416 65.7609C74.1038 65.7609 75.4264 68.0249 75.4264 70.8424Z" fill="black"/>
<path d="M75.4264 71.6593C72.2079 69.108 68.6214 71.513 67.0569 73.1075C67.0569 73.9049 69.1083 75.6293 71.7743 75.2799C74.5371 74.9178 75.2743 73.1076 75.4264 71.6593Z" fill="#FE9CEE"/>
<rect x="43.6223" y="92.3361" width="53.5723" height="16.3536" fill="#7A5EF4"/>
<path d="M30.9263 22.3433C30.9263 21.2387 31.8217 20.3433 32.9263 20.3433H114.634V24.4119H32.9263C31.8217 24.4119 30.9263 23.5165 30.9263 22.4119V22.3433Z" fill="#7A5EF4"/>
<path d="M30.9263 10.1373C30.9263 9.03276 31.8217 8.13733 32.9263 8.13733H106.662V12.206H32.9263C31.8217 12.206 30.9263 11.3106 30.9263 10.206V10.1373Z" fill="#7A5EF4"/>
<path d="M106.662 8.13733H107.634C111.5 8.13733 114.634 11.2713 114.634 15.1373V122.06H106.662V8.13733Z" fill="#7A5EF4"/>
<path d="M31.6904 10.8488H104.715C106.924 10.8488 108.715 12.6396 108.715 14.8488V17.5092C108.715 19.7183 106.924 21.5092 104.715 21.5092H31.6904V10.8488Z" fill="#F8F8F8"/>
<ellipse cx="82.6003" cy="53.2066" rx="6.57609" ry="5.97826" transform="scale(1.0006 0.999405) rotate(-90 82.6003 53.2066)" fill="black"/>
<ellipse cx="80.1263" cy="55.5187" rx="0.898391" ry="0.758754" transform="matrix(-0.0154959 -1.00037 0.999392 -0.0154959 25.883 136.535)" fill="white"/>
<ellipse cx="1.97833" cy="2.06899" rx="1.97833" ry="2.06899" transform="matrix(-0.015185 -1.00012 0.999626 -0.0158129 81.4646 52.6086)" fill="white"/>
<ellipse cx="57.4912" cy="53.2066" rx="6.57609" ry="5.97826" transform="scale(1.0006 0.999405) rotate(-90 57.4912 53.2066)" fill="black"/>
<ellipse cx="54.5914" cy="55.5187" rx="0.898391" ry="0.758754" transform="matrix(-0.0154959 -1.00037 0.999392 -0.0154959 -0.047554 110.99)" fill="white"/>
<ellipse cx="1.98078" cy="2.0687" rx="1.98078" ry="2.0687" transform="matrix(-0.015185 -1.00012 0.999626 -0.0158129 56.2998 52.6086)" fill="white"/>
<ellipse cx="83.2506" cy="64.1352" rx="4.56925" ry="1.99883" fill="#7A5EF4"/>
<ellipse cx="57.1874" cy="64.1829" rx="4.56925" ry="1.99883" fill="#7A5EF4"/>
<path d="M60.8444 41.2929C60.6241 41.0416 60.4039 40.7902 60.1836 40.5388C60.0726 40.6432 59.9522 40.7437 59.8268 40.8379C57.4362 42.469 54.0719 42.7358 51.0735 42.3703C50.9066 42.3436 50.737 42.3112 50.5779 42.2736C50.546 42.3944 50.514 42.5151 50.4821 42.6359C50.6497 42.6866 50.8263 42.7312 50.9993 42.7696C54.1073 43.311 57.4445 43.3483 60.3848 41.633C60.5424 41.529 60.6973 41.4151 60.8444 41.2929Z" fill="black"/>
<path d="M80.2078 41.3631C80.0604 41.0649 79.9131 40.7666 79.7657 40.4684C79.8938 40.4083 80.0758 40.3113 80.2351 40.2326C83.0377 38.5901 87.5129 38.5536 89.2695 41.6662C89.3693 41.8142 89.4669 41.9695 89.5621 42.1323C89.4561 42.1992 89.3501 42.2662 89.2441 42.3331C89.1443 42.1825 89.0428 42.0402 88.9399 41.9058C87.0709 39.1168 83.2785 39.4265 80.6847 41.0882C80.5327 41.1747 80.3863 41.2649 80.2078 41.3631Z" fill="black"/>
<path d="M89.3879 0V18.5978H101.535V0L96.0135 4.04299L89.3879 0Z" fill="#FEB301"/>
<path d="M108.905 72.3369C111.894 82.1014 119.785 99.7174 125.046 87.2826C130.307 74.8478 129.629 68.75 129.828 67.5543" stroke="black" stroke-width="2.5" stroke-linecap="round"/>
<path d="M135.807 62.174C134.85 62.174 129.828 65.1631 129.231 66.3587C128.633 67.5544 128.633 69.3479 128.633 69.3479C128.633 68.75 130.426 68.8696 135.209 69.3479C141.187 69.9457 142.383 68.1522 142.383 66.3587C142.383 64.9239 137.6 65.1631 135.807 65.7609C135.807 65.7609 134.611 65.7609 135.807 64.5653C137.002 63.3696 137.002 62.174 135.807 62.174Z" fill="black"/>
<path d="M129.231 66.3587L129.32 66.4035V66.4035L129.231 66.3587ZM135.807 64.5653L135.877 64.636V64.636L135.807 64.5653ZM135.807 65.7609V65.8609H135.823L135.838 65.8558L135.807 65.7609ZM135.209 69.3479L135.199 69.4474V69.4474L135.209 69.3479ZM128.533 69.3479C128.533 69.4031 128.578 69.4479 128.633 69.4479C128.688 69.4479 128.733 69.4031 128.733 69.3479H128.633H128.533ZM129.231 66.3587L129.32 66.4035C129.387 66.2686 129.522 66.1003 129.716 65.9064C129.909 65.7139 130.155 65.5018 130.438 65.279C131.004 64.8337 131.714 64.3501 132.437 63.903C133.159 63.456 133.893 63.0467 134.503 62.7496C134.809 62.601 135.083 62.4811 135.308 62.3986C135.538 62.3148 135.706 62.274 135.807 62.274V62.174V62.074C135.668 62.074 135.47 62.1265 135.24 62.2108C135.005 62.2965 134.725 62.4195 134.416 62.5698C133.798 62.8705 133.059 63.2832 132.332 63.7329C131.605 64.1826 130.888 64.6705 130.314 65.1219C130.027 65.3475 129.775 65.565 129.575 65.7649C129.376 65.9633 129.223 66.1499 129.141 66.314L129.231 66.3587ZM135.807 62.174V62.274C136.09 62.274 136.288 62.3448 136.413 62.4547C136.537 62.5631 136.603 62.7203 136.603 62.9212C136.603 63.3307 136.326 63.9044 135.736 64.4945L135.807 64.5653L135.877 64.636C136.483 64.0305 136.803 63.4085 136.803 62.9212C136.803 62.6738 136.72 62.4573 136.545 62.3042C136.372 62.1526 136.121 62.074 135.807 62.074V62.174ZM135.807 64.5653L135.736 64.4945C135.433 64.7971 135.271 65.0346 135.207 65.2249C135.175 65.3215 135.167 65.4095 135.183 65.4886C135.199 65.5684 135.238 65.6324 135.288 65.6822C135.384 65.7781 135.52 65.8204 135.619 65.8403C135.671 65.8506 135.717 65.8557 135.75 65.8583C135.767 65.8596 135.78 65.8602 135.79 65.8606C135.795 65.8607 135.799 65.8608 135.802 65.8609C135.803 65.8609 135.804 65.8609 135.805 65.8609C135.805 65.8609 135.806 65.8609 135.806 65.8609C135.806 65.8609 135.806 65.8609 135.806 65.8609C135.807 65.8609 135.807 65.8609 135.807 65.8609C135.807 65.8609 135.807 65.8609 135.807 65.7609C135.807 65.6609 135.807 65.6609 135.807 65.6609C135.807 65.6609 135.807 65.6609 135.807 65.6609C135.807 65.6609 135.807 65.6609 135.807 65.6609C135.807 65.6609 135.807 65.6609 135.807 65.6609C135.806 65.6609 135.806 65.6609 135.805 65.6609C135.803 65.6609 135.801 65.6608 135.797 65.6607C135.79 65.6604 135.779 65.6599 135.765 65.6589C135.738 65.6568 135.7 65.6525 135.658 65.6442C135.571 65.6267 135.483 65.5942 135.429 65.5407C135.404 65.5157 135.387 65.4863 135.379 65.4494C135.372 65.4117 135.373 65.3596 135.397 65.2881C135.446 65.1421 135.582 64.9313 135.877 64.636L135.807 64.5653ZM135.807 65.7609L135.838 65.8558C136.721 65.5616 138.352 65.353 139.764 65.3975C140.47 65.4198 141.112 65.5053 141.574 65.6701C142.043 65.8376 142.283 66.0688 142.283 66.3587H142.383H142.483C142.483 65.9312 142.125 65.6543 141.641 65.4818C141.15 65.3066 140.484 65.2202 139.77 65.1976C138.343 65.1525 136.686 65.3624 135.775 65.666L135.807 65.7609ZM142.383 66.3587H142.283C142.283 67.2297 141.995 68.0877 140.988 68.6632C139.97 69.2452 138.202 69.5467 135.219 69.2484L135.209 69.3479L135.199 69.4474C138.194 69.7469 140.013 69.4505 141.087 68.8369C142.173 68.2167 142.483 67.2813 142.483 66.3587H142.383ZM135.209 69.3479L135.219 69.2484C132.829 69.0094 131.18 68.8594 130.129 68.8443C129.605 68.8369 129.219 68.8626 128.962 68.9318C128.833 68.9665 128.727 69.0144 128.652 69.0826C128.573 69.154 128.533 69.2442 128.533 69.3479H128.633H128.733C128.733 69.3021 128.748 69.2652 128.786 69.2306C128.828 69.1928 128.9 69.1557 129.014 69.125C129.242 69.0635 129.604 69.0369 130.126 69.0443C131.167 69.0592 132.806 69.2081 135.199 69.4474L135.209 69.3479ZM128.633 69.3479C128.733 69.3479 128.733 69.3479 128.733 69.3479C128.733 69.3479 128.733 69.3479 128.733 69.3478C128.733 69.3478 128.733 69.3478 128.733 69.3477C128.733 69.3475 128.733 69.3472 128.733 69.3468C128.733 69.346 128.733 69.3448 128.733 69.3432C128.733 69.34 128.733 69.335 128.733 69.3285C128.733 69.3155 128.733 69.296 128.734 69.2707C128.735 69.2202 128.737 69.1464 128.742 69.0539C128.751 68.869 128.77 68.61 128.807 68.3141C128.881 67.72 129.029 66.9861 129.32 66.4035L129.231 66.3587L129.141 66.314C128.835 66.9271 128.684 67.6877 128.608 68.2893C128.571 68.5911 128.552 68.8552 128.542 69.044C128.538 69.1384 128.535 69.214 128.534 69.2662C128.533 69.2923 128.533 69.3125 128.533 69.3263C128.533 69.3332 128.533 69.3385 128.533 69.3421C128.533 69.344 128.533 69.3453 128.533 69.3463C128.533 69.3468 128.533 69.3471 128.533 69.3474C128.533 69.3475 128.533 69.3476 128.533 69.3477C128.533 69.3478 128.533 69.3478 128.533 69.3478C128.533 69.3478 128.533 69.3479 128.633 69.3479Z" fill="black"/>
<path d="M6.6762 62.174C7.63273 62.174 12.6545 65.1631 13.2523 66.3587C13.8501 67.5544 13.8501 69.3479 13.8501 69.3479C13.8501 68.75 12.0566 68.8696 7.27403 69.3479C1.29577 69.9457 0.100116 68.1522 0.100116 66.3587C0.100116 64.9239 4.88269 65.1631 6.67618 65.7609C6.67618 65.7609 7.87184 65.7609 6.6762 64.5653C5.48056 63.3696 5.48055 62.174 6.6762 62.174Z" fill="black"/>
<path d="M13.2523 66.3587L13.1628 66.4035V66.4035L13.2523 66.3587ZM6.6762 64.5653L6.60549 64.636V64.636L6.6762 64.5653ZM6.67618 65.7609V65.8609H6.65996L6.64456 65.8558L6.67618 65.7609ZM7.27403 69.3479L7.28398 69.4474V69.4474L7.27403 69.3479ZM13.9501 69.3479C13.9501 69.4031 13.9053 69.4479 13.8501 69.4479C13.7949 69.4479 13.7501 69.4031 13.7501 69.3479H13.8501H13.9501ZM13.2523 66.3587L13.1628 66.4035C13.0954 66.2686 12.9608 66.1003 12.7667 65.9064C12.574 65.7139 12.3283 65.5018 12.0453 65.279C11.4793 64.8337 10.7689 64.3501 10.0462 63.903C9.32348 63.456 8.5904 63.0467 7.97945 62.7496C7.67386 62.601 7.40023 62.4811 7.17455 62.3986C6.94525 62.3148 6.77664 62.274 6.6762 62.274V62.174V62.074C6.8149 62.074 7.01246 62.1265 7.2432 62.2108C7.47757 62.2965 7.75786 62.4195 8.06692 62.5698C8.68525 62.8705 9.42433 63.2832 10.1514 63.7329C10.8784 64.1826 11.5953 64.6705 12.1689 65.1219C12.4557 65.3475 12.7079 65.565 12.908 65.7649C13.1067 65.9633 13.2597 66.1499 13.3417 66.314L13.2523 66.3587ZM6.6762 62.174V62.274C6.39286 62.274 6.19513 62.3448 6.0695 62.4547C5.94562 62.5631 5.87947 62.7203 5.87947 62.9212C5.87947 63.3307 6.15677 63.9044 6.74692 64.4945L6.6762 64.5653L6.60549 64.636C5.99999 64.0305 5.67947 63.4085 5.67947 62.9212C5.67947 62.6738 5.76277 62.4573 5.9378 62.3042C6.11109 62.1526 6.36172 62.074 6.6762 62.074V62.174ZM6.6762 64.5653L6.74692 64.4945C7.04944 64.7971 7.21205 65.0346 7.27548 65.2249C7.30769 65.3215 7.3155 65.4095 7.29968 65.4886C7.28371 65.5684 7.245 65.6324 7.19527 65.6822C7.09928 65.7781 6.96321 65.8204 6.86393 65.8403C6.81238 65.8506 6.76622 65.8557 6.73289 65.8583C6.71616 65.8596 6.70249 65.8602 6.69277 65.8606C6.6879 65.8607 6.68401 65.8608 6.68122 65.8609C6.67982 65.8609 6.67869 65.8609 6.67785 65.8609C6.67742 65.8609 6.67707 65.8609 6.6768 65.8609C6.67666 65.8609 6.67654 65.8609 6.67643 65.8609C6.67638 65.8609 6.67632 65.8609 6.6763 65.8609C6.67624 65.8609 6.67618 65.8609 6.67618 65.7609C6.67618 65.6609 6.67614 65.6609 6.6761 65.6609C6.67609 65.6609 6.67606 65.6609 6.67604 65.6609C6.67601 65.6609 6.676 65.6609 6.67601 65.6609C6.67602 65.6609 6.6761 65.6609 6.67625 65.6609C6.67654 65.6609 6.67711 65.6609 6.67794 65.6609C6.67959 65.6609 6.68227 65.6608 6.68587 65.6607C6.69308 65.6604 6.70393 65.6599 6.71756 65.6589C6.74495 65.6568 6.78286 65.6525 6.82471 65.6442C6.91225 65.6267 7.00037 65.5942 7.05385 65.5407C7.07884 65.5157 7.09618 65.4863 7.10356 65.4494C7.1111 65.4117 7.10957 65.3596 7.08574 65.2881C7.03708 65.1421 6.90079 64.9313 6.60549 64.636L6.6762 64.5653ZM6.67618 65.7609L6.64456 65.8558C5.76207 65.5616 4.1305 65.353 2.71874 65.3975C2.01277 65.4198 1.37099 65.5053 0.909026 65.6701C0.439686 65.8376 0.200116 66.0688 0.200116 66.3587H0.100116H0.000115395C0.000115395 65.9312 0.358367 65.6543 0.841805 65.4818C1.33262 65.3066 1.99857 65.2202 2.71243 65.1976C4.14034 65.1525 5.7968 65.3624 6.70781 65.666L6.67618 65.7609ZM0.100116 66.3587H0.200116C0.200116 67.2297 0.487672 68.0877 1.49484 68.6632C2.51337 69.2452 4.28089 69.5467 7.26408 69.2484L7.27403 69.3479L7.28398 69.4474C4.28891 69.7469 2.46947 69.4505 1.39561 68.8369C0.310387 68.2167 0.000115395 67.2813 0.000115395 66.3587H0.100116ZM7.27403 69.3479L7.26408 69.2484C9.65391 69.0094 11.3027 68.8594 12.3541 68.8443C12.8782 68.8369 13.2639 68.8626 13.5211 68.9318C13.6499 68.9665 13.7559 69.0144 13.8309 69.0826C13.9096 69.154 13.9501 69.2442 13.9501 69.3479H13.8501H13.7501C13.7501 69.3021 13.7346 69.2652 13.6965 69.2306C13.6547 69.1928 13.5833 69.1557 13.4691 69.125C13.2407 69.0635 12.879 69.0369 12.357 69.0443C11.316 69.0592 9.67676 69.2081 7.28398 69.4474L7.27403 69.3479ZM13.8501 69.3479C13.7501 69.3479 13.7501 69.3479 13.7501 69.3479C13.7501 69.3479 13.7501 69.3479 13.7501 69.3478C13.7501 69.3478 13.7501 69.3478 13.7501 69.3477C13.7501 69.3475 13.7501 69.3472 13.7501 69.3468C13.7501 69.346 13.7501 69.3448 13.7501 69.3432C13.7501 69.34 13.75 69.335 13.75 69.3285C13.7498 69.3155 13.7495 69.296 13.749 69.2707C13.7478 69.2202 13.7455 69.1464 13.7409 69.0539C13.7316 68.869 13.7131 68.61 13.6761 68.3141C13.6019 67.72 13.4541 66.9861 13.1628 66.4035L13.2523 66.3587L13.3417 66.314C13.6482 66.9271 13.7994 67.6877 13.8746 68.2893C13.9123 68.5911 13.9312 68.8552 13.9406 69.044C13.9454 69.1384 13.9477 69.214 13.9489 69.2662C13.9495 69.2923 13.9498 69.3125 13.9499 69.3263C13.95 69.3332 13.9501 69.3385 13.9501 69.3421C13.9501 69.344 13.9501 69.3453 13.9501 69.3463C13.9501 69.3468 13.9501 69.3471 13.9501 69.3474C13.9501 69.3475 13.9501 69.3476 13.9501 69.3477C13.9501 69.3478 13.9501 69.3478 13.9501 69.3478C13.9501 69.3478 13.9501 69.3479 13.8501 69.3479Z" fill="black"/>
<path d="M32.9807 72.9348C31.5858 79.7102 27.6003 92.9022 22.8177 91.4674C18.0351 90.0326 14.4481 76.9203 13.2525 70.5435C13.0532 69.3478 12.0568 66.9565 9.66553 66.9565" stroke="black" stroke-width="2.5" stroke-linecap="round"/>
</svg>
