<svg width="60" height="90" viewBox="0 0 60 90" fill="none" xmlns="http://www.w3.org/2000/svg">
<path d="M0 0H57C58.6569 0 60 1.34315 60 3V87C60 88.6569 58.6569 90 57 90H3C1.34315 90 0 88.6569 0 87V0Z" fill="#FDCF7A"/>
<path d="M0 3H55C56.1046 3 57 3.89543 57 5V14H0V3Z" fill="white"/>
<rect x="12" y="65" width="35" height="11" fill="#FEB301"/>
<path d="M34.6548 50.6631C31.6134 50.6631 28.5 50.4999 25.2504 50.6631" stroke="black" stroke-width="1.5" stroke-linecap="round" stroke-linejoin="round"/>
<ellipse cx="18.4482" cy="38.2169" rx="5.29435" ry="5.29435" transform="scale(0.996892 1.00312) rotate(-90 18.4482 38.2169)" fill="black"/>
<ellipse cx="0.808638" cy="1.22481" rx="0.808638" ry="1.22481" transform="matrix(-0.21788 -0.97467 0.980283 -0.203685 18.7847 42.3418)" fill="white"/>
<path d="M13.1039 38.5082C13.1041 35.3986 15.4941 32.8724 18.4483 32.8724C21.4024 32.8725 23.7925 35.3986 23.7926 38.5082L23.7926 38.5482L23.7545 38.557C19.6097 39.536 15.3686 38.9301 13.146 38.558L13.1039 38.5511L13.1039 38.5082Z" fill="#FEB301" stroke="#EBA62D" stroke-width="0.1"/>
<ellipse cx="40.2973" cy="38.2169" rx="5.29435" ry="5.29435" transform="scale(0.996892 1.00312) rotate(-90 40.2973 38.2169)" fill="black"/>
<ellipse cx="0.808638" cy="1.22481" rx="0.808638" ry="1.22481" transform="matrix(-0.21788 -0.97467 0.980283 -0.203685 40.6338 42.3418)" fill="white"/>
<path d="M34.9531 38.5082C34.9532 35.3986 37.3432 32.8724 40.2974 32.8724C43.2515 32.8725 45.6416 35.3986 45.6418 38.5082L45.6418 38.5482L45.6036 38.557C41.4588 39.536 37.2178 38.9301 34.9951 38.558L34.9531 38.5511L34.9531 38.5082Z" fill="#FEB301" stroke="#EBA62D" stroke-width="0.1"/>
<ellipse cx="43.292" cy="49.3962" rx="3.8237" ry="1.67268" fill="#FEB301"/>
<ellipse cx="16.292" cy="49.3962" rx="3.8237" ry="1.67268" fill="#FEB301"/>
<path d="M20.0148 30.677C20.1013 30.3555 20.1878 30.034 20.2743 29.7126C20.0444 29.6612 19.8989 29.6644 19.7373 29.6593C17.0271 29.7476 14.3616 30.406 12.217 32.029C12.1015 32.121 11.9878 32.2175 11.8785 32.3168C11.9596 32.4124 12.0406 32.508 12.1217 32.6036C12.2312 32.5177 12.3448 32.4347 12.4598 32.3561C14.5665 30.9737 17.2508 30.5258 19.6956 30.627C19.8185 30.6373 19.9738 30.6593 20.0148 30.677Z" fill="black"/>
<path d="M39.1802 30.4022C39.062 30.0913 38.9439 29.7803 38.8257 29.4693C39.0605 29.3915 39.204 29.3906 39.36 29.3781C41.9558 29.3887 44.3924 30.0585 46.5073 31.3937C46.6223 31.4699 46.7363 31.5493 46.8473 31.631C46.7766 31.7347 46.706 31.8385 46.6353 31.9423C46.5237 31.8728 46.4095 31.8056 46.2944 31.7417C44.213 30.6248 41.7041 30.1737 39.4412 30.3436C39.3321 30.3574 39.1936 30.3889 39.1802 30.4022Z" fill="black"/>
</svg>
