<svg width="112" height="173" viewBox="0 0 112 173" fill="none" xmlns="http://www.w3.org/2000/svg">
<ellipse cx="63.6" cy="164.5" rx="30.5" ry="8.5" fill="#DBD7F4"/>
<path d="M55.0026 138.835C54.9724 138.304 54.7318 137.819 54.3184 137.486C53.9058 137.153 53.3542 137 52.8003 137.06C52.2463 137.119 51.7397 137.386 51.4073 137.799C51.0741 138.212 50.9422 138.738 51.0255 139.262C51.0255 139.262 51.0255 139.262 51.0255 139.262C51.09 139.667 51.1515 140.073 51.211 140.482C52.1445 147.922 53.4284 155.522 55.087 162.894C55.1762 163.297 55.2675 163.708 55.3609 164.127C55.4025 164.312 55.5194 164.476 55.6806 164.584C55.8421 164.692 56.0346 164.735 56.2213 164.703C56.4079 164.671 56.5749 164.566 56.6909 164.41C56.8066 164.254 56.8619 164.061 56.8391 163.873C56.8391 163.873 56.8391 163.873 56.8391 163.873C56.7871 163.448 56.7371 163.032 56.6893 162.623C55.7708 155.105 55.266 147.724 55.0688 140.117C55.0495 139.691 55.0278 139.264 55.0026 138.835Z" fill="black"/>
<path d="M51.6909 161C48.8503 161 46.5045 162.315 46.1471 164.018C46.0877 164.301 46.2224 164.584 46.4831 164.71C48.4104 165.641 54.6449 166.034 56.9106 164.731C57.1615 164.586 57.2942 164.301 57.2347 164.018C56.8773 162.315 54.5315 161 51.6909 161Z" fill="black"/>
<path d="M71.2804 138.65C71.2738 138.119 71.4802 137.617 71.8695 137.256C72.258 136.896 72.7974 136.705 73.3539 136.726C73.9104 136.747 74.434 136.977 74.7943 137.366C75.1555 137.755 75.3239 138.27 75.2776 138.799C75.2776 138.799 75.2776 138.799 75.2776 138.799C75.2417 139.199 75.211 139.615 75.183 140.027C74.857 147.627 73.8685 155.446 72.1264 162.891C72.0329 163.3 71.9367 163.715 71.8375 164.137C71.7937 164.321 71.6748 164.484 71.5123 164.59C71.3494 164.696 71.1563 164.737 70.97 164.702C70.7837 164.668 70.618 164.56 70.5039 164.403C70.3901 164.246 70.3373 164.051 70.3625 163.863C70.3625 163.863 70.3625 163.863 70.3625 163.863C70.42 163.439 70.4745 163.02 70.5262 162.608C71.5168 155.05 71.7263 147.6 71.3086 139.959C71.2952 139.531 71.2848 139.088 71.2804 138.65Z" fill="black"/>
<path d="M75.6909 161C78.5315 161 80.8773 162.315 81.2347 164.018C81.2942 164.301 81.1594 164.584 80.8987 164.71C78.9714 165.641 72.7369 166.034 70.4713 164.731C70.2203 164.586 70.0877 164.301 70.1471 164.018C70.5045 162.315 72.8503 161 75.6909 161Z" fill="black"/>
<path d="M31.6 101C27.9333 106 17.6 111.5 9.60001 93.5" stroke="black" stroke-width="2.5"/>
<path d="M10.7847 89.4931C11.528 90.6047 10.7847 93.3528 10.3201 94.588L9.85558 95.9774H7.06827C1.02911 96.211 1.02911 94.5879 0.564557 93.1984C0.100006 91.8089 1.95821 91.3457 1.02911 91.3457C0.100006 91.3457 0.100006 90.8825 0.100006 90.4193C0.100006 89.0298 1.02911 89.0298 1.02911 88.5666C1.02911 88.1035 0.564557 88.1035 0.564557 87.1771C0.564557 86.2508 3.81641 85.7876 5.67462 86.2508C7.02666 86.5878 6.60372 85.3245 6.60372 82.5455C6.60372 79.7664 8.46192 79.7664 9.39103 80.2296C10.3201 80.6928 9.39103 82.5455 9.39103 83.935C9.39103 85.3245 9.85558 88.1035 10.7847 89.4931Z" fill="black" stroke="black" stroke-width="0.2"/>
<path d="M29.1 55H97.1V138H29.1V55Z" fill="#AB95F0"/>
<path d="M54.1 93.2189C57.6 98 65.1 98 69.1 93.2189" stroke="black" stroke-width="2" stroke-linecap="round"/>
<rect x="39.5003" y="113.227" width="44.8059" height="13.6775" fill="#7A5EF4"/>
<path d="M28.8817 54.7158C28.8817 53.7762 29.6435 53.0144 30.5832 53.0144H98.8917V56.4173H30.5832C29.6435 56.4173 28.8817 55.6555 28.8817 54.7158Z" fill="#7A5EF4"/>
<path d="M28.8817 44.5072C28.8817 43.5675 29.6435 42.8058 30.5832 42.8058H92.2241V46.2087H30.5832C29.6435 46.2087 28.8817 45.4469 28.8817 44.5072Z" fill="#7A5EF4"/>
<path d="M92.2241 42.8058C95.9065 42.8058 98.8917 45.791 98.8917 49.4734V138.087H92.2241V42.8058Z" fill="#7A5EF4"/>
<path d="M29.5209 45.0735H89.9414C92.1505 45.0735 93.9414 46.8643 93.9414 49.0735V49.9895C93.9414 52.1986 92.1505 53.9895 89.9414 53.9895H29.5209V45.0735Z" fill="#F8F8F8"/>
<path d="M95.1 98C102.6 102.167 114.4 113.4 101.6 125" stroke="black" stroke-width="2.5" stroke-linecap="round"/>
<path d="M93.462 125.466C93.8505 124.042 101.783 123.608 102.395 124.438C103.83 125.687 101.956 130.385 101.328 131.618C100.699 132.851 99.4328 134.321 98.6029 134.934C97.9389 135.424 97.3669 134.65 97.3695 134.306C97.4444 133.481 99.2459 131.713 99.2543 130.605C99.2621 129.573 98.8432 130.396 98.6337 130.807C98.008 131.697 96.5328 133.667 95.9267 134.088C95.1249 134.646 93.6746 134.444 94.3102 133.196C94.9489 131.942 97.0475 129.852 97.215 129.523C97.3825 129.194 96.9942 129.282 96.7873 129.349C95.8876 130.099 94.321 131.751 93.4956 131.745C92.464 131.738 92.4872 130.512 93.4829 129.737C94.8398 128.681 97.0403 126.819 96.8386 126.199C96.6368 125.578 92.9764 127.247 93.462 125.466Z" fill="black"/>
<path d="M102.395 124.438L102.297 124.552L102.284 124.541L102.275 124.528L102.395 124.438ZM93.462 125.466L93.3173 125.427V125.427L93.462 125.466ZM96.8386 126.199L96.6959 126.245L96.6959 126.245L96.8386 126.199ZM93.4829 129.737L93.3907 129.619V129.619L93.4829 129.737ZM93.4956 131.745L93.4968 131.595V131.595L93.4956 131.745ZM96.7873 129.349L96.6913 129.234L96.7135 129.215L96.741 129.206L96.7873 129.349ZM95.9267 134.088L96.0124 134.212L95.9267 134.088ZM98.6337 130.807L98.7674 130.875L98.7625 130.885L98.7564 130.893L98.6337 130.807ZM99.2543 130.605L99.4043 130.606V130.606L99.2543 130.605ZM97.3695 134.306L97.2189 134.305L97.2201 134.292L97.3695 134.306ZM102.395 124.438L102.275 124.528C102.258 124.505 102.218 124.472 102.136 124.434C102.056 124.397 101.95 124.363 101.817 124.332C101.552 124.27 101.2 124.225 100.786 124.198C99.9593 124.145 98.9059 124.165 97.8575 124.256C96.8085 124.347 95.7716 124.508 94.9763 124.732C94.578 124.845 94.2471 124.971 94.0069 125.109C93.761 125.25 93.6391 125.387 93.6067 125.506L93.462 125.466L93.3173 125.427C93.382 125.189 93.593 125.001 93.8576 124.849C94.128 124.694 94.4853 124.559 94.8948 124.443C95.7151 124.212 96.7725 124.049 97.8316 123.957C98.8914 123.866 99.9602 123.844 100.805 123.899C101.227 123.926 101.598 123.972 101.886 124.04C102.029 124.074 102.157 124.114 102.261 124.161C102.362 124.208 102.456 124.268 102.516 124.349L102.395 124.438ZM93.462 125.466L93.6067 125.506C93.5508 125.71 93.5617 125.841 93.5973 125.924C93.631 126.003 93.697 126.062 93.8088 126.104C93.9238 126.147 94.0775 126.167 94.2639 126.167C94.4487 126.167 94.6558 126.148 94.8728 126.119C95.0896 126.09 95.3121 126.052 95.5287 126.016C95.7438 125.98 95.9541 125.945 96.1407 125.924C96.3249 125.903 96.4986 125.893 96.6373 125.914C96.7682 125.933 96.9279 125.988 96.9812 126.152L96.8386 126.199L96.6959 126.245C96.6957 126.244 96.6957 126.244 96.6955 126.244C96.695 126.244 96.6925 126.241 96.6858 126.237C96.6711 126.228 96.6428 126.218 96.594 126.21C96.4958 126.196 96.3543 126.201 96.1745 126.222C95.9972 126.242 95.7948 126.275 95.5783 126.312C95.3633 126.348 95.1353 126.386 94.9123 126.416C94.6895 126.446 94.4675 126.467 94.2637 126.467C94.0615 126.467 93.867 126.446 93.704 126.385C93.5377 126.323 93.3959 126.216 93.3215 126.042C93.2491 125.873 93.2518 125.667 93.3173 125.427L93.462 125.466ZM96.8386 126.199L96.9812 126.152C97.022 126.278 96.9966 126.414 96.9478 126.54C96.898 126.669 96.8154 126.808 96.7121 126.952C96.5053 127.241 96.1993 127.572 95.8497 127.912C95.1494 128.593 94.2551 129.326 93.575 129.856L93.4829 129.737L93.3907 129.619C94.0675 129.092 94.9519 128.366 95.6407 127.697C95.9857 127.362 96.2768 127.045 96.4682 126.777C96.5641 126.644 96.6309 126.527 96.6681 126.431C96.7063 126.333 96.7056 126.275 96.6959 126.245L96.8386 126.199ZM93.4829 129.737L93.575 129.856C93.1031 130.223 92.8801 130.683 92.879 131.03C92.8784 131.2 92.931 131.337 93.0247 131.432C93.1182 131.525 93.2689 131.594 93.4968 131.595L93.4956 131.745L93.4945 131.895C93.2066 131.893 92.9733 131.805 92.812 131.643C92.6511 131.481 92.5782 131.262 92.579 131.029C92.5805 130.566 92.867 130.027 93.3907 129.619L93.4829 129.737ZM93.4956 131.745L93.4968 131.595C93.6598 131.596 93.8824 131.513 94.1546 131.35C94.4218 131.19 94.7162 130.967 95.0176 130.715C95.3184 130.465 95.6222 130.19 95.9086 129.93C96.1937 129.671 96.4632 129.424 96.6913 129.234L96.7873 129.349L96.8834 129.464C96.6615 129.649 96.3979 129.89 96.1104 130.152C95.8242 130.412 95.5161 130.691 95.2096 130.946C94.9037 131.201 94.5955 131.436 94.3087 131.608C94.0269 131.776 93.7442 131.897 93.4945 131.895L93.4956 131.745ZM96.7873 129.349L96.741 129.206C96.7962 129.188 96.8652 129.169 96.9357 129.155C97.0039 129.141 97.084 129.131 97.1574 129.138C97.2257 129.146 97.3365 129.175 97.3855 129.288C97.43 129.39 97.3947 129.501 97.3487 129.591L97.215 129.523L97.0813 129.455C97.1191 129.381 97.0981 129.379 97.1104 129.408C97.1273 129.446 97.1595 129.44 97.1257 129.437C97.0971 129.434 97.0519 129.437 96.9943 129.449C96.939 129.46 96.8819 129.476 96.8337 129.492L96.7873 129.349ZM97.215 129.523L97.3487 129.591C97.3191 129.649 97.2571 129.73 97.1843 129.819C97.1079 129.912 97.0082 130.028 96.8929 130.159C96.6608 130.422 96.3651 130.751 96.0525 131.111C95.4251 131.834 94.7535 132.656 94.4439 133.264L94.3102 133.196L94.1766 133.128C94.5056 132.482 95.2026 131.632 95.826 130.914C96.1388 130.554 96.4392 130.22 96.6676 129.96C96.7826 129.83 96.8794 129.718 96.9523 129.629C97.0288 129.536 97.069 129.479 97.0813 129.455L97.215 129.523ZM94.3102 133.196L94.4439 133.264C94.2948 133.557 94.2822 133.761 94.3248 133.895C94.3662 134.025 94.4699 134.121 94.6299 134.178C94.9607 134.296 95.4736 134.221 95.8411 133.965L95.9267 134.088L96.0124 134.212C95.578 134.514 94.9648 134.616 94.529 134.461C94.3056 134.381 94.1158 134.227 94.039 133.986C93.9634 133.748 94.0078 133.459 94.1766 133.128L94.3102 133.196ZM95.9267 134.088L95.8411 133.965C95.9772 133.871 96.1732 133.68 96.4062 133.422C96.6366 133.168 96.8952 132.857 97.1555 132.53C97.6762 131.876 98.1996 131.163 98.511 130.721L98.6337 130.807L98.7564 130.893C98.4421 131.34 97.9151 132.058 97.3902 132.717C97.1278 133.046 96.8649 133.363 96.6286 133.624C96.395 133.882 96.1793 134.096 96.0124 134.212L95.9267 134.088ZM98.6337 130.807L98.5001 130.739C98.5522 130.637 98.6194 130.505 98.6903 130.382C98.7591 130.263 98.8395 130.138 98.9202 130.058C98.9581 130.021 99.016 129.973 99.0899 129.96C99.1313 129.952 99.177 129.956 99.2208 129.977C99.2631 129.997 99.2933 130.028 99.3145 130.06C99.3542 130.119 99.3747 130.197 99.3868 130.279C99.3995 130.365 99.4053 130.473 99.4043 130.606L99.2543 130.605L99.1043 130.604C99.1052 130.479 99.0996 130.388 99.09 130.323C99.0853 130.29 99.0798 130.267 99.0746 130.25C99.0693 130.233 99.0654 130.227 99.0656 130.227C99.0661 130.228 99.0735 130.239 99.0912 130.247C99.1104 130.257 99.1297 130.257 99.1432 130.255C99.1615 130.252 99.1578 130.245 99.1308 130.272C99.0816 130.32 99.0184 130.414 98.9501 130.532C98.8837 130.647 98.82 130.772 98.7674 130.875L98.6337 130.807ZM99.2543 130.605L99.4043 130.606C99.4019 130.919 99.2745 131.263 99.1003 131.603C98.9246 131.946 98.6917 132.303 98.4612 132.645C98.2286 132.99 97.9999 133.318 97.823 133.613C97.6429 133.913 97.5341 134.151 97.5188 134.319L97.3695 134.306L97.2201 134.292C97.2423 134.048 97.3868 133.756 97.5658 133.458C97.748 133.155 97.9843 132.816 98.2124 132.478C98.4427 132.136 98.6665 131.792 98.8333 131.466C99.0015 131.138 99.1025 130.845 99.1043 130.604L99.2543 130.605ZM97.3695 134.306L97.5195 134.307C97.5191 134.357 97.5418 134.444 97.5985 134.545C97.6536 134.643 97.733 134.74 97.8283 134.814C97.9232 134.888 98.0288 134.935 98.1389 134.941C98.2467 134.948 98.3727 134.917 98.5138 134.813L98.6029 134.934L98.692 135.055C98.501 135.196 98.3066 135.252 98.1205 135.241C97.9366 135.229 97.7749 135.153 97.6442 135.051C97.5138 134.95 97.4092 134.82 97.3369 134.691C97.2663 134.566 97.2186 134.426 97.2195 134.305L97.3695 134.306ZM98.6029 134.934L98.5138 134.813C99.3237 134.215 100.575 132.764 101.194 131.55L101.328 131.618L101.461 131.686C100.823 132.939 99.5419 134.427 98.692 135.055L98.6029 134.934ZM101.328 131.618L101.194 131.55C101.503 130.942 102.125 129.47 102.49 127.998C102.672 127.262 102.788 126.534 102.772 125.917C102.756 125.296 102.608 124.822 102.297 124.552L102.395 124.438L102.494 124.325C102.901 124.679 103.056 125.26 103.072 125.91C103.089 126.564 102.966 127.322 102.781 128.07C102.41 129.567 101.78 131.061 101.461 131.686L101.328 131.618Z" fill="black"/>
<ellipse cx="72.6" cy="80.5" rx="5.5" ry="4.5" transform="scale(1.0006 0.999405) rotate(-90 72.6 80.5)" fill="black"/>
<ellipse cx="70.0307" cy="82.4337" rx="0.751382" ry="0.634594" transform="matrix(-0.0154959 -1.00037 0.999392 -0.0154959 -11.2677 153.768)" fill="white"/>
<ellipse cx="1.23088" cy="1.20702" rx="1.23088" ry="1.20702" transform="matrix(-0.015185 -1.00012 0.999626 -0.0158129 72.4926 79.3619)" fill="white"/>
<ellipse cx="49.6" cy="80.5" rx="5.5" ry="4.5" transform="scale(1.0006 0.999405) rotate(-90 49.6 80.5)" fill="black"/>
<ellipse cx="46.6746" cy="82.4338" rx="0.751382" ry="0.634594" transform="matrix(-0.0154959 -1.00037 0.999392 -0.0154959 -34.9858 130.403)" fill="white"/>
<ellipse cx="1.24667" cy="1.19284" rx="1.24667" ry="1.19284" transform="matrix(-0.015185 -1.00012 0.999626 -0.0158129 49.1653 79.3932)" fill="white"/>
<ellipse cx="75.644" cy="89.6717" rx="3.82155" ry="1.67174" fill="#7A5EF4"/>
<ellipse cx="46.8456" cy="89.6717" rx="3.82155" ry="1.67174" fill="#7A5EF4"/>
<path d="M51.2769 71.6743C51.318 71.344 51.3591 71.0136 51.4002 70.6833C51.1833 70.6651 51.0327 70.6792 50.8776 70.6885C48.1996 71.0151 45.2257 71.6296 43.6199 74.0512C43.5432 74.1875 43.4759 74.3284 43.4187 74.4744C43.5336 74.5243 43.6485 74.5742 43.7635 74.6241C43.8232 74.4986 43.8915 74.3786 43.9678 74.2631C45.5041 72.2207 48.4358 71.7686 50.9192 71.6559C51.0447 71.6559 51.2139 71.6608 51.2769 71.6743Z" fill="black"/>
<path d="M71.2108 71.9972C71.1198 71.6773 71.0288 71.3573 70.9379 71.0373C71.1554 70.9847 71.2986 70.9827 71.4497 70.9736C74.0305 70.99 76.8247 71.4729 78.5385 73.5602C78.6257 73.6777 78.7057 73.7988 78.7792 73.9255C78.6732 73.9927 78.5673 74.0599 78.4614 74.1272C78.3867 74.0183 78.3066 73.9151 78.2205 73.8157C76.5771 72.0605 73.8348 71.7716 71.5191 71.9395C71.4044 71.9531 71.2518 71.9789 71.2108 71.9972Z" fill="black"/>
<path d="M77.777 36V51.5545H87.9362V36L83.3184 39.3814L77.777 36Z" fill="#FEB301"/>
<circle cx="17.6" cy="44.5" r="1.5" fill="#B3A1FF"/>
<path d="M48.1 0L49.5142 3.58579L53.1 5L49.5142 6.41421L48.1 10L46.6858 6.41421L43.1 5L46.6858 3.58579L48.1 0Z" fill="#FEB301"/>
<path d="M20.6 19L21.8728 22.2272L25.1 23.5L21.8728 24.7728L20.6 28L19.3272 24.7728L16.1 23.5L19.3272 22.2272L20.6 19Z" fill="#FEB301"/>
<path d="M105.6 23L107.156 26.9444L111.1 28.5L107.156 30.0556L105.6 34L104.044 30.0556L100.1 28.5L104.044 26.9444L105.6 23Z" fill="#FEB301"/>
<path d="M68.1 11C70.1 9.5 71.4333 6.66667 71.6 5L74.1 7C74.1 9 71.4333 11.8333 70.1 13L68.1 11Z" fill="#FEB301"/>
<path d="M42.1 23C40.1 21.5 38.7667 18.6667 38.6 17L36.1 19C36.1 21 38.7667 23.8333 40.1 25L42.1 23Z" fill="#B3A1FF"/>
<circle cx="55.6" cy="25.5" r="1.5" fill="#B3A1FF"/>
<circle cx="90.1" cy="12" r="2" fill="#B3A1FF"/>
<circle cx="107.6" cy="48.5" r="1.5" fill="#B3A1FF"/>
<circle cx="82.6" cy="28.5" r="1.5" fill="#B3A1FF"/>
<circle cx="18.1" cy="45" r="2" fill="#B3A1FF"/>
</svg>
