<svg width="124" height="137" viewBox="0 0 124 137" fill="none" xmlns="http://www.w3.org/2000/svg">
<ellipse cx="62.6" cy="129.5" rx="36.5" ry="7.5" fill="#DBD7F4"/>
<path d="M54.0126 103.123C54.0589 102.594 53.8906 102.079 53.5293 101.69C53.1689 101.301 52.6451 101.071 52.0884 101.05C51.5317 101.029 50.9922 101.22 50.6039 101.581C50.2147 101.942 50.0085 102.443 50.0153 102.974C50.0153 102.974 50.0153 102.974 50.0153 102.974C50.0205 103.395 50.0264 103.831 50.0364 104.258C50.1096 112.165 52.3973 119.751 55.2687 126.786C55.4269 127.172 55.5895 127.564 55.7566 127.961C55.8304 128.136 55.9747 128.276 56.1526 128.354C56.3308 128.431 56.5279 128.439 56.7059 128.374C56.8838 128.31 57.0294 128.176 57.1158 128.002C57.2018 127.828 57.2217 127.628 57.1657 127.447C57.1657 127.447 57.1657 127.447 57.1657 127.447C57.0396 127.041 56.9182 126.64 56.8014 126.246C54.6607 119.038 53.2462 111.634 53.9101 104.358C53.9413 103.952 53.9763 103.535 54.0126 103.123Z" fill="black"/>
<path d="M52.547 125.549C49.7064 125.549 47.3605 126.864 47.0032 128.566C46.9437 128.85 47.0785 129.133 47.3392 129.259C49.2665 130.19 55.5009 130.583 57.7666 129.279C58.0176 129.135 58.1502 128.85 58.0907 128.566C57.7334 126.864 55.3876 125.549 52.547 125.549Z" fill="black"/>
<path d="M29.0587 61.9339C24.9986 62.526 16.8727 60.4916 11.8409 50.2194C5.73036 37.7451 6.85259 30.0491 6.43829 29.457" stroke="black" stroke-width="2.5"/>
<path d="M9.17472 27.5636C9.17472 29.0702 8.26526 30.3926 7.73357 30.6452C7.37328 30.8165 7.37328 30.8165 5.75199 30.8165C2.86406 30.8165 2.05635 24.4717 1.96897 24.1395C1.78882 23.4547 0.273517 20.7055 0.16753 20.2019C-0.0126143 19.3459 0.16753 19.0035 0.707961 19.0035C1.24839 19.0035 2.68954 21.2291 3.22998 22.0851C3.66232 22.7699 3.83046 22.4846 3.77041 22.0851L3.76489 22.0659C3.5795 21.42 3.04983 19.5746 3.04983 18.4899C3.04983 17.1202 3.59026 17.1202 3.95055 17.1202C4.6933 17.1202 5.3917 20.0307 5.57185 21.2291C5.71596 22.1878 5.99218 21.971 6.11228 21.7427C6.17233 21.0579 6.32845 19.5171 6.47257 18.8323C6.65271 17.9763 7.013 17.2914 7.73357 17.2914C8.45415 17.2914 8.45415 18.8323 8.274 19.8595C8.00379 21.4003 7.91372 23.2835 8.274 24.482C8.3941 24.1966 9.06664 23.4205 10.0754 22.5987C11.0842 21.777 11.5166 22.9411 11.1563 23.6259C10.4958 24.3108 9.17472 26.057 9.17472 27.5636Z" fill="black" stroke="black" stroke-width="0.2"/>
<path d="M75.2834 102.799C75.3288 102.27 75.1596 101.754 74.7983 101.366C74.4379 100.977 73.9149 100.747 73.3592 100.726C72.8035 100.705 72.2648 100.896 71.8765 101.257C71.4873 101.618 71.2802 102.119 71.2861 102.65C71.2861 102.65 71.2861 102.65 71.2861 102.65C71.2911 103.075 71.2933 103.52 71.2975 103.957C71.1993 112.034 73.0638 120.111 76.0474 127.435C76.2103 127.84 76.3772 128.246 76.55 128.659C76.6237 128.834 76.7678 128.975 76.9458 129.053C77.124 129.131 77.3215 129.139 77.4997 129.074C77.6779 129.009 77.8238 128.875 77.9101 128.701C77.9961 128.527 78.0155 128.326 77.9591 128.145C77.9591 128.145 77.9591 128.145 77.9591 128.145C77.828 127.725 77.7031 127.312 77.5822 126.901C75.3508 119.422 74.3498 111.739 75.1696 104.105C75.2068 103.678 75.2462 103.236 75.2834 102.799Z" fill="black"/>
<path d="M72.7818 125.549C69.9412 125.549 67.5954 126.864 67.2381 128.566C67.1786 128.85 67.3133 129.133 67.574 129.259C69.5013 130.19 75.7358 130.583 78.0015 129.279C78.2525 129.135 78.3851 128.85 78.3256 128.566C77.9683 126.864 75.6224 125.549 72.7818 125.549Z" fill="black"/>
<path d="M28.1 19H96.1V102H28.1V19Z" fill="#AB95F0"/>
<path d="M67.0059 58.1326C66.0763 66.9232 55.0425 66.935 54.1566 58.3075C54.0954 57.7114 54.6256 57.2372 55.222 57.2957C59.293 57.6946 61.9572 57.5946 65.9442 57.1345C66.5411 57.0656 67.0691 57.5351 67.0059 58.1326Z" fill="black"/>
<path d="M57.0321 63.7831C59.3953 65.5581 62.9092 65.0351 64.0691 63.783C64.7687 63.0278 65.8284 62.0214 65.8288 61.581C63.111 60.2871 57.2972 61.2976 55.2726 62.0216C55.2726 62.0216 55.8594 62.9024 57.0321 63.7831Z" fill="#FE9CEE"/>
<rect x="38.5002" y="77.2266" width="44.8059" height="13.6775" fill="#7A5EF4"/>
<path d="M27.8817 18.7158C27.8817 17.7762 28.6435 17.0144 29.5832 17.0144H97.8917V20.4173H29.5832C28.6435 20.4173 27.8817 19.6555 27.8817 18.7158Z" fill="#7A5EF4"/>
<path d="M27.8817 8.50723C27.8817 7.56755 28.6435 6.80579 29.5832 6.80579H91.2241V10.2087H29.5832C28.6435 10.2087 27.8817 9.44691 27.8817 8.50723Z" fill="#7A5EF4"/>
<path d="M91.2241 6.80579C94.9065 6.80579 97.8917 9.79098 97.8917 13.4734V102.087H91.2241V6.80579Z" fill="#7A5EF4"/>
<path d="M28.5209 9.07349H88.9414C91.1505 9.07349 92.9414 10.8643 92.9414 13.0735V13.9895C92.9414 16.1986 91.1505 17.9895 88.9414 17.9895H28.5209V9.07349Z" fill="#F8F8F8"/>
<ellipse cx="72.4929" cy="44.5377" rx="5.50931" ry="4.31076" transform="scale(1.0006 0.999405) rotate(-90 72.4929 44.5377)" fill="black"/>
<ellipse cx="70.0306" cy="46.4338" rx="0.751382" ry="0.634594" transform="matrix(-0.0154959 -1.00037 0.999392 -0.0154959 24.7102 117.21)" fill="white"/>
<ellipse cx="1.35865" cy="1.10925" rx="1.35865" ry="1.10925" transform="matrix(-0.015185 -1.00012 0.999626 -0.0158129 72.6918 43.6145)" fill="white"/>
<ellipse cx="49.1367" cy="44.5377" rx="5.50931" ry="4.31076" transform="scale(1.0006 0.999405) rotate(-90 49.1367 44.5377)" fill="black"/>
<ellipse cx="46.6745" cy="46.4338" rx="0.751382" ry="0.634594" transform="matrix(-0.0154959 -1.00037 0.999392 -0.0154959 0.992181 93.845)" fill="white"/>
<ellipse cx="1.35865" cy="1.10925" rx="1.35865" ry="1.10925" transform="matrix(-0.015185 -1.00012 0.999626 -0.0158129 49.3358 43.6146)" fill="white"/>
<path d="M97.1045 54.3715C97.0892 54.2323 97.0322 54.0972 96.9329 53.9954C96.8336 53.8936 96.7018 53.8335 96.5633 53.8283C96.4248 53.823 96.2886 53.8728 96.1815 53.9668C96.0743 54.0607 96.0068 54.191 95.9805 54.3286C95.9805 54.3286 95.9805 54.3286 95.9805 54.3286C95.8226 55.1492 95.6904 56.0046 95.5835 56.8572C95.1581 60.2405 95.1173 63.6749 95.4509 67.0707C96.8917 78.2832 99.173 93.0597 111.822 97.4205C112.683 97.6364 113.546 97.7607 114.435 97.8041C114.581 97.8107 114.725 97.7641 114.838 97.6696C114.951 97.5751 115.022 97.4411 115.036 97.2963C115.05 97.1515 115.006 97.0066 114.914 96.8925C114.821 96.7784 114.688 96.7052 114.544 96.6841C113.733 96.5645 112.966 96.375 112.215 96.1107C101.534 91.4591 99.8281 77.7469 98.4362 66.7709C98.1135 63.4826 97.7587 60.1859 97.3834 56.8686C97.2901 56.0324 97.1969 55.1887 97.1045 54.3715Z" fill="black"/>
<path d="M114.34 93.3016C113.825 94.5399 113.051 95.3655 112.407 95.6234C111.978 96.1394 111.119 97.3261 113.696 97.9453C116.917 98.7192 117.561 97.1713 118.205 96.3974C118.527 96.0106 119.494 96.3974 121.426 96.3974C123.359 96.3974 123.359 95.6234 122.715 94.8495C122.07 94.0756 120.782 94.0756 120.138 94.0756C119.494 94.0756 118.205 94.8495 118.205 94.0756C118.205 93.3016 118.579 91.8622 120.782 90.9798L120.782 90.9797C122.715 90.2059 122.715 90.2058 122.715 89.4319C122.715 88.8128 121.426 88.658 120.782 88.658C121.212 88.4 120.782 87.884 119.494 87.884C116.917 87.884 114.984 91.7537 114.34 93.3016Z" fill="black"/>
<path d="M112.393 95.5886C112.403 95.6118 112.412 95.635 112.421 95.6583C113.088 95.3777 113.563 94.8041 113.942 94.2145C114.12 93.9321 114.273 93.6347 114.404 93.3281C115.405 91.1727 116.671 88.6286 119.071 88.0201C119.211 87.9963 119.351 87.984 119.494 87.984C119.811 87.9848 120.13 88.0128 120.422 88.1076C120.707 88.1896 121.01 88.4344 120.731 88.5726C120.637 88.6291 120.672 88.7576 120.782 88.7576C121.147 88.7597 121.518 88.7965 121.869 88.883C122.203 88.9675 122.616 89.1299 122.616 89.4319C122.614 89.6576 122.628 89.8846 122.515 90.0263C122.399 90.1742 122.19 90.2749 121.993 90.37C121.589 90.557 121.166 90.7201 120.746 90.8901C119.423 91.3877 118.103 92.5342 118.114 94.0756C118.114 94.1757 118.133 94.3004 118.223 94.393C118.313 94.4855 118.437 94.5065 118.536 94.5098C118.74 94.5126 118.922 94.4622 119.1 94.4143C119.454 94.3188 119.804 94.1761 120.138 94.1635C121.036 94.1598 122.056 94.2178 122.651 94.9024C122.947 95.239 123.22 95.7974 122.798 96.053C122.416 96.2946 121.903 96.3138 121.426 96.3214C120.882 96.3232 120.341 96.2913 119.799 96.2388C119.528 96.2136 119.258 96.1818 118.982 96.1641C118.717 96.1598 118.389 96.1022 118.153 96.3543C117.643 97.0534 117.096 97.7635 116.248 97.974C115.424 98.2023 114.544 98.09 113.708 97.896C113.248 97.7844 112.795 97.6469 112.411 97.3845C112.132 97.1968 111.915 96.8848 111.966 96.5453C112.009 96.2094 112.218 95.9127 112.436 95.6474C112.417 95.6314 112.398 95.6154 112.378 95.5994C112.155 95.867 111.934 96.1689 111.883 96.5353C111.823 96.909 112.067 97.263 112.359 97.4588C112.759 97.7369 113.219 97.8777 113.684 97.9945C114.528 98.1958 115.42 98.3197 116.28 98.0883C117.164 97.879 117.761 97.1143 118.257 96.4404C118.407 96.2663 118.714 96.2902 118.973 96.303C119.242 96.3218 119.513 96.355 119.785 96.3818C120.329 96.4374 120.877 96.4726 121.426 96.4734C121.916 96.4644 122.431 96.4639 122.888 96.1839C123.123 96.046 123.238 95.7132 123.154 95.4592C123.084 95.2022 122.936 94.9895 122.778 94.7966C122.11 94.0324 121.042 93.9913 120.138 93.9876C119.739 94.0039 119.402 94.1501 119.052 94.2411C118.731 94.3297 118.258 94.436 118.297 94.0756C118.29 92.6426 119.524 91.5549 120.818 91.0695C121.239 90.8999 121.66 90.7388 122.076 90.547C122.281 90.4453 122.5 90.355 122.671 90.1451C122.843 89.9152 122.806 89.6515 122.813 89.4319C122.818 89.1907 122.636 89.0037 122.466 88.9045C122.291 88.7994 122.105 88.7385 121.918 88.6906C121.543 88.5984 121.164 88.561 120.782 88.5583L120.833 88.7434C120.914 88.6943 121.001 88.6226 121.033 88.503C121.066 88.3814 121.009 88.2613 120.945 88.1898C120.811 88.0413 120.647 87.9742 120.485 87.918C120.159 87.8126 119.825 87.7853 119.494 87.784C119.34 87.784 119.188 87.7973 119.037 87.823C116.465 88.4947 115.26 91.0884 114.276 93.2752C114.153 93.5777 114.009 93.8718 113.84 94.1516C113.481 94.7358 113.024 95.3065 112.393 95.5886ZM112.421 95.6583L112.393 95.5886C112.389 95.5902 112.381 95.5963 112.378 95.5994L112.436 95.6474L112.421 95.6583Z" fill="black"/>
<ellipse cx="73.6439" cy="53.6404" rx="3.82155" ry="1.67174" fill="#7A5EF4"/>
<ellipse cx="47.8456" cy="53.6803" rx="3.82155" ry="1.67174" fill="#7A5EF4"/>
<path d="M52.4422 35.684C52.5661 35.375 52.6899 35.066 52.8138 34.757C52.6086 34.6842 52.4594 34.6595 52.307 34.629C49.6341 34.2631 46.6017 34.1003 44.4324 36.0333C44.3235 36.1456 44.2226 36.2647 44.1301 36.3913C44.2285 36.4688 44.3269 36.5463 44.4254 36.6238C44.5151 36.5177 44.6117 36.4191 44.7149 36.3268C46.7205 34.7428 49.6707 35.052 52.101 35.5752C52.2223 35.6071 52.3848 35.6549 52.4422 35.684Z" fill="black"/>
<path d="M70.1353 35.6679C69.9879 35.3697 69.8405 35.0714 69.6931 34.7732C69.8975 34.6821 70.038 34.6542 70.185 34.6179C72.7261 34.1668 75.5615 34.1358 77.625 35.8784C77.7319 35.9781 77.8325 36.0828 77.9277 36.194C77.8357 36.2793 77.7437 36.3646 77.6517 36.4499C77.5585 36.3564 77.4611 36.2694 77.3584 36.1872C75.4244 34.7586 72.6751 34.9709 70.4281 35.5553C70.3178 35.5894 70.1723 35.6424 70.1353 35.6679Z" fill="black"/>
<path d="M76.777 0V15.5545H86.9361V0L82.3183 3.38141L76.777 0Z" fill="#FEB301"/>
</svg>
