<svg width="100" height="111" viewBox="0 0 100 111" fill="none" xmlns="http://www.w3.org/2000/svg">
<ellipse cx="50.0025" cy="104.232" rx="29.7805" ry="6.03658" fill="#B19EFF" fill-opacity="0.4"/>
<path d="M43.883 83.0159C43.9359 82.4871 43.7732 81.9719 43.4118 81.5831C43.0515 81.1944 42.5221 80.9638 41.9589 80.9428C41.3958 80.9218 40.8506 81.1124 40.4624 81.4732C40.073 81.8341 39.8725 82.3356 39.8858 82.8669C39.894 83.2067 39.9028 83.5592 39.9148 83.9057C40.0457 90.3311 41.9721 96.4548 44.3546 102.1C44.4859 102.41 44.6208 102.724 44.7593 103.043C44.8344 103.215 44.9798 103.353 45.1571 103.429C45.3347 103.505 45.5298 103.513 45.7057 103.449C45.8816 103.384 46.0257 103.253 46.1127 103.08C46.1993 102.908 46.2216 102.709 46.1684 102.529C46.1684 102.529 46.1684 102.529 46.1684 102.529C46.0709 102.201 45.9772 101.878 45.8873 101.56C44.2355 95.7413 43.1822 89.8001 43.7885 84.0047C43.8176 83.6807 43.8499 83.3465 43.883 83.0159Z" fill="black"/>
<path d="M42.3136 101.051C40.0756 101.051 38.2192 102.065 37.8719 103.394C37.7987 103.674 37.9381 103.958 38.2031 104.075C39.8176 104.787 44.5833 105.077 46.4362 104.097C46.6922 103.962 46.8285 103.674 46.7553 103.394C46.408 102.065 44.5516 101.051 42.3136 101.051Z" fill="black"/>
<path d="M23.4082 49.8492C20.1403 50.3257 13.6 48.6883 9.54998 40.4205C4.63174 30.3802 5.53499 24.1858 5.20154 23.7093" stroke="black" stroke-width="2.5"/>
<path d="M7.40404 22.1853C7.40404 23.3979 6.67203 24.4623 6.24409 24.6657C5.9541 24.8035 5.9541 24.8035 4.64915 24.8035C2.32473 24.8035 1.67462 19.6967 1.60429 19.4294C1.45929 18.8782 0.239655 16.6654 0.154348 16.26C0.0093545 15.5711 0.154348 15.2955 0.589329 15.2955C1.02431 15.2955 2.18426 17.0868 2.61924 17.7758C2.96723 18.327 3.10255 18.0973 3.05422 17.7758L3.04978 17.7603C2.90057 17.2405 2.47425 15.7552 2.47425 14.8821C2.47425 13.7797 2.90923 13.7797 3.19922 13.7797C3.79704 13.7797 4.35917 16.1223 4.50416 17.0868C4.62016 17.8585 4.84248 17.684 4.93914 17.5002C4.98747 16.949 5.11313 15.7089 5.22913 15.1577C5.37412 14.4687 5.66411 13.9175 6.24409 13.9175C6.82406 13.9175 6.82406 15.1577 6.67907 15.9845C6.46158 17.2246 6.38908 18.7404 6.67907 19.705C6.77573 19.4753 7.31704 18.8506 8.129 18.1892C8.94097 17.5278 9.28895 18.4648 8.99897 19.016C8.46732 19.5672 7.40404 20.9727 7.40404 22.1853Z" fill="black" stroke="black" stroke-width="0.2"/>
<path d="M61.0033 82.7551C61.055 82.2262 60.8913 81.711 60.5299 81.3222C60.1696 80.9335 59.6411 80.7029 59.0792 80.682C58.5173 80.6611 57.9731 80.8516 57.5849 81.2125C57.1956 81.5733 56.994 82.0749 57.0061 82.6061C57.0061 82.6061 57.0061 82.6061 57.0061 82.6061C57.0142 82.947 57.0201 83.3051 57.0275 83.6579C57.0189 90.2028 58.6038 96.742 61.0786 102.622C61.2138 102.947 61.3522 103.273 61.4954 103.605C61.5703 103.777 61.7154 103.916 61.8928 103.992C62.0706 104.068 62.266 104.076 62.4423 104.012C62.6185 103.948 62.7629 103.816 62.8498 103.643C62.9363 103.47 62.9582 103.271 62.9045 103.091C62.9045 103.091 62.9045 103.091 62.9045 103.091C62.803 102.752 62.7066 102.419 62.6134 102.088C60.8907 96.0527 60.1694 89.907 60.8996 83.8062C60.9336 83.4633 60.9693 83.108 61.0033 82.7551Z" fill="black"/>
<path d="M58.5999 101.051C56.3619 101.051 54.5055 102.065 54.1582 103.393C54.0849 103.674 54.2244 103.958 54.4893 104.075C56.1038 104.787 60.8695 105.077 62.7225 104.097C62.9784 103.962 63.1148 103.674 63.0415 103.393C62.6942 102.065 60.8378 101.051 58.5999 101.051Z" fill="black"/>
<path d="M22.4644 15.6493H77.6583V81.8981H22.4644V15.6493Z" fill="#AB95F0"/>
<path d="M52.9168 47.2683C49.9616 50.7562 45.7892 48.7081 44.5955 46.8599C44.2959 46.396 44.7126 45.928 45.2649 45.924L52.1704 45.8739C52.9325 45.8684 53.4096 46.6867 52.9168 47.2683Z" fill="black"/>
<path d="M46.7115 48.7042C48.0816 49.52 50.6152 49.1883 51.5081 48.6099C52.0466 48.261 52.3264 48.021 52.4461 47.852C50.3541 47.2543 47.002 47.5534 45.4436 47.8878C45.4436 47.8878 45.6762 48.0878 46.7115 48.7042Z" fill="#FE9CEE"/>
<rect x="31.0076" y="62.1579" width="36.0633" height="11.0087" fill="#7A5EF4"/>
<path d="M22.4608 15.064C22.4608 14.3077 23.0739 13.6945 23.8303 13.6945H78.8103V16.4334H23.8303C23.0739 16.4334 22.4608 15.8203 22.4608 15.064Z" fill="#7A5EF4"/>
<path d="M22.4608 6.84725C22.4608 6.09093 23.0739 5.4778 23.8303 5.4778H73.4436V8.21671H23.8303C23.0739 8.21671 22.4608 7.60358 22.4608 6.84725Z" fill="#7A5EF4"/>
<path d="M73.4437 5.4778C76.4076 5.4778 78.8103 7.88052 78.8103 10.8444V82.1672H73.4437V5.4778Z" fill="#7A5EF4"/>
<path d="M22.9751 7.30302H71.2376C73.2192 7.30302 74.8257 8.90948 74.8257 10.8912C74.8257 12.8728 73.2192 14.4793 71.2376 14.4793H22.9751V7.30302Z" fill="#F8F8F8"/>
<ellipse cx="57.5629" cy="35.8473" rx="4.43432" ry="3.46963" transform="scale(1.0006 0.999405) rotate(-90 57.5629 35.8473)" fill="black"/>
<ellipse cx="55.5813" cy="37.3735" rx="0.60477" ry="0.51077" transform="matrix(-0.0154959 -1.00037 0.999392 -0.0154959 19.0918 93.5544)" fill="white"/>
<ellipse cx="1.09354" cy="0.892808" rx="1.09354" ry="0.892808" transform="matrix(-0.015185 -1.00012 0.999626 -0.0158129 57.7231 35.1043)" fill="white"/>
<ellipse cx="40.3733" cy="35.8474" rx="4.43432" ry="3.46963" transform="scale(1.0006 0.999405) rotate(-90 40.3733 35.8474)" fill="black"/>
<ellipse cx="38.3917" cy="37.3735" rx="0.60477" ry="0.51077" transform="matrix(-0.0154959 -1.00037 0.999392 -0.0154959 1.63584 76.3585)" fill="white"/>
<ellipse cx="1.09354" cy="0.892808" rx="1.09354" ry="0.892808" transform="matrix(-0.015185 -1.00012 0.999626 -0.0158129 40.5336 35.1044)" fill="white"/>
<path d="M78.2864 43.7666C78.2664 43.6297 78.2084 43.4969 78.1096 43.3969C78.0108 43.2968 77.881 43.2378 77.7448 43.2326C77.6087 43.2274 77.4746 43.2764 77.3682 43.3686C77.2616 43.4608 77.1932 43.5887 77.1624 43.7237C77.1624 43.7237 77.1624 43.7237 77.1624 43.7237C77.0109 44.3845 76.8825 45.0741 76.777 45.7619C76.3564 48.4915 76.285 51.2692 76.5546 54.0129C77.719 63.0607 79.6113 75.0577 89.9846 78.5393C90.6884 78.7083 91.392 78.802 92.1153 78.8296C92.2601 78.8344 92.404 78.7875 92.5159 78.693C92.6278 78.5986 92.6985 78.4654 92.7125 78.3214C92.7265 78.1775 92.6828 78.0333 92.5912 77.9195C92.4995 77.8056 92.3673 77.7323 92.2242 77.7096C92.2242 77.7096 92.2242 77.7096 92.2242 77.7096C91.5792 77.6058 90.9711 77.447 90.3773 77.2295C81.9721 73.4572 80.6554 62.5244 79.5399 53.7132C79.2812 51.0769 78.957 48.437 78.5768 45.7733C78.4822 45.1019 78.3852 44.424 78.2864 43.7666Z" fill="black"/>
<path d="M92.049 75.0963C91.6341 76.093 91.0119 76.7575 90.4934 76.9651C90.1477 77.3804 89.4564 78.3356 91.5304 78.8339C94.123 79.4568 94.6415 78.211 95.16 77.588C95.4192 77.2768 96.1971 77.588 97.7526 77.588C99.3082 77.588 99.3081 76.9651 98.7896 76.3422C98.2711 75.7193 97.2341 75.7193 96.7156 75.7193C96.1971 75.7193 95.16 76.3422 95.16 75.7193C95.16 75.0963 95.4605 73.9378 97.2341 73.2276L97.2342 73.2275C98.7896 72.6046 98.7896 72.6046 98.7896 71.9817C98.7896 71.4834 97.7526 71.3588 97.2341 71.3588C97.5798 71.1511 97.2341 70.7358 96.1971 70.7358C94.123 70.7358 92.5675 73.8505 92.049 75.0963Z" fill="black"/>
<path d="M90.4794 76.9303C90.4887 76.9535 90.498 76.9767 90.5073 76.9999C91.0474 76.7743 91.432 76.3123 91.7389 75.8372C91.8827 75.6097 92.0066 75.37 92.1125 75.1228C92.9204 73.3911 93.9455 71.3482 95.8599 70.8646C95.9714 70.8456 96.0836 70.8359 96.1971 70.8358C96.4509 70.8364 96.7063 70.859 96.9384 70.9343C97.1689 71.0056 97.3844 71.1753 97.1828 71.2734C97.0887 71.3299 97.1244 71.4584 97.2341 71.4584C97.5259 71.46 97.8236 71.4896 98.1045 71.5587C98.3725 71.6251 98.6948 71.7596 98.691 71.9817C98.6896 72.1639 98.6992 72.3431 98.6134 72.4485C98.5256 72.5615 98.3587 72.6435 98.2007 72.7195C97.8767 72.8696 97.5359 73.001 97.1982 73.1379C96.1301 73.5395 95.0596 74.4681 95.0685 75.7193C95.0688 75.8019 95.0839 75.9074 95.1612 75.9871C95.2394 76.0667 95.3438 76.0837 95.4256 76.0864C95.5943 76.0886 95.7406 76.0475 95.8852 76.0088C96.1704 75.9315 96.4528 75.817 96.7156 75.8072C97.4376 75.8035 98.2541 75.8519 98.7261 76.3951C98.9638 76.6666 99.1744 77.1015 98.8482 77.2981C98.5474 77.4888 98.1347 77.5061 97.7526 77.512C97.3152 77.5138 96.8801 77.4884 96.4444 77.4465C96.226 77.4263 96.0087 77.4009 95.7861 77.3867C95.5727 77.3841 95.3065 77.3345 95.1083 77.545C94.696 78.1101 94.2604 78.6763 93.5814 78.8458C92.9218 79.0293 92.2147 78.94 91.5423 78.7846C91.1732 78.6953 90.8088 78.585 90.5018 78.3753C90.2777 78.225 90.1063 77.978 90.1463 77.7081C90.1801 77.4407 90.3468 77.2024 90.5222 76.9891C90.503 76.9731 90.4838 76.9571 90.4645 76.9411C90.2847 77.1567 90.1054 77.4002 90.0638 77.698C90.014 78.0022 90.2136 78.2912 90.4492 78.4496C90.7735 78.6749 91.1439 78.7886 91.5186 78.8832C92.1984 79.0459 92.918 79.1468 93.6135 78.9602C94.329 78.7919 94.8137 78.1711 95.2118 77.6311C95.49 77.4018 96.0121 77.5693 96.4304 77.5894C96.8685 77.6345 97.3096 77.6632 97.7526 77.6641C98.1481 77.6567 98.5632 77.6581 98.9383 77.429C99.1313 77.3165 99.2279 77.0371 99.1583 76.8289C99.1014 76.618 98.9808 76.4457 98.8531 76.2893C98.3082 75.6664 97.4443 75.635 96.7156 75.6313C96.3882 75.6448 96.1179 75.7628 95.8373 75.8356C95.5741 75.9075 95.2178 75.986 95.2515 75.7193C95.2466 74.5764 96.2314 73.7068 97.27 73.3172C97.6088 73.1808 97.9476 73.0513 98.2839 72.8964C98.4493 72.814 98.6268 72.7423 98.7699 72.5673C98.9135 72.3737 98.8822 72.1579 98.8883 71.9817C98.8922 71.7782 98.7384 71.6217 98.5996 71.5407C98.456 71.4545 98.3045 71.4051 98.153 71.3662C97.8493 71.2915 97.5431 71.2613 97.2341 71.2591L97.2854 71.4442C97.3523 71.4032 97.4267 71.343 97.4552 71.2389C97.484 71.1329 97.4336 71.0291 97.3802 70.9693C97.2673 70.8446 97.1333 70.7907 97.0012 70.7447C96.7353 70.6588 96.4649 70.6369 96.1971 70.6359C96.0721 70.6359 95.9486 70.6466 95.8263 70.6675C93.7394 71.2143 92.7752 73.3068 91.9854 75.0699C91.8872 75.313 91.7715 75.5494 91.6367 75.7743C91.3497 76.244 90.9832 76.7031 90.4794 76.9303ZM90.5073 76.9999L90.4794 76.9303C90.4756 76.9319 90.4672 76.9379 90.4645 76.9411L90.5222 76.9891L90.5073 76.9999Z" fill="black"/>
<ellipse cx="57.6842" cy="43.1739" rx="3.07588" ry="1.34555" fill="#7A5EF4"/>
<ellipse cx="40.1392" cy="43.2061" rx="3.07588" ry="1.34555" fill="#7A5EF4"/>
<path d="M42.9976 28.8117C43.1214 28.5027 43.2453 28.1937 43.3692 27.8847C43.1896 27.8218 43.0708 27.8042 42.9451 27.7798C40.7701 27.5006 38.3214 27.3838 36.5594 28.9737C36.4712 29.066 36.3895 29.1639 36.3148 29.2679C36.4132 29.3454 36.5116 29.4229 36.6101 29.5004C36.6821 29.417 36.7593 29.3396 36.8418 29.2672C38.4401 28.0264 40.8067 28.2895 42.7391 28.726C42.8337 28.7518 42.9657 28.7925 42.9976 28.8117Z" fill="black"/>
<path d="M55.7079 28.7956C55.5605 28.4973 55.4131 28.1991 55.2658 27.9009C55.4466 27.8211 55.5592 27.8011 55.681 27.7717C57.755 27.4216 60.0456 27.4144 61.719 28.8476C61.8055 28.9295 61.8868 29.0155 61.9637 29.1068C61.8717 29.1921 61.7796 29.2774 61.6876 29.3627C61.6129 29.2891 61.5348 29.2208 61.4525 29.1564C59.9085 28.0371 57.704 28.2257 55.9241 28.7091C55.839 28.7363 55.7214 28.7815 55.7079 28.7956Z" fill="black"/>
<path d="M61.8157 0V12.5195H69.9926V0L66.2758 2.72162L61.8157 0Z" fill="#FEB301"/>
</svg>
