<svg width="118" height="160" viewBox="0 0 118 160" fill="none" xmlns="http://www.w3.org/2000/svg">
<ellipse cx="59.6" cy="154.5" rx="31.5" ry="5.5" fill="#DBD7F4"/>
<path d="M41.6006 122C38.3179 125.13 33.1005 131 42.6005 143" stroke="black" stroke-width="2.5" stroke-linecap="round" stroke-linejoin="round"/>
<path fill-rule="evenodd" clip-rule="evenodd" d="M42.324 141.553C42.8351 141.808 43.5842 142.221 44.1629 142.629C44.4458 142.828 44.7231 143.05 44.905 143.271C44.9934 143.379 45.0957 143.529 45.1365 143.71C45.1842 143.922 45.1403 144.16 44.9607 144.345C44.9454 144.397 44.9259 144.449 44.8972 144.498C43.7135 146.502 38.8809 148.967 36.9588 149.163C36.6707 149.192 36.4092 149.018 36.323 148.741C35.8661 147.275 37.0674 145.233 39.2244 143.958C40.0126 143.492 40.8295 143.189 41.6004 143.044V141.191L42.324 141.553Z" fill="black"/>
<path d="M25.9174 84.9524C22.2978 85.4802 15.0534 83.6665 10.5674 74.5086C5.11965 63.3875 6.12015 56.5262 5.75079 55.9984" stroke="black" stroke-width="2.5"/>
<path d="M8.19038 54.3105C8.19038 55.6537 7.37957 56.8327 6.90555 57.0579C6.58435 57.2105 6.58435 57.2105 5.13892 57.2105C2.56426 57.2105 1.84417 51.554 1.76626 51.2579C1.60566 50.6474 0.254723 48.1964 0.160232 47.7474C-0.000370719 46.9842 0.160232 46.6789 0.642041 46.6789C1.12385 46.6789 2.40867 48.6632 2.89048 49.4263C3.27593 50.0368 3.42582 49.7825 3.37229 49.4263L3.36737 49.4092C3.20209 48.8333 2.72988 47.1881 2.72988 46.2211C2.72988 45 3.21169 45 3.53289 45C4.19508 45 4.81772 47.5947 4.97832 48.6632C5.1068 49.5179 5.35306 49.3246 5.46013 49.1211C5.51366 48.5105 5.65285 47.1368 5.78133 46.5263C5.94194 45.7632 6.26314 45.1526 6.90556 45.1526C7.54797 45.1526 7.54797 46.5263 7.38736 47.4421C7.14646 48.8158 7.06616 50.4947 7.38736 51.5632C7.49443 51.3088 8.09402 50.6168 8.99339 49.8842C9.89277 49.1516 10.2782 50.1895 9.95701 50.8C9.36813 51.4105 8.19038 52.9674 8.19038 54.3105Z" fill="black" stroke="black" stroke-width="0.2"/>
<path d="M65.3458 121.582C65.1848 125.902 67.6 134.5 82.1 134" stroke="black" stroke-width="2.5" stroke-linecap="round" stroke-linejoin="round"/>
<path fill-rule="evenodd" clip-rule="evenodd" d="M84.1129 132.387C84.2648 132.379 84.4365 132.378 84.5856 132.412C84.6586 132.428 84.7728 132.463 84.8776 132.545C85.0013 132.643 85.1003 132.802 85.1003 133.001C85.1002 133.029 85.0974 133.059 85.0954 133.09C85.1645 133.174 85.2143 133.274 85.236 133.386C85.6784 135.671 83.6954 140.721 82.3864 142.142C82.1903 142.355 81.8783 142.398 81.6305 142.249C80.3166 141.454 79.8618 139.128 80.6315 136.744C80.867 136.014 81.1931 135.357 81.5749 134.798L80.1003 134.377V133.067L80.5299 133.005C81.1076 132.923 82.0519 132.707 82.9489 132.545C83.3772 132.468 83.7951 132.404 84.1129 132.387ZM81.7292 133.802L82.2682 133.956C82.385 133.838 82.5031 133.728 82.6247 133.627C82.3291 133.685 82.0213 133.744 81.7292 133.802Z" fill="black"/>
<path d="M24.872 47.3341H86.0078V120.715H24.872V47.3341Z" fill="#AB95F0"/>
<path d="M39.1 70.5C39.2667 69 40.3 66 43.1 66C45.9 66 46.9333 69 47.1 70.5" stroke="black" stroke-width="1.5" stroke-linecap="round"/>
<path d="M61.1 70.5C61.2667 69 62.3 66 65.1 66C67.9 66 68.9333 69 69.1 70.5" stroke="black" stroke-width="1.5" stroke-linecap="round"/>
<path d="M62.0243 78.1677C61.2038 93.4746 45.8859 93.4891 45.1293 78.4619C45.0985 77.8506 45.6465 77.3678 46.253 77.4448C51.8655 78.1572 55.4129 77.9815 60.9099 77.1733C61.5149 77.0844 62.057 77.5576 62.0243 78.1677Z" fill="black"/>
<path d="M48.9343 88.1043C52.0246 91.01 56.6198 90.1538 58.1366 88.1041C59.0514 86.8679 60.4371 85.2204 60.4376 84.4993C56.8837 82.3813 49.281 84.0355 46.6335 85.2206C46.6335 85.2206 47.4008 86.6625 48.9343 88.1043Z" fill="#FE9CEE"/>
<rect x="33.3349" y="98.8495" width="39.9456" height="12.1939" fill="#7A5EF4"/>
<path d="M24.8681 46.6857C24.8681 45.848 25.5472 45.1688 26.385 45.1688H87.2838V48.2026H26.385C25.5472 48.2026 24.8681 47.5235 24.8681 46.6857Z" fill="#7A5EF4"/>
<path d="M24.8681 37.5845C24.8681 36.7468 25.5472 36.0676 26.385 36.0676H81.3394V39.1014H26.385C25.5472 39.1014 24.8681 38.4223 24.8681 37.5845Z" fill="#7A5EF4"/>
<path d="M81.3395 36.0676C84.6225 36.0676 87.2839 38.729 87.2839 42.012V121.013H81.3395V36.0676Z" fill="#7A5EF4"/>
<path d="M25.4381 38.0894H78.8963C81.0913 38.0894 82.8707 39.8688 82.8707 42.0638C82.8707 44.2588 81.0913 46.0382 78.8963 46.0382H25.4381V38.0894Z" fill="#F8F8F8"/>
<path d="M85.1 84.9524C88.7197 85.4802 95.9641 83.6665 100.45 74.5086C105.898 63.3875 104.897 56.5262 105.267 55.9984" stroke="black" stroke-width="2.5" stroke-linecap="round"/>
<path d="M102.827 54.3105C102.827 55.6537 103.638 56.8327 104.112 57.0579C104.433 57.2105 104.433 57.2105 105.878 57.2105C108.453 57.2105 109.173 51.554 109.251 51.2579C109.412 50.6474 110.763 48.1964 110.857 47.7474C111.018 46.9842 110.857 46.6789 110.375 46.6789C109.894 46.6789 108.609 48.6632 108.127 49.4263C107.741 50.0368 107.592 49.7825 107.645 49.4263L107.65 49.4092C107.815 48.8333 108.288 47.1881 108.288 46.2211C108.288 45 107.806 45 107.485 45C106.822 45 106.2 47.5947 106.039 48.6632C105.911 49.5179 105.664 49.3246 105.557 49.1211C105.504 48.5105 105.365 47.1368 105.236 46.5263C105.075 45.7632 104.754 45.1526 104.112 45.1526C103.469 45.1526 103.469 46.5263 103.63 47.4421C103.871 48.8158 103.951 50.4947 103.63 51.5632C103.523 51.3088 102.923 50.6168 102.024 49.8842C101.125 49.1516 100.739 50.1895 101.06 50.8C101.649 51.4105 102.827 52.9674 102.827 54.3105Z" fill="black" stroke="black" stroke-width="0.2"/>
<ellipse cx="67.8832" cy="77.8217" rx="3.40701" ry="1.4904" fill="#7A5EF4"/>
<ellipse cx="38.4496" cy="77.8573" rx="3.40701" ry="1.4904" fill="#7A5EF4"/>
<path d="M44.2129 60.5386C44.2916 60.2151 44.3703 59.8916 44.4489 59.5682C44.2412 59.5271 44.1105 59.5304 43.9666 59.5269C41.5405 59.615 39.0786 60.1694 37.2651 61.8253C37.1691 61.9189 37.0761 62.017 36.988 62.1184C37.0794 62.2042 37.1707 62.29 37.2621 62.3758C37.3504 62.2895 37.4429 62.2064 37.538 62.1277C39.3021 60.7415 41.7501 60.3931 43.9269 60.4946C44.0355 60.5041 44.1775 60.5235 44.2129 60.5386Z" fill="black"/>
<path d="M64.7316 60.7337C64.6421 60.4133 64.5525 60.0929 64.463 59.7725C64.6842 59.7211 64.8118 59.7306 64.9524 59.7303C67.2749 59.9143 69.4389 60.6725 71.1686 62.1261C71.2618 62.2084 71.3533 62.2937 71.4415 62.3812C71.3569 62.474 71.2722 62.5667 71.1876 62.6594C71.0979 62.5846 71.0054 62.5122 70.9114 62.4428C69.2022 61.2223 66.9751 60.6801 64.9618 60.6991C64.8656 60.7046 64.7382 60.724 64.7316 60.7337Z" fill="black"/>
<path d="M68.4596 30V43.8672H77.5168V30L73.3999 33.0146L68.4596 30Z" fill="#FEB301"/>
<path d="M96.1 34.5L103.6 29M99.6 20.5L94.1 30" stroke="#FEB301" stroke-width="2" stroke-linecap="round"/>
<path d="M83.1 0L85.0799 5.0201L90.1 7L85.0799 8.9799L83.1 14L81.1201 8.9799L76.1 7L81.1201 5.0201L83.1 0Z" fill="#7A5EF4"/>
<path d="M53.1 17L54.5142 20.5858L58.1 22L54.5142 23.4142L53.1 27L51.6858 23.4142L48.1 22L51.6858 20.5858L53.1 17Z" fill="#7A5EF4"/>
<path d="M114.6 30L115.307 31.7929L117.1 32.5L115.307 33.2071L114.6 35L113.893 33.2071L112.1 32.5L113.893 31.7929L114.6 30Z" fill="#7A5EF4"/>
<path d="M28.1 0L29.5142 3.58579L33.1 5L29.5142 6.41421L28.1 10L26.6858 6.41421L23.1 5L26.6858 3.58579L28.1 0Z" fill="#7A5EF4"/>
<path d="M20.6 18.5L22.6 25.5M6.10001 15L17.1 27.5M7.60001 29L15.1 33" stroke="#FEB301" stroke-width="2" stroke-linecap="round"/>
</svg>
