<svg width="114" height="184" viewBox="0 0 114 184" fill="none" xmlns="http://www.w3.org/2000/svg">
<ellipse cx="61.25" cy="177.5" rx="48" ry="6.5" fill="#DAD8F0"/>
<path d="M47.1704 139.986C47.2098 139.456 47.0353 138.941 46.6742 138.552C46.3136 138.163 45.7959 137.933 45.2463 137.913C44.6966 137.892 44.1632 138.083 43.7748 138.444C43.3857 138.805 43.1733 139.306 43.1732 139.837C43.1732 139.837 43.1732 139.837 43.1732 139.837C43.1728 140.407 43.1735 140.995 43.1796 141.572C43.1473 152.194 46.0971 162.461 49.865 172.044C50.0724 172.57 50.2857 173.103 50.5053 173.644C50.5777 173.821 50.7209 173.965 50.8994 174.044C51.0781 174.123 51.2776 174.132 51.4578 174.066C51.638 174 51.7852 173.865 51.871 173.69C51.9565 173.514 51.9735 173.312 51.9144 173.129C51.9144 173.129 51.9144 173.129 51.9144 173.129C51.7358 172.579 51.5637 172.038 51.3977 171.504C48.3605 161.748 46.2838 151.663 47.0534 141.671C47.0883 141.117 47.1286 140.547 47.1704 139.986Z" fill="black"/>
<path d="M45.8953 170.46C41.9499 170.46 38.7074 172.329 38.3393 174.718C38.2952 175.004 38.4251 175.285 38.6798 175.423C41.1498 176.76 50.1148 177.348 53.1219 175.441C53.3664 175.286 53.4955 175.004 53.4514 174.718C53.0833 172.329 49.8408 170.46 45.8953 170.46Z" fill="black"/>
<path d="M70.6873 139.546C70.6487 139.016 70.8237 138.501 71.1849 138.112C71.5454 137.723 72.0625 137.493 72.6114 137.473C73.1604 137.452 73.6932 137.643 74.0816 138.004C74.4707 138.365 74.6837 138.866 74.6845 139.397C74.6845 139.397 74.6845 139.397 74.6845 139.397C74.6853 139.976 74.6897 140.579 74.6915 141.171C74.9538 152.059 72.5768 162.954 68.6605 172.926C68.4468 173.477 68.2278 174.03 68.0006 174.591C67.9283 174.769 67.7853 174.913 67.6067 174.993C67.4279 175.072 67.2282 175.08 67.0478 175.014C66.8673 174.949 66.7199 174.814 66.6343 174.638C66.5488 174.462 66.5321 174.26 66.5915 174.077C66.5915 174.077 66.5915 174.077 66.5915 174.077C66.777 173.508 66.9541 172.949 67.1256 172.392C70.2899 162.265 71.8033 151.763 70.8193 141.319C70.7762 140.737 70.7302 140.137 70.6873 139.546Z" fill="black"/>
<path d="M73.3688 170.46C77.3143 170.46 80.5567 172.329 80.9249 174.718C80.969 175.004 80.8391 175.285 80.5844 175.423C78.1143 176.76 69.1493 177.348 66.1423 175.441C65.8978 175.286 65.7686 175.004 65.8127 174.718C66.1809 172.329 69.4233 170.46 73.3688 170.46Z" fill="black"/>
<path d="M12.4126 26.3983H105.518V138.151H12.4126V26.3983Z" fill="#AB95F0"/>
<path d="M49.1868 76.5C51.8534 79.8333 58.6868 84.6 64.6868 77" stroke="black" stroke-width="2" stroke-linecap="round"/>
<path d="M12.4067 25.1008C12.4067 23.9963 13.3022 23.1008 14.4067 23.1008H107.461V27.721H14.4067C13.3022 27.721 12.4067 26.8256 12.4067 25.721V25.1008Z" fill="#7A5EF4"/>
<path d="M12.4067 11.2403C12.4067 10.1358 13.3022 9.24033 14.4067 9.24033H98.4081V13.8605H14.4067C13.3022 13.8605 12.4067 12.9651 12.4067 11.8605V11.2403Z" fill="#7A5EF4"/>
<path d="M98.4082 9.24033H100.461C104.327 9.24033 107.461 12.3743 107.461 16.2403V138.605H98.4082V9.24033Z" fill="#7A5EF4"/>
<path d="M13.2744 12.3192H96.7395C98.9487 12.3192 100.74 14.11 100.74 16.3192V20.4246C100.74 22.6337 98.9487 24.4246 96.7396 24.4246H13.2744V12.3192Z" fill="#F8F8F8"/>
<ellipse cx="71.6187" cy="61.4837" rx="6.58762" ry="5.85281" transform="scale(0.996892 1.00312) rotate(-90 71.6187 61.4837)" fill="black"/>
<ellipse cx="68.2778" cy="62.7508" rx="0.957374" ry="0.810574" transform="matrix(-0.0154959 -0.997327 1.00244 -0.0154959 6.43191 131.819)" fill="white"/>
<ellipse cx="1.6273" cy="1.50391" rx="1.6273" ry="1.50391" transform="matrix(-0.0172133 -0.998442 1.00105 -0.013946 70.7427 66.2915)" fill="white"/>
<ellipse cx="42.6228" cy="61.4837" rx="6.58762" ry="5.85281" transform="scale(0.996892 1.00312) rotate(-90 42.6228 61.4837)" fill="black"/>
<ellipse cx="39.5122" cy="61.9697" rx="0.957374" ry="0.810574" transform="matrix(-0.0154959 -0.997327 1.00244 -0.0154959 -21.9965 102.337)" fill="white"/>
<ellipse cx="1.6273" cy="1.50391" rx="1.6273" ry="1.50391" transform="matrix(-0.0172133 -0.998442 1.00105 -0.013946 41.7427 66.2915)" fill="white"/>
<ellipse cx="75.8236" cy="72.8287" rx="5.18861" ry="2.26976" fill="#7A5EF4"/>
<ellipse cx="39.2274" cy="72.8829" rx="5.18861" ry="2.26976" fill="#7A5EF4"/>
<path d="M43.8686 45.5016C43.9024 45.1705 43.9362 44.8393 43.97 44.5081C43.7025 44.4902 43.4952 44.5105 43.2901 44.526C39.6988 45.0108 35.6874 45.905 33.5914 49.1722C33.4914 49.3558 33.404 49.5453 33.3302 49.7416C33.4462 49.789 33.5622 49.8363 33.6782 49.8837C33.755 49.7079 33.8438 49.5392 33.9439 49.3764C35.9788 46.4899 39.9516 45.7589 43.3531 45.4923C43.5287 45.4867 43.7552 45.485 43.8686 45.5016Z" fill="black"/>
<path d="M71.6259 45.5359C71.5696 45.2081 71.5132 44.8802 71.4569 44.5524C71.726 44.5156 71.9218 44.5295 72.1207 44.5376C75.5588 44.8952 79.2556 45.9158 81.2611 48.9212C81.3619 49.0891 81.4527 49.261 81.5342 49.4395C81.4217 49.4951 81.3092 49.5507 81.1967 49.6062C81.1122 49.4453 81.0194 49.2912 80.9177 49.1413C78.9467 46.4737 75.2809 45.6515 72.0868 45.5054C71.9237 45.5057 71.716 45.5144 71.6259 45.5359Z" fill="black"/>
<path d="M78.7927 0V21.1187H92.586V0L86.3164 4.59102L78.7927 0Z" fill="#FEB301"/>
<path d="M29.1868 91.641V88C30.5463 88.1088 31.8822 88.3003 33.1868 88.5586V85C40.3534 87.3333 54.1868 93.5 56.1868 99.5H54.6868L53.1868 100.5C47.5201 97.8333 34.1868 92.141 29.1868 91.641Z" fill="white"/>
<path d="M33.3367 88.023C33.2107 87.9816 33.074 87.9923 32.9564 88.0537C32.8389 88.115 32.75 88.2219 32.7098 88.3501C32.6695 88.4782 32.6812 88.6168 32.7425 88.7343C32.8038 88.8519 32.9098 88.9389 33.0369 88.977C33.0369 88.977 33.0369 88.977 33.0369 88.977C33.4146 89.0903 33.8023 89.2102 34.195 89.3348C41.0385 91.6662 48.2083 94.0292 53.7479 98.7229C54.0326 99.0018 54.3041 99.3013 54.5351 99.6103C54.5645 99.6496 54.6086 99.6757 54.6575 99.6831C54.7064 99.6905 54.7559 99.6786 54.7956 99.6497C54.8353 99.6208 54.862 99.5773 54.87 99.5286C54.878 99.4798 54.8668 99.4298 54.8384 99.3897C54.8384 99.3897 54.8384 99.3897 54.8384 99.3897C54.6013 99.0548 54.3246 98.7341 54.036 98.4365C48.4529 93.4647 41.3548 90.9557 34.4997 88.4152C34.1059 88.2793 33.7168 88.1479 33.3367 88.023Z" fill="#DED7FC"/>
<path d="M83.6868 92.141V88.5C82.3272 88.6088 80.9913 88.8003 79.6868 89.0586V85.5C72.5201 87.8333 58.6868 94 56.6868 100H58.1868L60.1868 100.5C65.8534 97.8333 78.6868 92.641 83.6868 92.141Z" fill="white"/>
<path d="M80.0369 88.023C80.1628 87.9816 80.2995 87.9923 80.4171 88.0537C80.5347 88.115 80.6235 88.2219 80.6638 88.3501C80.704 88.4782 80.6924 88.6168 80.631 88.7343C80.5697 88.8519 80.4637 88.9389 80.3367 88.977C80.3367 88.977 80.3367 88.977 80.3367 88.977C79.9589 89.0903 79.5713 89.2102 79.1785 89.3348C72.335 91.6662 65.1652 94.0292 59.6256 98.7229C59.3409 99.0018 59.0695 99.3013 58.8384 99.6103C58.809 99.6496 58.7649 99.6757 58.716 99.6831C58.6672 99.6905 58.6176 99.6786 58.5779 99.6497C58.5382 99.6208 58.5115 99.5773 58.5035 99.5286C58.4955 99.4798 58.5068 99.4298 58.5351 99.3897C58.5351 99.3897 58.5351 99.3897 58.5351 99.3897C58.7722 99.0548 59.049 98.7341 59.3375 98.4365C64.9206 93.4647 72.0187 90.9557 78.8739 88.4152C79.2676 88.2793 79.6568 88.1479 80.0369 88.023Z" fill="#DED7FC"/>
<path d="M58.6868 99.5H54.1868C53.6345 99.5 53.1868 99.9477 53.1868 100.5V129.5C53.1868 130.052 53.6345 130.5 54.1868 130.5H58.6868C59.2391 130.5 59.6868 130.052 59.6868 129.5V100.5C59.6868 99.9477 59.2391 99.5 58.6868 99.5Z" fill="#917ECE"/>
<path d="M87.1868 91.5C81.8325 90.5265 67.3168 95.8711 60.247 99.2304C59.9017 99.3944 59.6868 99.7425 59.6868 100.125V130.344C62.8868 127.544 78.3534 125.333 85.1868 124.5L87.1868 91.5Z" fill="#E5DEFF"/>
<path d="M25.6868 91.6166C31.0411 90.6431 45.5567 95.9878 52.6265 99.347C52.9718 99.5111 53.1868 99.8592 53.1868 100.241V130.46C49.9868 127.66 34.5201 125.45 27.6868 124.617L25.6868 91.6166Z" fill="#E5DEFF"/>
<path d="M66.1868 103.5C69.0201 102.167 75.7868 99.6 80.1868 100" stroke="black" stroke-linecap="round"/>
<path d="M66.1868 107.5C68.6153 105.994 75.1868 104 79.1868 104" stroke="black" stroke-linecap="round"/>
<path d="M11.3035 85C4.13683 93.1667 -4.3206 111.291 6.18685 115C14.6868 118 24.1866 114.833 25.6866 112.5" stroke="black" stroke-width="2.5" stroke-linecap="round"/>
<path d="M26.1868 104C24.5868 104 22.2538 111.5 22.754 112.5C23.254 114.5 28.7118 115 30.2118 115C31.7118 115 33.754 114.5 34.754 114C35.554 113.6 35.0873 112.667 34.754 112.5C33.9206 112.167 31.3271 113.037 30.2537 112.5C29.2535 112 30.2535 112 30.7537 112C31.9204 111.833 34.5486 111.378 35.2537 111C36.1867 110.5 36.7044 109 35.1868 109C33.662 109 30.6118 109.999 30.2118 109.999C29.8118 109.999 30.0873 109.667 30.254 109.5C31.4206 109 33.7868 108.3 34.1868 107.5C34.6868 106.5 33.4923 105.92 32.254 106.5C30.5664 107.291 27.6867 108.5 27.1867 108C26.6867 107.5 27.7868 104 26.1868 104Z" fill="black"/>
<path d="M22.754 112.5L22.8995 112.464L22.8955 112.448L22.8881 112.433L22.754 112.5ZM32.254 106.5L32.3176 106.636V106.636L32.254 106.5ZM34.1868 107.5L34.0526 107.433V107.433L34.1868 107.5ZM30.254 109.5L30.1949 109.362L30.1683 109.374L30.1479 109.394L30.254 109.5ZM35.2537 111L35.3246 111.132V111.132L35.2537 111ZM30.7537 112V112.15H30.7644L30.7749 112.148L30.7537 112ZM30.2537 112.5L30.1867 112.634V112.634L30.2537 112.5ZM34.754 112.5L34.8213 112.365L34.8097 112.361L34.754 112.5ZM34.754 114L34.6869 113.866V113.866L34.754 114ZM22.754 112.5L22.8881 112.433C22.869 112.395 22.8512 112.328 22.8419 112.226C22.8328 112.126 22.8327 112.003 22.8419 111.857C22.8604 111.566 22.9153 111.198 23.0013 110.78C23.173 109.945 23.4656 108.92 23.8239 107.926C24.1826 106.931 24.6046 105.972 25.0333 105.265C25.2479 104.911 25.4605 104.627 25.6632 104.432C25.8691 104.235 26.0447 104.15 26.1868 104.15V104V103.85C25.9289 103.85 25.6815 103.999 25.4556 104.216C25.2263 104.436 24.9981 104.745 24.7768 105.11C24.3337 105.84 23.9038 106.819 23.5417 107.824C23.1793 108.83 22.8824 109.868 22.7074 110.72C22.6199 111.145 22.5622 111.528 22.5425 111.838C22.5327 111.993 22.5322 112.133 22.5431 112.253C22.5539 112.371 22.5764 112.48 22.6198 112.567L22.754 112.5ZM26.1868 104V104.15C26.3576 104.15 26.4819 104.196 26.5764 104.27C26.6728 104.345 26.7495 104.458 26.8078 104.609C26.9262 104.916 26.9555 105.343 26.9492 105.81C26.9461 106.042 26.9346 106.277 26.9227 106.507C26.9108 106.735 26.8985 106.959 26.8945 107.161C26.8906 107.363 26.8946 107.55 26.9173 107.706C26.9391 107.856 26.9818 108.007 27.0806 108.106L27.1867 108L27.2927 107.894C27.2666 107.868 27.2343 107.801 27.2142 107.663C27.1951 107.532 27.1906 107.364 27.1945 107.167C27.1983 106.971 27.2103 106.753 27.2222 106.522C27.2342 106.293 27.246 106.052 27.2492 105.815C27.2555 105.344 27.2285 104.866 27.0876 104.501C27.0162 104.316 26.9124 104.151 26.7608 104.033C26.6073 103.913 26.416 103.85 26.1868 103.85V104ZM27.1867 108L27.0806 108.106C27.1786 108.204 27.3191 108.246 27.4635 108.261C27.611 108.276 27.7849 108.265 27.9745 108.236C28.3543 108.179 28.8237 108.046 29.3234 107.876C30.3244 107.535 31.4719 107.032 32.3176 106.636L32.254 106.5L32.1903 106.364C31.3484 106.759 30.2123 107.256 29.2266 107.592C28.7329 107.76 28.2832 107.886 27.9297 107.939C27.7526 107.966 27.6063 107.974 27.494 107.962C27.3787 107.951 27.3197 107.921 27.2927 107.894L27.1867 108ZM32.254 106.5L32.3176 106.636C32.907 106.36 33.4653 106.37 33.8046 106.541C33.9721 106.626 34.0811 106.746 34.1273 106.887C34.1733 107.027 34.1642 107.21 34.0526 107.433L34.1868 107.5L34.3209 107.567C34.4594 107.29 34.4884 107.025 34.4124 106.794C34.3365 106.562 34.1632 106.386 33.9399 106.274C33.4973 106.05 32.8392 106.06 32.1903 106.364L32.254 106.5ZM34.1868 107.5L34.0526 107.433C33.972 107.594 33.7794 107.77 33.4879 107.953C33.2012 108.132 32.8397 108.307 32.4488 108.475C32.0584 108.642 31.6436 108.8 31.2513 108.949C30.8607 109.097 30.4903 109.236 30.1949 109.362L30.254 109.5L30.3131 109.638C30.601 109.514 30.9639 109.378 31.3575 109.229C31.7495 109.081 32.1699 108.921 32.567 108.75C32.9634 108.58 33.3413 108.399 33.6473 108.207C33.9484 108.018 34.2016 107.806 34.3209 107.567L34.1868 107.5ZM30.254 109.5L30.1479 109.394C30.1036 109.438 30.0508 109.495 30.003 109.555C29.9567 109.614 29.9082 109.685 29.8803 109.758C29.8542 109.826 29.83 109.942 29.9105 110.04C29.9836 110.128 30.1027 110.149 30.2118 110.149V109.999V109.849C30.1209 109.849 30.1245 109.828 30.1419 109.849C30.1667 109.879 30.1468 109.901 30.1605 109.865C30.1723 109.835 30.1989 109.791 30.2386 109.741C30.2768 109.693 30.321 109.645 30.36 109.606L30.254 109.5ZM30.2118 109.999V110.149C30.2808 110.149 30.3881 110.129 30.51 110.102C30.6373 110.074 30.7974 110.035 30.9806 109.988C31.3493 109.894 31.8123 109.77 32.3137 109.645C33.3198 109.394 34.4458 109.15 35.1868 109.15V109V108.85C34.4029 108.85 33.2414 109.105 32.2413 109.354C31.7395 109.479 31.2697 109.604 30.9063 109.697C30.7235 109.744 30.5677 109.782 30.4458 109.809C30.3183 109.837 30.2428 109.849 30.2118 109.849V109.999ZM35.1868 109V109.15C35.5445 109.15 35.7516 109.239 35.8633 109.349C35.9719 109.456 36.0143 109.608 35.9905 109.793C35.9412 110.176 35.6135 110.637 35.1829 110.868L35.2537 111L35.3246 111.132C35.8269 110.863 36.2245 110.324 36.288 109.832C36.3205 109.58 36.2661 109.325 36.0741 109.135C35.8852 108.949 35.5878 108.85 35.1868 108.85V109ZM35.2537 111L35.1829 110.868C35.0231 110.953 34.7414 111.049 34.378 111.147C34.0184 111.245 33.5907 111.342 33.1468 111.432C32.2591 111.613 31.3134 111.769 30.7325 111.852L30.7537 112L30.7749 112.148C31.3607 112.065 32.3124 111.909 33.2068 111.726C33.654 111.635 34.0884 111.537 34.4564 111.437C34.8206 111.338 35.1318 111.236 35.3246 111.132L35.2537 111ZM30.7537 112V111.85C30.6293 111.85 30.4691 111.85 30.316 111.858C30.167 111.866 30.0084 111.882 29.8936 111.92C29.8395 111.938 29.7679 111.97 29.721 112.031C29.6949 112.066 29.677 112.109 29.6758 112.159C29.6746 112.207 29.6892 112.249 29.7084 112.284C29.7445 112.349 29.8078 112.406 29.8807 112.457C29.9567 112.511 30.058 112.57 30.1867 112.634L30.2537 112.5L30.3208 112.366C30.1994 112.305 30.1131 112.254 30.0543 112.213C29.9924 112.169 29.9736 112.143 29.9706 112.138C29.9703 112.137 29.9761 112.148 29.9757 112.166C29.9752 112.186 29.9675 112.203 29.9599 112.213C29.9501 112.226 29.9488 112.218 29.9885 112.205C30.0612 112.181 30.1838 112.165 30.3318 112.158C30.4757 112.15 30.6281 112.15 30.7537 112.15V112ZM30.2537 112.5L30.1867 112.634C30.487 112.784 30.8791 112.83 31.2929 112.829C31.7098 112.829 32.1685 112.779 32.6121 112.725C33.0595 112.67 33.4887 112.61 33.8606 112.584C34.2388 112.558 34.5253 112.57 34.6983 112.639L34.754 112.5L34.8097 112.361C34.566 112.263 34.2158 112.259 33.8398 112.285C33.4575 112.312 33.015 112.373 32.5756 112.427C32.1325 112.482 31.6895 112.529 31.2922 112.529C30.8917 112.53 30.5571 112.484 30.3208 112.366L30.2537 112.5ZM34.754 112.5L34.6869 112.634C34.7382 112.66 34.8121 112.726 34.8823 112.832C34.9507 112.934 35.0067 113.061 35.0317 113.191C35.0566 113.321 35.0496 113.448 35.0008 113.561C34.9528 113.671 34.8592 113.78 34.6869 113.866L34.754 114L34.821 114.134C35.0488 114.02 35.1968 113.862 35.2759 113.68C35.3542 113.5 35.3597 113.309 35.3263 113.134C35.2929 112.96 35.2198 112.797 35.1319 112.665C35.0459 112.536 34.9364 112.424 34.821 112.366L34.754 112.5ZM34.754 114L34.6869 113.866C33.7091 114.355 31.6902 114.85 30.2118 114.85V115V115.15C31.7335 115.15 33.7988 114.645 34.821 114.134L34.754 114ZM30.2118 115V114.85C29.4717 114.85 27.7437 114.726 26.1418 114.354C25.3406 114.168 24.5793 113.921 23.9907 113.602C23.3978 113.281 23.0091 112.902 22.8995 112.464L22.754 112.5L22.6084 112.536C22.7489 113.098 23.2299 113.531 23.8478 113.866C24.4701 114.204 25.2608 114.457 26.0739 114.646C27.701 115.024 29.452 115.15 30.2118 115.15V115Z" fill="black"/>
<path d="M102.093 85C109.26 93.1667 117.718 111.291 107.21 115C98.7102 118 89.2104 114.833 87.7103 112.5" stroke="black" stroke-width="2.5" stroke-linecap="round"/>
<path d="M87.2102 104C88.8102 104 91.1432 111.5 90.643 112.5C90.143 114.5 84.6852 115 83.1852 115C81.6852 115 79.643 114.5 78.643 114C77.843 113.6 78.3097 112.667 78.643 112.5C79.4763 112.167 82.0699 113.037 83.1432 112.5C84.1435 112 83.1435 112 82.6432 112C81.4766 111.833 78.8483 111.378 78.1432 111C77.2103 110.5 76.6925 109 78.2102 109C79.735 109 82.7852 109.999 83.1852 109.999C83.5852 109.999 83.3097 109.667 83.143 109.5C81.9763 109 79.6102 108.3 79.2102 107.5C78.7102 106.5 79.9047 105.92 81.143 106.5C82.8306 107.291 85.7103 108.5 86.2103 108C86.7103 107.5 85.6102 104 87.2102 104Z" fill="black"/>
<path d="M90.643 112.5L90.4975 112.464L90.5015 112.448L90.5088 112.433L90.643 112.5ZM81.143 106.5L81.0794 106.636V106.636L81.143 106.5ZM79.2102 107.5L79.3444 107.433V107.433L79.2102 107.5ZM83.143 109.5L83.2021 109.362L83.2286 109.374L83.2491 109.394L83.143 109.5ZM78.1432 111L78.0724 111.132V111.132L78.1432 111ZM82.6432 112V112.15H82.6326L82.622 112.148L82.6432 112ZM83.1432 112.5L83.2103 112.634V112.634L83.1432 112.5ZM78.643 112.5L78.5757 112.365L78.5873 112.361L78.643 112.5ZM78.643 114L78.7101 113.866V113.866L78.643 114ZM90.643 112.5L90.5088 112.433C90.528 112.395 90.5458 112.328 90.5551 112.226C90.5641 112.126 90.5643 112.003 90.555 111.857C90.5366 111.566 90.4816 111.198 90.3957 110.78C90.224 109.945 89.9314 108.92 89.5731 107.926C89.2144 106.931 88.7923 105.972 88.3637 105.265C88.149 104.911 87.9364 104.627 87.7338 104.432C87.5279 104.235 87.3523 104.15 87.2102 104.15V104V103.85C87.4681 103.85 87.7154 103.999 87.9414 104.216C88.1706 104.436 88.3989 104.745 88.6202 105.11C89.0633 105.84 89.4932 106.819 89.8553 107.824C90.2177 108.83 90.5145 109.868 90.6896 110.72C90.777 111.145 90.8348 111.528 90.8544 111.838C90.8643 111.993 90.8648 112.133 90.8538 112.253C90.8431 112.371 90.8205 112.48 90.7772 112.567L90.643 112.5ZM87.2102 104V104.15C87.0394 104.15 86.9151 104.196 86.8206 104.27C86.7241 104.345 86.6475 104.458 86.5892 104.609C86.4708 104.916 86.4415 105.343 86.4477 105.81C86.4508 106.042 86.4624 106.277 86.4743 106.507C86.4862 106.735 86.4985 106.959 86.5024 107.161C86.5064 107.363 86.5023 107.55 86.4796 107.706C86.4579 107.856 86.4152 108.007 86.3164 108.106L86.2103 108L86.1042 107.894C86.1304 107.868 86.1627 107.801 86.1828 107.663C86.2018 107.532 86.2064 107.364 86.2025 107.167C86.1986 106.971 86.1867 106.753 86.1747 106.522C86.1628 106.293 86.1509 106.052 86.1478 105.815C86.1415 105.344 86.1684 104.866 86.3093 104.501C86.3807 104.316 86.4846 104.151 86.6362 104.033C86.7897 103.913 86.981 103.85 87.2102 103.85V104ZM86.2103 108L86.3164 108.106C86.2184 108.204 86.0779 108.246 85.9334 108.261C85.786 108.276 85.6121 108.265 85.4225 108.236C85.0427 108.179 84.5733 108.046 84.0736 107.876C83.0726 107.535 81.925 107.032 81.0794 106.636L81.143 106.5L81.2066 106.364C82.0485 106.759 83.1846 107.256 84.1704 107.592C84.6641 107.76 85.1138 107.886 85.4673 107.939C85.6444 107.966 85.7906 107.974 85.903 107.962C86.0183 107.951 86.0772 107.921 86.1042 107.894L86.2103 108ZM81.143 106.5L81.0794 106.636C80.4899 106.36 79.9316 106.37 79.5924 106.541C79.4249 106.626 79.3158 106.746 79.2697 106.887C79.2236 107.027 79.2328 107.21 79.3444 107.433L79.2102 107.5L79.076 107.567C78.9376 107.29 78.9086 107.025 78.9846 106.794C79.0605 106.562 79.2337 106.386 79.4571 106.274C79.8997 106.05 80.5578 106.06 81.2066 106.364L81.143 106.5ZM79.2102 107.5L79.3444 107.433C79.425 107.594 79.6176 107.77 79.9091 107.953C80.1957 108.132 80.5572 108.307 80.9482 108.475C81.3385 108.642 81.7534 108.8 82.1457 108.949C82.5363 109.097 82.9067 109.236 83.2021 109.362L83.143 109.5L83.0839 109.638C82.796 109.514 82.4331 109.378 82.0395 109.229C81.6475 109.081 81.227 108.921 80.83 108.75C80.4336 108.58 80.0557 108.399 79.7497 108.207C79.4486 108.018 79.1954 107.806 79.076 107.567L79.2102 107.5ZM83.143 109.5L83.2491 109.394C83.2933 109.438 83.3461 109.495 83.3939 109.555C83.4403 109.614 83.4888 109.685 83.5167 109.758C83.5427 109.826 83.5669 109.942 83.4865 110.04C83.4134 110.128 83.2943 110.149 83.1852 110.149V109.999V109.849C83.2761 109.849 83.2725 109.828 83.2551 109.849C83.2302 109.879 83.2501 109.901 83.2365 109.865C83.2247 109.835 83.198 109.791 83.1584 109.741C83.1201 109.693 83.076 109.645 83.0369 109.606L83.143 109.5ZM83.1852 109.999V110.149C83.1162 110.149 83.0088 110.129 82.887 110.102C82.7596 110.074 82.5996 110.035 82.4163 109.988C82.0477 109.894 81.5847 109.77 81.0833 109.645C80.0772 109.394 78.9512 109.15 78.2102 109.15V109V108.85C78.994 108.85 80.1556 109.105 81.1557 109.354C81.6574 109.479 82.1273 109.604 82.4907 109.697C82.6734 109.744 82.8292 109.782 82.9512 109.809C83.0787 109.837 83.1542 109.849 83.1852 109.849V109.999ZM78.2102 109V109.15C77.8524 109.15 77.6454 109.239 77.5337 109.349C77.4251 109.456 77.3826 109.608 77.4065 109.793C77.4557 110.176 77.7835 110.637 78.2141 110.868L78.1432 111L78.0724 111.132C77.57 110.863 77.1724 110.324 77.109 109.832C77.0765 109.58 77.1309 109.325 77.3229 109.135C77.5118 108.949 77.8091 108.85 78.2102 108.85V109ZM78.1432 111L78.2141 110.868C78.3739 110.953 78.6556 111.049 79.0189 111.147C79.3785 111.245 79.8063 111.342 80.2502 111.432C81.1378 111.613 82.0836 111.769 82.6645 111.852L82.6432 112L82.622 112.148C82.0362 112.065 81.0845 111.909 80.1901 111.726C79.743 111.635 79.3086 111.537 78.9406 111.437C78.5764 111.338 78.2651 111.236 78.0724 111.132L78.1432 111ZM82.6432 112V111.85C82.7677 111.85 82.9279 111.85 83.081 111.858C83.2299 111.866 83.3886 111.882 83.5034 111.92C83.5575 111.938 83.6291 111.97 83.6759 112.031C83.7021 112.066 83.72 112.109 83.7212 112.159C83.7224 112.207 83.7077 112.249 83.6885 112.284C83.6524 112.349 83.5891 112.406 83.5163 112.457C83.4402 112.511 83.339 112.57 83.2103 112.634L83.1432 112.5L83.0762 112.366C83.1975 112.305 83.2839 112.254 83.3426 112.213C83.4046 112.169 83.4234 112.143 83.4263 112.138C83.4267 112.137 83.4209 112.148 83.4213 112.166C83.4218 112.186 83.4294 112.203 83.4371 112.213C83.4468 112.226 83.4481 112.218 83.4085 112.205C83.3358 112.181 83.2131 112.165 83.0652 112.158C82.9213 112.15 82.7689 112.15 82.6432 112.15V112ZM83.1432 112.5L83.2103 112.634C82.91 112.784 82.5178 112.83 82.1041 112.829C81.6872 112.829 81.2284 112.779 80.7849 112.725C80.3375 112.67 79.9083 112.61 79.5364 112.584C79.1582 112.558 78.8717 112.57 78.6987 112.639L78.643 112.5L78.5873 112.361C78.831 112.263 79.1812 112.259 79.5572 112.285C79.9395 112.312 80.382 112.373 80.8214 112.427C81.2645 112.482 81.7075 112.529 82.1048 112.529C82.5053 112.53 82.8399 112.484 83.0762 112.366L83.1432 112.5ZM78.643 112.5L78.7101 112.634C78.6588 112.66 78.5849 112.726 78.5147 112.832C78.4463 112.934 78.3903 113.061 78.3653 113.191C78.3404 113.321 78.3474 113.448 78.3962 113.561C78.4441 113.671 78.5378 113.78 78.7101 113.866L78.643 114L78.5759 114.134C78.3482 114.02 78.2002 113.862 78.121 113.68C78.0428 113.5 78.0373 113.309 78.0707 113.134C78.1041 112.96 78.1772 112.797 78.2651 112.665C78.3511 112.536 78.4605 112.424 78.5759 112.366L78.643 112.5ZM78.643 114L78.7101 113.866C79.6878 114.355 81.7068 114.85 83.1852 114.85V115V115.15C81.6635 115.15 79.5982 114.645 78.5759 114.134L78.643 114ZM83.1852 115V114.85C83.9253 114.85 85.6532 114.726 87.2551 114.354C88.0564 114.168 88.8177 113.921 89.4062 113.602C89.9992 113.281 90.3879 112.902 90.4975 112.464L90.643 112.5L90.7885 112.536C90.6481 113.098 90.1671 113.531 89.5492 113.866C88.9269 114.204 88.1362 114.457 87.323 114.646C85.696 115.024 83.945 115.15 83.1852 115.15V115Z" fill="black"/>
<path d="M53.1868 104.5C54.1868 105.5 58.1868 106 59.6868 104.5" stroke="black" stroke-width="0.7" stroke-linecap="round"/>
<path d="M53.1868 125.5C54.1868 126.5 58.1868 127 59.6868 125.5" stroke="black" stroke-width="0.7" stroke-linecap="round"/>
</svg>
