<svg width="88" height="147" viewBox="0 0 88 147" fill="none" xmlns="http://www.w3.org/2000/svg">
<ellipse cx="44.9871" cy="136.604" rx="35.3492" ry="9.58622" fill="#D4CAFF"/>
<path d="M36.9136 107.314C36.959 106.785 36.7898 106.269 36.4285 105.881C36.0681 105.492 35.5451 105.261 34.9895 105.241C34.4338 105.22 33.8952 105.411 33.5069 105.772C33.1177 106.133 32.9106 106.634 32.9164 107.165C32.9164 107.165 32.9164 107.165 32.9164 107.165C32.9209 107.603 32.9263 108.056 32.9358 108.501C32.997 116.716 35.36 124.607 38.3333 131.932C38.4971 132.334 38.6654 132.741 38.8385 133.155C38.9121 133.33 39.0563 133.471 39.2342 133.549C39.4125 133.626 39.61 133.634 39.7883 133.569C39.9665 133.504 40.1123 133.371 40.1986 133.197C40.2846 133.022 40.304 132.822 40.2476 132.64C40.2476 132.64 40.2476 132.64 40.2476 132.64C40.1155 132.218 39.9884 131.802 39.866 131.391C37.6233 123.893 36.1336 116.185 36.8095 108.6C36.8411 108.177 36.8768 107.743 36.9136 107.314Z" fill="black"/>
<path d="M35.4697 130.654C32.5035 130.654 30.0557 132.032 29.6967 133.813C29.6395 134.097 29.774 134.38 30.0339 134.507C32.0252 135.484 38.5674 135.899 40.9179 134.527C41.168 134.381 41.2999 134.097 41.2427 133.813C40.8837 132.032 38.4359 130.654 35.4697 130.654Z" fill="black"/>
<path d="M54.0056 106.976C53.9612 106.447 54.1312 105.932 54.4924 105.543C54.8529 105.154 55.375 104.924 55.9297 104.903C56.4844 104.883 57.0222 105.073 57.4106 105.434C57.7998 105.795 58.0077 106.296 58.0028 106.827C58.0028 106.827 58.0028 106.827 58.0028 106.827C57.9985 107.27 57.997 107.732 57.9935 108.187C58.1103 116.584 56.1876 124.982 53.098 132.607C52.9293 133.028 52.7565 133.451 52.5775 133.881C52.504 134.056 52.3601 134.198 52.182 134.276C52.0037 134.354 51.8059 134.362 51.6273 134.297C51.4488 134.231 51.3027 134.098 51.2165 133.923C51.1306 133.749 51.1116 133.548 51.1684 133.366C51.1684 133.366 51.1684 133.366 51.1684 133.366C51.3057 132.929 51.4365 132.5 51.5631 132.073C53.9006 124.292 54.9598 116.289 54.1214 108.336C54.0835 107.891 54.0434 107.431 54.0056 106.976Z" fill="black"/>
<path d="M56.5276 130.654C59.4938 130.654 61.9415 132.032 62.3005 133.813C62.3577 134.097 62.2233 134.38 61.9633 134.507C59.9721 135.484 53.4298 135.899 51.0794 134.527C50.8293 134.381 50.6974 134.097 50.7546 133.813C51.1136 132.032 53.5613 130.654 56.5276 130.654Z" fill="black"/>
<path d="M10.064 20.9783H81.5809V105.845H10.064V20.9783Z" fill="#AB95F0"/>
<path d="M37.9925 58.6357C40.0364 61.1907 45.2741 64.8442 49.8729 59.019" stroke="black" stroke-width="2" stroke-linecap="round"/>
<path d="M10.064 19.548C10.064 18.7581 10.7043 18.1177 11.4943 18.1177H82.5344V20.9784H11.4943C10.7043 20.9784 10.064 20.338 10.064 19.548V19.548Z" fill="#7A5EF4"/>
<path d="M10.064 9.05888C10.064 8.26892 10.7043 7.62854 11.4943 7.62854H75.8595V10.4892H11.4943C10.7043 10.4892 10.064 9.84883 10.064 9.05888V9.05888Z" fill="#7A5EF4"/>
<path d="M75.8594 7.62854V7.62854C79.5459 7.62854 82.5343 10.617 82.5343 14.3035V105.845H75.8594V7.62854Z" fill="#7A5EF4"/>
<path d="M10.4664 9.4425H73.5067C75.7158 9.4425 77.5067 11.2334 77.5067 13.4425V14.7211C77.5067 16.9302 75.7158 18.7211 73.5067 18.7211H10.4664V9.4425Z" fill="#F8F8F8"/>
<ellipse cx="55.1861" cy="47.126" rx="5.04928" ry="4.48606" transform="scale(0.996892 1.00312) rotate(-90 55.1861 47.126)" fill="black"/>
<ellipse cx="52.6254" cy="48.0971" rx="0.733808" ry="0.621288" transform="matrix(-0.0154959 -0.997327 1.00244 -0.0154959 5.22643 101.327)" fill="white"/>
<ellipse cx="1.2473" cy="1.15272" rx="1.2473" ry="1.15272" transform="matrix(-0.0172133 -0.998442 1.00105 -0.013946 54.5149 50.8109)" fill="white"/>
<ellipse cx="32.9613" cy="47.126" rx="5.04928" ry="4.48606" transform="scale(0.996892 1.00312) rotate(-90 32.9613 47.126)" fill="black"/>
<ellipse cx="30.5771" cy="47.4986" rx="0.733808" ry="0.621288" transform="matrix(-0.0154959 -0.997327 1.00244 -0.0154959 -16.5636 78.73)" fill="white"/>
<ellipse cx="1.2473" cy="1.15272" rx="1.2473" ry="1.15272" transform="matrix(-0.0172133 -0.998442 1.00105 -0.013946 32.2869 50.8109)" fill="white"/>
<ellipse cx="58.4092" cy="55.8218" rx="3.97696" ry="1.73973" fill="#7A5EF4"/>
<ellipse cx="30.359" cy="55.8633" rx="3.97696" ry="1.73973" fill="#7A5EF4"/>
<path d="M33.9044 34.9921C33.9382 34.6609 33.972 34.3297 34.0058 33.9986C33.7828 33.9847 33.6261 34.0024 33.4654 34.0155C30.6906 34.4125 27.6115 35.117 25.9978 37.6657C25.9212 37.8088 25.8544 37.9565 25.7981 38.1094C25.9141 38.1567 26.0301 38.2041 26.1461 38.2514C26.2054 38.1191 26.2736 37.9922 26.3503 37.8699C27.9029 35.7018 30.9435 35.1607 33.5285 34.9818C33.6596 34.9787 33.8354 34.9795 33.9044 34.9921Z" fill="black"/>
<path d="M55.2115 35.0173C55.1552 34.6894 55.0988 34.3616 55.0425 34.0337C55.2697 34.0037 55.4184 34.017 55.575 34.0242C58.2387 34.323 61.0758 35.1285 62.6171 37.4715C62.6942 37.6023 62.7636 37.7361 62.8257 37.875C62.7132 37.9305 62.6007 37.9861 62.4882 38.0417C62.423 37.9204 62.3517 37.8043 62.2736 37.6915C60.767 35.6863 57.9608 35.0793 55.5411 34.992C55.4202 34.9932 55.2596 35.0025 55.2115 35.0173Z" fill="black"/>
<path d="M60.6849 0V16.187H71.2572V0L66.4516 3.51892L60.6849 0Z" fill="#FEB301"/>
<path d="M22.663 70.241V67.4502C23.705 67.5336 24.729 67.6804 25.7289 67.8784V65.1508C31.222 66.9392 41.825 71.6658 43.3579 76.2647H42.2082L41.0585 77.0312C36.7151 74.9872 26.4954 70.6242 22.663 70.241Z" fill="white"/>
<path d="M25.8788 67.3565C25.753 67.3146 25.6164 67.3248 25.4989 67.3862C25.3813 67.4475 25.2923 67.5549 25.2519 67.6836C25.2115 67.8122 25.223 67.9512 25.2843 68.0688C25.3457 68.1864 25.4518 68.2729 25.579 68.3105C25.579 68.3105 25.579 68.3105 25.579 68.3105C25.8682 68.3959 26.1652 68.4865 26.4661 68.5807C31.7101 70.3433 37.214 72.1375 41.4549 75.7026C41.6727 75.9142 41.8802 76.1412 42.0566 76.3751C42.086 76.4141 42.1301 76.44 42.1789 76.4473C42.2277 76.4546 42.2771 76.4427 42.3167 76.4139C42.3562 76.3851 42.3828 76.3418 42.3909 76.2931C42.3989 76.2445 42.3879 76.1945 42.3598 76.1545C42.3598 76.1545 42.3598 76.1545 42.3598 76.1545C42.1774 75.8948 41.9647 75.6465 41.743 75.4162C37.4587 71.5729 32.0264 69.6328 26.7708 67.6611C26.4688 67.5556 26.1704 67.4536 25.8788 67.3565Z" fill="#DED7FC"/>
<path d="M64.436 70.6243V67.8335C63.394 67.9169 62.37 68.0637 61.3701 68.2617V65.5341C55.877 67.3225 45.274 72.0491 43.7411 76.648H44.8908L46.4238 77.0313C50.7671 74.9873 60.6036 71.0075 64.436 70.6243Z" fill="white"/>
<path d="M61.6036 67.3565C61.7294 67.3146 61.8659 67.3248 61.9835 67.3862C62.1011 67.4475 62.19 67.5549 62.2305 67.6836C62.2709 67.8122 62.2594 67.9512 62.198 68.0688C62.1367 68.1864 62.0306 68.2729 61.9034 68.3105C61.9034 68.3105 61.9034 68.3105 61.9034 68.3105C61.6141 68.3959 61.3172 68.4865 61.0162 68.5807C55.7722 70.3433 50.2684 72.1375 46.0274 75.7026C45.8097 75.9142 45.6022 76.1412 45.4258 76.3751C45.3964 76.4141 45.3522 76.44 45.3035 76.4473C45.2547 76.4546 45.2053 76.4427 45.1657 76.4139C45.1262 76.3851 45.0996 76.3418 45.0915 76.2931C45.0834 76.2445 45.0944 76.1945 45.1225 76.1545C45.1225 76.1545 45.1225 76.1545 45.1225 76.1545C45.3049 75.8948 45.5177 75.6465 45.7393 75.4162C50.0237 71.5729 55.4559 69.6328 60.7116 67.6611C61.0135 67.5556 61.312 67.4536 61.6036 67.3565Z" fill="#DED7FC"/>
<path d="M45.0407 76.2648H42.0585C41.5062 76.2648 41.0585 76.7125 41.0585 77.2648V99.0256C41.0585 99.5779 41.5062 100.026 42.0585 100.026H45.0407C45.5929 100.026 46.0407 99.5779 46.0407 99.0256V77.2648C46.0407 76.7125 45.5929 76.2648 45.0407 76.2648Z" fill="#917ECE"/>
<path d="M67.1188 70.133C63.048 69.3928 52.0684 73.4174 46.6026 75.9954C46.2568 76.1585 46.0406 76.5073 46.0406 76.8896V99.9059C48.4933 97.7597 60.3482 96.0655 65.5858 95.4268L67.1188 70.133Z" fill="#E5DEFF"/>
<path d="M19.9803 70.2222C24.0511 69.4821 35.0307 73.5066 40.4965 76.0846C40.8423 76.2477 41.0585 76.5966 41.0585 76.9789V99.9951C38.6058 97.849 26.7509 96.1548 21.5133 95.516L19.9803 70.2222Z" fill="#E5DEFF"/>
<path d="M51.0228 79.3307C53.1945 78.3087 58.381 76.3414 61.7535 76.648" stroke="black" stroke-linecap="round"/>
<path d="M51.0228 82.3965C52.8842 81.2424 57.9211 79.7139 60.987 79.7139" stroke="black" stroke-linecap="round"/>
<path d="M8.9558 65.1508C3.4627 71.4103 -3.01975 85.3026 5.034 88.1451C11.549 90.4446 18.8305 88.0174 19.9802 86.2289" stroke="black" stroke-width="2.5" stroke-linecap="round"/>
<path d="M20.3636 79.7139C19.1372 79.7139 17.3491 85.4625 17.7324 86.2289C18.1157 87.7619 22.299 88.1451 23.4487 88.1451C24.5984 88.1451 26.1637 87.7619 26.9302 87.3787C27.5434 87.0721 27.1857 86.3567 26.9302 86.2289C26.2915 85.9735 24.3036 86.6402 23.4809 86.2289C22.7142 85.8457 23.4807 85.8457 23.8641 85.8457C24.7583 85.718 26.7728 85.3689 27.3133 85.0792C28.0283 84.696 28.4252 83.5463 27.2619 83.5463C26.0932 83.5463 23.7553 84.3117 23.4487 84.3117C23.1421 84.3117 23.3533 84.0573 23.481 83.9295C24.3753 83.5463 26.1889 83.0097 26.4955 82.3965C26.8787 81.6301 25.9631 81.1854 25.014 81.6301C23.7205 82.2361 21.5133 83.163 21.13 82.7798C20.7468 82.3965 21.59 79.7139 20.3636 79.7139Z" fill="black"/>
<path d="M17.7324 86.2289L17.878 86.1926L17.874 86.1766L17.8666 86.1618L17.7324 86.2289ZM21.13 82.7798L21.2361 82.6737V82.6737L21.13 82.7798ZM25.014 81.6301L24.9504 81.4942V81.4942L25.014 81.6301ZM26.4955 82.3965L26.3613 82.3295V82.3295L26.4955 82.3965ZM23.481 83.9295L23.422 83.7916L23.3954 83.803L23.375 83.8234L23.481 83.9295ZM27.3133 85.0792L27.3841 85.2114V85.2114L27.3133 85.0792ZM23.8641 85.8457V85.9957H23.8748L23.8853 85.9942L23.8641 85.8457ZM23.4809 86.2289L23.4138 86.3631V86.3631L23.4809 86.2289ZM26.9302 86.2289L26.9975 86.0943L26.9859 86.0897L26.9302 86.2289ZM17.7324 86.2289L17.8666 86.1618C17.8547 86.1381 17.8417 86.0921 17.8347 86.0159C17.828 85.9418 17.8278 85.849 17.8348 85.7384C17.8488 85.5174 17.8906 85.2374 17.9563 84.9178C18.0875 84.2792 18.3113 83.4957 18.5855 82.7348C18.86 81.9731 19.1826 81.2409 19.5095 80.7018C19.6732 80.4319 19.8343 80.2166 19.9865 80.0707C20.142 79.9216 20.2682 79.8639 20.3636 79.8639V79.7139V79.5639C20.1524 79.5639 19.9545 79.6858 19.7789 79.8541C19.6001 80.0255 19.4233 80.2654 19.253 80.5463C18.9116 81.1091 18.5812 81.8619 18.3033 82.6331C18.025 83.4052 17.797 84.2026 17.6624 84.8574C17.5952 85.1845 17.5506 85.4794 17.5354 85.7195C17.5278 85.8395 17.5274 85.9487 17.536 86.0431C17.5443 86.1352 17.5622 86.2239 17.5983 86.296L17.7324 86.2289ZM20.3636 79.7139V79.8639C20.4877 79.8639 20.5752 79.8971 20.6407 79.9482C20.7082 80.0008 20.7638 80.0813 20.8069 80.193C20.8951 80.4214 20.9178 80.7433 20.913 81.1011C20.9107 81.2775 20.9018 81.4575 20.8927 81.6335C20.8836 81.8083 20.8741 81.9804 20.8711 82.1361C20.868 82.291 20.8711 82.4371 20.8889 82.5596C20.9058 82.6755 20.9397 82.8016 21.024 82.8859L21.13 82.7798L21.2361 82.6737C21.2245 82.6621 21.201 82.6206 21.1858 82.5164C21.1716 82.4188 21.1681 82.2925 21.171 82.142C21.174 81.9923 21.1831 81.8261 21.1923 81.6491C21.2014 81.4733 21.2105 81.288 21.213 81.1051C21.2178 80.7443 21.1974 80.3716 21.0868 80.085C21.0305 79.9393 20.9478 79.8072 20.8252 79.7116C20.7006 79.6145 20.5461 79.5639 20.3636 79.5639V79.7139ZM21.13 82.7798L21.024 82.8859C21.1074 82.9693 21.2245 83.0029 21.3387 83.0145C21.4558 83.0264 21.5923 83.0175 21.7391 82.9954C22.0333 82.9509 22.3954 82.8487 22.7791 82.7179C23.5481 82.4557 24.429 82.0698 25.0776 81.7659L25.014 81.6301L24.9504 81.4942C24.3055 81.7964 23.436 82.1769 22.6823 82.4339C22.3046 82.5627 21.9622 82.6582 21.6943 82.6987C21.56 82.719 21.4511 82.7244 21.3691 82.716C21.2841 82.7074 21.2485 82.6861 21.2361 82.6737L21.13 82.7798ZM25.014 81.6301L25.0776 81.7659C25.5225 81.5575 25.9388 81.5677 26.1867 81.693C26.3086 81.7546 26.3847 81.8404 26.4166 81.9377C26.4484 82.0345 26.4437 82.1647 26.3613 82.3295L26.4955 82.3965L26.6296 82.4636C26.7389 82.2451 26.7634 82.0324 26.7016 81.8441C26.64 81.6564 26.4997 81.515 26.322 81.4252C25.9707 81.2477 25.4546 81.258 24.9504 81.4942L25.014 81.6301ZM26.4955 82.3965L26.3613 82.3295C26.304 82.444 26.1635 82.5743 25.9411 82.7138C25.7237 82.8502 25.4485 82.9832 25.1495 83.1114C24.8511 83.2393 24.5338 83.3604 24.2331 83.4742C23.934 83.5875 23.6492 83.6942 23.422 83.7916L23.481 83.9295L23.5401 84.0674C23.76 83.9732 24.0372 83.8692 24.3393 83.7548C24.6397 83.6411 24.9626 83.5179 25.2677 83.3871C25.5722 83.2566 25.8638 83.1165 26.1006 82.9679C26.3325 82.8224 26.5336 82.6556 26.6296 82.4636L26.4955 82.3965ZM23.481 83.9295L23.375 83.8234C23.3404 83.858 23.299 83.9023 23.2612 83.9502C23.2249 83.9963 23.1852 84.0541 23.1619 84.1149C23.1405 84.1709 23.1168 84.2757 23.1908 84.3654C23.2574 84.4461 23.363 84.4617 23.4487 84.4617V84.3117V84.1617C23.4196 84.1617 23.4055 84.1585 23.4011 84.1572C23.3973 84.156 23.4093 84.1589 23.4222 84.1745C23.4535 84.2125 23.4331 84.2457 23.4421 84.2221C23.4493 84.2033 23.4672 84.1736 23.4968 84.136C23.5249 84.1003 23.5578 84.0649 23.5871 84.0356L23.481 83.9295ZM23.4487 84.3117V84.4617C23.506 84.4617 23.592 84.4456 23.6848 84.4253C23.783 84.4038 23.9062 84.3734 24.0467 84.3374C24.3299 84.265 24.684 84.1702 25.0683 84.0745C25.8401 83.8824 26.699 83.6963 27.2619 83.6963V83.5463V83.3963C26.6561 83.3963 25.7617 83.5928 24.9958 83.7834C24.6112 83.8791 24.2503 83.9757 23.9724 84.0468C23.8323 84.0826 23.7134 84.1119 23.6206 84.1323C23.5222 84.1538 23.4681 84.1617 23.4487 84.1617V84.3117ZM27.2619 83.5463V83.6963C27.5311 83.6963 27.6793 83.763 27.7559 83.8386C27.8294 83.9112 27.8605 84.0156 27.8432 84.1499C27.8071 84.4299 27.5641 84.7746 27.2424 84.947L27.3133 85.0792L27.3841 85.2114C27.7775 85.0006 28.0904 84.5788 28.1407 84.1882C28.1666 83.9872 28.1236 83.7801 27.9667 83.6252C27.8128 83.4733 27.5744 83.3963 27.2619 83.3963V83.5463ZM27.3133 85.0792L27.2424 84.947C27.1238 85.0106 26.9113 85.0831 26.6329 85.1584C26.3583 85.2327 26.0312 85.3068 25.6913 85.3762C25.0117 85.515 24.2875 85.6337 23.8429 85.6972L23.8641 85.8457L23.8853 85.9942C24.3349 85.93 25.065 85.8103 25.7514 85.6701C26.0945 85.6001 26.4282 85.5246 26.7113 85.448C26.9905 85.3724 27.2325 85.2927 27.3841 85.2114L27.3133 85.0792ZM23.8641 85.8457V85.6957C23.7688 85.6957 23.6451 85.6957 23.5268 85.7019C23.4125 85.7079 23.2866 85.7203 23.1938 85.7513C23.1506 85.7657 23.0872 85.7925 23.0447 85.8485C23.0207 85.8801 23.004 85.9203 23.0028 85.9666C23.0017 86.0111 23.0154 86.0498 23.0323 86.0803C23.0638 86.137 23.1175 86.1842 23.1746 86.2248C23.235 86.2676 23.3143 86.3134 23.4138 86.3631L23.4809 86.2289L23.5479 86.0948C23.4558 86.0487 23.3913 86.0107 23.3483 85.9801C23.3021 85.9473 23.2929 85.9317 23.2945 85.9345C23.2964 85.938 23.3033 85.952 23.3027 85.9739C23.3022 85.9975 23.2933 86.0171 23.2835 86.03C23.2694 86.0486 23.2599 86.0455 23.2886 86.0359C23.3395 86.019 23.4292 86.0074 23.5425 86.0015C23.6517 85.9957 23.7676 85.9957 23.8641 85.9957V85.8457ZM23.4809 86.2289L23.4138 86.3631C23.6515 86.4819 23.9588 86.5172 24.2774 86.5165C24.5993 86.5158 24.9527 86.4779 25.2928 86.4362C25.6366 86.3941 25.9641 86.3484 26.2479 86.3286C26.538 86.3084 26.7502 86.3185 26.8745 86.3682L26.9302 86.2289L26.9859 86.0897C26.7909 86.0117 26.515 86.0093 26.227 86.0294C25.9328 86.0499 25.5921 86.0973 25.2563 86.1385C24.9166 86.1801 24.5789 86.2159 24.2767 86.2165C23.9713 86.2172 23.7216 86.1816 23.5479 86.0948L23.4809 86.2289ZM26.9302 86.2289L26.8631 86.3631C26.8949 86.379 26.9474 86.4246 26.9994 86.5026C27.0495 86.5778 27.0905 86.6703 27.1086 86.765C27.1267 86.8594 27.1212 86.9496 27.0872 87.0279C27.0541 87.1041 26.9887 87.1817 26.8631 87.2445L26.9302 87.3787L26.9973 87.5128C27.1783 87.4223 27.2981 87.2956 27.3624 87.1474C27.4258 87.0013 27.4299 86.8473 27.4033 86.7085C27.3767 86.57 27.3187 86.4406 27.249 86.3362C27.1812 86.2345 27.0932 86.1427 26.9973 86.0948L26.9302 86.2289ZM26.9302 87.3787L26.8631 87.2445C26.1189 87.6166 24.5768 87.9951 23.4487 87.9951V88.1451V88.2951C24.6201 88.2951 26.2086 87.9072 26.9973 87.5128L26.9302 87.3787ZM23.4487 88.1451V87.9951C22.8837 87.9951 21.562 87.9003 20.3371 87.6158C19.7243 87.4735 19.1443 87.2855 18.6971 87.0432C18.2455 86.7984 17.9584 86.5141 17.878 86.1926L17.7324 86.2289L17.5869 86.2653C17.6982 86.7103 18.0776 87.0487 18.5541 87.3069C19.0351 87.5676 19.6445 87.7629 20.2692 87.908C21.5192 88.1984 22.864 88.2951 23.4487 88.2951V88.1451Z" fill="black"/>
<path d="M78.5443 65.1508C84.0374 71.4103 90.5198 85.3026 82.4661 88.1451C75.9511 90.4446 68.6696 88.0174 67.5199 86.2289" stroke="black" stroke-width="2.5" stroke-linecap="round"/>
<path d="M67.1367 79.7139C68.3631 79.7139 70.1512 85.4625 69.7679 86.2289C69.3846 87.7619 65.2013 88.1451 64.0516 88.1451C62.9019 88.1451 61.3366 87.7619 60.5701 87.3787C59.9569 87.0721 60.3146 86.3567 60.5701 86.2289C61.2088 85.9735 63.1967 86.6402 64.0195 86.2289C64.7861 85.8457 64.0196 85.8457 63.6362 85.8457C62.742 85.718 60.7275 85.3689 60.187 85.0792C59.472 84.696 59.0751 83.5463 60.2384 83.5463C61.4071 83.5463 63.745 84.3117 64.0516 84.3117C64.3582 84.3117 64.147 84.0573 64.0193 83.9295C63.125 83.5463 61.3114 83.0097 61.0049 82.3965C60.6216 81.6301 61.5372 81.1854 62.4863 81.6301C63.7798 82.2361 65.987 83.163 66.3703 82.7798C66.7535 82.3965 65.9103 79.7139 67.1367 79.7139Z" fill="black"/>
<path d="M69.7679 86.2289L69.6223 86.1926L69.6263 86.1766L69.6337 86.1618L69.7679 86.2289ZM66.3703 82.7798L66.2642 82.6737V82.6737L66.3703 82.7798ZM62.4863 81.6301L62.5499 81.4942V81.4942L62.4863 81.6301ZM61.0049 82.3965L61.139 82.3295V82.3295L61.0049 82.3965ZM64.0193 83.9295L64.0784 83.7916L64.1049 83.803L64.1253 83.8234L64.0193 83.9295ZM60.187 85.0792L60.1162 85.2114V85.2114L60.187 85.0792ZM63.6362 85.8457V85.9957H63.6255L63.615 85.9942L63.6362 85.8457ZM64.0195 86.2289L64.0865 86.3631V86.3631L64.0195 86.2289ZM60.5701 86.2289L60.5028 86.0943L60.5144 86.0897L60.5701 86.2289ZM69.7679 86.2289L69.6337 86.1618C69.6456 86.1381 69.6586 86.0921 69.6656 86.0159C69.6723 85.9418 69.6725 85.849 69.6655 85.7384C69.6515 85.5174 69.6097 85.2374 69.544 84.9178C69.4128 84.2792 69.189 83.4957 68.9148 82.7348C68.6403 81.9731 68.3177 81.2409 67.9908 80.7018C67.8271 80.4319 67.666 80.2166 67.5138 80.0707C67.3583 79.9216 67.2321 79.8639 67.1367 79.8639V79.7139V79.5639C67.3479 79.5639 67.5458 79.6858 67.7214 79.8541C67.9002 80.0255 68.077 80.2654 68.2474 80.5463C68.5887 81.1091 68.9191 81.8619 69.197 82.6331C69.4753 83.4052 69.7033 84.2026 69.8379 84.8574C69.9051 85.1845 69.9497 85.4794 69.9649 85.7195C69.9725 85.8395 69.9729 85.9487 69.9643 86.0431C69.956 86.1352 69.9381 86.2239 69.902 86.296L69.7679 86.2289ZM67.1367 79.7139V79.8639C67.0126 79.8639 66.9252 79.8971 66.8596 79.9482C66.7921 80.0008 66.7365 80.0813 66.6934 80.193C66.6052 80.4214 66.5825 80.7433 66.5873 81.1011C66.5897 81.2775 66.5985 81.4575 66.6076 81.6335C66.6167 81.8083 66.6262 81.9804 66.6292 82.1361C66.6323 82.291 66.6292 82.4371 66.6114 82.5596C66.5945 82.6755 66.5606 82.8016 66.4763 82.8859L66.3703 82.7798L66.2642 82.6737C66.2758 82.6621 66.2993 82.6206 66.3145 82.5164C66.3287 82.4188 66.3322 82.2925 66.3293 82.142C66.3263 81.9923 66.3172 81.8261 66.308 81.6491C66.2989 81.4733 66.2898 81.288 66.2873 81.1051C66.2825 80.7443 66.3029 80.3716 66.4135 80.085C66.4698 79.9393 66.5525 79.8072 66.6752 79.7116C66.7997 79.6145 66.9542 79.5639 67.1367 79.5639V79.7139ZM66.3703 82.7798L66.4763 82.8859C66.3929 82.9693 66.2758 83.0029 66.1616 83.0145C66.0445 83.0264 65.908 83.0175 65.7612 82.9954C65.467 82.9509 65.1049 82.8487 64.7212 82.7179C63.9522 82.4557 63.0713 82.0698 62.4227 81.7659L62.4863 81.6301L62.5499 81.4942C63.1948 81.7964 64.0643 82.1769 64.818 82.4339C65.1957 82.5627 65.5381 82.6582 65.806 82.6987C65.9403 82.719 66.0492 82.7244 66.1312 82.716C66.2162 82.7074 66.2518 82.6861 66.2642 82.6737L66.3703 82.7798ZM62.4863 81.6301L62.4227 81.7659C61.9778 81.5575 61.5615 81.5677 61.3136 81.693C61.1917 81.7546 61.1156 81.8404 61.0837 81.9377C61.0519 82.0345 61.0566 82.1647 61.139 82.3295L61.0049 82.3965L60.8707 82.4636C60.7614 82.2451 60.7369 82.0324 60.7987 81.8441C60.8603 81.6564 61.0006 81.515 61.1783 81.4252C61.5296 81.2477 62.0457 81.258 62.5499 81.4942L62.4863 81.6301ZM61.0049 82.3965L61.139 82.3295C61.1963 82.444 61.3368 82.5743 61.5592 82.7138C61.7766 82.8502 62.0518 82.9832 62.3508 83.1114C62.6492 83.2393 62.9665 83.3604 63.2672 83.4742C63.5663 83.5875 63.8511 83.6942 64.0784 83.7916L64.0193 83.9295L63.9602 84.0674C63.7403 83.9732 63.4631 83.8692 63.161 83.7548C62.8606 83.6411 62.5377 83.5179 62.2326 83.3871C61.9281 83.2566 61.6365 83.1165 61.3997 82.9679C61.1679 82.8224 60.9667 82.6556 60.8707 82.4636L61.0049 82.3965ZM64.0193 83.9295L64.1253 83.8234C64.1599 83.858 64.2013 83.9023 64.2391 83.9502C64.2754 83.9963 64.3151 84.0541 64.3384 84.1149C64.3598 84.1709 64.3835 84.2757 64.3096 84.3654C64.2429 84.4461 64.1373 84.4617 64.0516 84.4617V84.3117V84.1617C64.0807 84.1617 64.0948 84.1585 64.0992 84.1572C64.103 84.156 64.091 84.1589 64.0781 84.1745C64.0468 84.2125 64.0672 84.2457 64.0582 84.2221C64.051 84.2033 64.0332 84.1736 64.0035 84.136C63.9754 84.1003 63.9425 84.0649 63.9132 84.0356L64.0193 83.9295ZM64.0516 84.3117V84.4617C63.9943 84.4617 63.9083 84.4456 63.8155 84.4253C63.7173 84.4038 63.5941 84.3734 63.4536 84.3374C63.1704 84.265 62.8163 84.1702 62.4321 84.0745C61.6602 83.8824 60.8013 83.6963 60.2384 83.6963V83.5463V83.3963C60.8442 83.3963 61.7386 83.5928 62.5045 83.7834C62.8891 83.8791 63.25 83.9757 63.5279 84.0468C63.668 84.0826 63.7869 84.1119 63.8797 84.1323C63.9781 84.1538 64.0322 84.1617 64.0516 84.1617V84.3117ZM60.2384 83.5463V83.6963C59.9692 83.6963 59.821 83.763 59.7444 83.8386C59.6709 83.9112 59.6398 84.0156 59.6571 84.1499C59.6932 84.4299 59.9362 84.7746 60.2579 84.947L60.187 85.0792L60.1162 85.2114C59.7228 85.0006 59.4099 84.5788 59.3596 84.1882C59.3337 83.9872 59.3768 83.7801 59.5336 83.6252C59.6875 83.4733 59.9259 83.3963 60.2384 83.3963V83.5463ZM60.187 85.0792L60.2579 84.947C60.3765 85.0106 60.589 85.0831 60.8674 85.1584C61.142 85.2327 61.4691 85.3068 61.809 85.3762C62.4886 85.515 63.2128 85.6337 63.6574 85.6972L63.6362 85.8457L63.615 85.9942C63.1654 85.93 62.4353 85.8103 61.749 85.6701C61.4059 85.6001 61.0721 85.5246 60.789 85.448C60.5098 85.3724 60.2678 85.2927 60.1162 85.2114L60.187 85.0792ZM63.6362 85.8457V85.6957C63.7315 85.6957 63.8552 85.6957 63.9735 85.7019C64.0879 85.7079 64.2137 85.7203 64.3065 85.7513C64.3497 85.7657 64.4131 85.7925 64.4556 85.8485C64.4796 85.8801 64.4963 85.9203 64.4975 85.9666C64.4986 86.0111 64.4849 86.0498 64.468 86.0803C64.4365 86.137 64.3828 86.1842 64.3257 86.2248C64.2654 86.2676 64.186 86.3134 64.0865 86.3631L64.0195 86.2289L63.9524 86.0948C64.0445 86.0487 64.109 86.0107 64.152 85.9801C64.1982 85.9473 64.2074 85.9317 64.2058 85.9345C64.2039 85.938 64.197 85.952 64.1976 85.9739C64.1981 85.9975 64.207 86.0171 64.2168 86.03C64.2309 86.0486 64.2404 86.0455 64.2117 86.0359C64.1608 86.019 64.0711 86.0074 63.9578 86.0015C63.8486 85.9957 63.7327 85.9957 63.6362 85.9957V85.8457ZM64.0195 86.2289L64.0865 86.3631C63.8488 86.4819 63.5416 86.5172 63.2229 86.5165C62.901 86.5158 62.5476 86.4779 62.2075 86.4362C61.8637 86.3941 61.5363 86.3484 61.2524 86.3286C60.9623 86.3084 60.7501 86.3185 60.6258 86.3682L60.5701 86.2289L60.5144 86.0897C60.7094 86.0117 60.9853 86.0093 61.2733 86.0294C61.5675 86.0499 61.9082 86.0973 62.244 86.1385C62.5837 86.1801 62.9214 86.2159 63.2236 86.2165C63.529 86.2172 63.7787 86.1816 63.9524 86.0948L64.0195 86.2289ZM60.5701 86.2289L60.6372 86.3631C60.6054 86.379 60.5529 86.4246 60.5009 86.5026C60.4508 86.5778 60.4098 86.6703 60.3917 86.765C60.3736 86.8594 60.3791 86.9496 60.4131 87.0279C60.4462 87.1041 60.5116 87.1817 60.6372 87.2445L60.5701 87.3787L60.503 87.5128C60.322 87.4223 60.2022 87.2956 60.1379 87.1474C60.0745 87.0013 60.0704 86.8473 60.097 86.7085C60.1236 86.57 60.1817 86.4406 60.2513 86.3362C60.3191 86.2345 60.4071 86.1427 60.503 86.0948L60.5701 86.2289ZM60.5701 87.3787L60.6372 87.2445C61.3814 87.6166 62.9235 87.9951 64.0516 87.9951V88.1451V88.2951C62.8802 88.2951 61.2917 87.9072 60.503 87.5128L60.5701 87.3787ZM64.0516 88.1451V87.9951C64.6166 87.9951 65.9383 87.9003 67.1632 87.6158C67.776 87.4735 68.356 87.2855 68.8032 87.0432C69.2548 86.7984 69.542 86.5141 69.6223 86.1926L69.7679 86.2289L69.9134 86.2653C69.8021 86.7103 69.4227 87.0487 68.9462 87.3069C68.4652 87.5676 67.8558 87.7629 67.2311 87.908C65.9811 88.1984 64.6363 88.2951 64.0516 88.2951V88.1451Z" fill="black"/>
<path d="M41.0585 80.097C41.825 80.8635 44.8909 81.2468 46.0407 80.097" stroke="black" stroke-width="0.7" stroke-linecap="round"/>
<path d="M41.0585 96.1932C41.825 96.9597 44.8909 97.343 46.0407 96.1932" stroke="black" stroke-width="0.7" stroke-linecap="round"/>
</svg>
